<svg width="385" height="681" viewBox="0 0 385 681" fill="none" xmlns="http://www.w3.org/2000/svg">
<path d="M64.3558 484.759C22.9622 568.608 47.1085 619.642 64.3558 634.678C138.652 679.256 270.439 646.177 327.046 624.065C351.458 585.855 275.304 500.238 234.176 462.205C202.335 422.934 165.186 417.539 150.593 419.75C113.444 409.136 77.623 458.667 64.3558 484.759Z" fill="white" stroke="white"/>
<g filter="url(#filter0_d_891_69)">
<path d="M358.24 579.223C364.247 585.837 377.935 598.453 384.631 596.002C380.584 580.144 379.498 544.217 407.527 527.366C410.682 544.581 410.519 582.407 384.631 596.002C391.703 600.281 408.66 608.426 419.91 606.781C416.237 592.504 417.103 561.766 449.96 553.038C450.114 573.217 444.895 610.782 423.395 607.613C438.673 611.146 464.859 615.786 470.032 611.098C464.52 592.458 461.952 552.735 495.775 542.966C519.42 581.609 466.315 592.27 470.032 611.098C479.867 610.818 501.972 606.447 511.711 591.21C510.744 570.849 516.486 532.09 547.195 539.941C535.426 553.003 511.854 581.544 511.711 591.21C523.766 580.217 548.116 561.303 549.076 573.587C543.982 580.258 530.533 595.445 517.485 602.83C526.455 607.444 534.996 608.954 550.527 604.128C562.611 591.122 587.023 596.951 562.246 631.941C543.519 643.773 510.841 640.42 517.485 602.83C510.641 609.08 497.639 619.642 486.759 625.105C499.138 623.441 512.931 627.876 512.716 651.956C497.904 656.405 469.577 657.959 474.768 628.592C466.486 630.454 451.624 632.687 439.488 631.737C447.568 636.45 454.768 645.428 454.305 661.316C438.033 660.964 409.216 653.649 424.127 627.211C416.151 626.134 402.065 623.407 391.135 619.195C399.814 626.376 406.096 637.412 397.371 651.252C385.552 651.687 365.126 644.341 377.98 611.483C370.848 611.232 356.086 609.127 354.087 602.717L358.24 579.223Z" fill="#5BC8AC"/>
<path d="M384.631 596.002C377.935 598.453 364.247 585.837 358.24 579.223L354.087 602.717C356.086 609.127 370.848 611.232 377.98 611.483M384.631 596.002C380.584 580.144 379.498 544.217 407.527 527.366C410.682 544.581 410.519 582.408 384.631 596.002ZM384.631 596.002C391.703 600.281 408.66 608.426 419.91 606.781M419.91 606.781C416.237 592.504 417.103 561.766 449.96 553.038C450.122 574.266 444.338 614.733 419.91 606.781ZM419.91 606.781C434.287 610.332 464.439 616.166 470.032 611.098M470.032 611.098C464.52 592.458 461.952 552.735 495.775 542.966C519.42 581.609 466.315 592.27 470.032 611.098ZM470.032 611.098C479.867 610.818 501.972 606.447 511.711 591.21M511.711 591.21C510.744 570.849 516.486 532.09 547.195 539.941C535.426 553.003 511.854 581.544 511.711 591.21ZM511.711 591.21C523.766 580.217 548.116 561.303 549.076 573.587C543.982 580.258 530.533 595.445 517.485 602.83M517.485 602.83C526.455 607.444 534.996 608.954 550.527 604.128C562.611 591.122 587.023 596.951 562.246 631.941C543.519 643.773 510.841 640.42 517.485 602.83ZM517.485 602.83C507.761 611.711 485.603 629.296 474.768 628.592M474.768 628.592C487.539 622.774 513.008 619.301 512.716 651.956C497.904 656.405 469.577 657.959 474.768 628.592ZM474.768 628.592C462.2 631.418 434.476 635.098 424.127 627.211M424.127 627.211C434.509 627.532 455.078 634.802 454.305 661.316C438.033 660.964 409.216 653.649 424.127 627.211ZM424.127 627.211C412.021 625.576 385.844 620.141 377.98 611.483M377.98 611.483C389.883 616.111 410.426 630.544 397.371 651.252C385.552 651.687 365.126 644.341 377.98 611.483Z" stroke="white" stroke-width="2"/>
</g>
<path fill-rule="evenodd" clip-rule="evenodd" d="M362.631 169C339.281 212.516 313.1 228.702 302.929 231.356C211.651 183.594 133.109 211.455 105.248 231.356C74.4679 244.092 58.8126 212.782 54.8324 195.534C13.4388 234.805 57.9281 271.157 85.347 284.424C54.5671 279.118 38.0273 246.834 33.605 231.356C22.6833 251.03 25.3757 267.088 33.5181 279.329C23.1982 304.695 45.7674 328.666 57.1945 334.84C68.6646 324.944 80.4938 307.728 85.3408 304.556C85.4839 304.96 85.6369 305.359 85.7991 305.752C83.1357 308.953 76.015 316.254 62.3281 329.533C14.1945 376.233 54.0804 413.558 80.0401 426.383C-43.0794 563.301 6.54959 601.952 46.754 604.164H25.6447C18.2151 627.514 47.0046 635.12 62.3281 636.005C67.1755 642.553 73.0361 648.779 80.0401 654.579L62.3281 636.005C54.933 626.016 49.8959 615.279 46.754 604.164C31.9816 551.904 59.1072 491.296 80.0401 460.878C124.618 382.336 201.214 428.152 233.939 460.878C187.239 556.402 235.899 584.705 266.067 586.916C278.845 627.551 310.436 630.821 328.136 625.694C330.871 629.454 333.619 632.986 336.097 636.005C400.841 652.987 411.72 602.395 409.066 574.976C322.034 450.795 306.467 389.677 309.562 374.641C336.097 350.23 327.694 318.477 320.176 305.652C380.675 305.652 387.475 266.735 383.313 247.276C386.101 235.402 384.1 223.65 380.796 215.435C389.392 191.95 375.691 175.929 362.631 169Z" fill="#F18D9E"/>
<path d="M380.796 215.435C389.392 191.95 375.691 175.929 362.631 169C339.281 212.516 313.1 228.702 302.929 231.356C211.651 183.594 133.109 211.455 105.248 231.356C74.4679 244.092 58.8126 212.782 54.8324 195.534C13.4388 234.805 57.9281 271.157 85.347 284.424C54.5671 279.118 38.0273 246.834 33.605 231.356C22.6833 251.03 25.3757 267.088 33.5181 279.329M380.796 215.435C375.128 230.92 359.766 249.649 328.136 271.157C345.039 259.659 379.233 232.417 380.796 215.435ZM380.796 215.435C384.1 223.65 386.101 235.402 383.313 247.276M383.313 247.276C378.897 266.086 362.467 285.202 320.176 291.058C337.06 289.731 373.324 279.118 383.313 247.276ZM383.313 247.276C387.475 266.735 380.675 305.652 320.176 305.652C327.694 318.477 336.097 350.23 309.562 374.641C306.467 389.677 322.034 450.795 409.066 574.976C411.72 602.395 400.841 652.987 336.097 636.005C333.619 632.986 330.871 629.454 328.136 625.694M328.136 625.694C315.249 607.972 302.665 585.165 320.176 586.916C311.331 586.233 300.541 593.033 328.136 625.694ZM328.136 625.694C310.436 630.821 278.845 627.551 266.067 586.916M266.067 586.916C262.563 575.773 260.474 561.821 260.474 544.461L266.067 586.916ZM266.067 586.916C235.899 584.705 187.239 556.402 233.939 460.878C201.214 428.152 124.618 382.336 80.0401 460.878C59.1072 491.296 31.9816 551.904 46.754 604.164M62.3281 636.005C67.1755 642.553 73.0361 648.779 80.0401 654.579L62.3281 636.005ZM62.3281 636.005C47.0046 635.12 18.2151 627.514 25.6447 604.164H46.754M62.3281 636.005C54.933 626.016 49.8959 615.279 46.754 604.164M46.754 604.164C6.54959 601.952 -43.0794 563.301 80.0401 426.383C54.0804 413.558 14.1945 376.233 62.3281 329.533C76.015 316.254 83.1357 308.953 85.7991 305.752M85.7991 305.752C85.6369 305.359 85.4839 304.96 85.3408 304.556M85.7991 305.752C87.7389 303.421 87.3146 303.264 85.3408 304.556M85.3408 304.556C80.4938 307.728 68.6646 324.944 57.1945 334.84C45.7674 328.666 23.1982 304.695 33.5181 279.329M33.5181 279.329C33.5468 279.259 33.5758 279.188 33.605 279.118C32.2782 285.751 37.5851 300.345 69.4264 305.652C58.1375 301.707 42.5069 292.844 33.5181 279.329Z" stroke="white" stroke-width="3"/>
<path d="M48.2837 650.21C38.9967 626.33 87.2008 628.983 106.659 634.29L124.058 656.844L58.8975 656.844L48.2837 650.21Z" fill="#F9DA7C" stroke="white"/>
<path d="M156.878 655.442C144.905 629.99 191.479 627.581 210.823 631.305L230.406 654.385L167.909 661.62L156.878 655.442Z" fill="#F9DA7C" stroke="white"/>
<path d="M43.3072 648.506C41.3456 638.634 51.417 641.872 56.698 644.725L47.2375 644.138C44.8212 645.689 43.6105 647.697 43.3072 648.506Z" fill="#8A7765"/>
<path d="M45.9607 655.425C44.474 645.419 59.8093 647.17 67.6628 649.296L52.8593 650.218C48.8023 652.233 46.5698 654.529 45.9607 655.425Z" fill="#8A7765"/>
<path d="M56.1299 659.866C55.4867 649.771 70.6214 652.8 78.2691 655.577L63.4404 655.256C59.2289 656.924 56.8119 659.024 56.1299 659.866Z" fill="#8A7765"/>
<path d="M153.1 652.55C149.268 643.243 159.775 644.473 165.508 646.252L156.112 647.505C154.041 649.494 153.241 651.697 153.1 652.55Z" fill="#8A7765"/>
<path d="M157.041 658.825C153.648 649.295 169.033 648.049 177.149 648.618L162.803 652.384C159.212 655.144 157.465 657.828 157.041 658.825Z" fill="#8A7765"/>
<path d="M167.876 661.217C165.294 651.436 180.729 651.484 188.769 652.73L174.158 655.281C170.348 657.731 168.383 660.259 167.876 661.217Z" fill="#8A7765"/>
<path d="M92.2168 541.808L68.3359 516.601L92.2168 529.868L116.098 498.026L149.266 525.888L186.414 508.64L149.266 544.462L116.098 520.581L92.2168 541.808Z" fill="#5BC8AC"/>
<path d="M89.8317 593.474L65.6825 567.547L89.8317 581.193L113.981 548.442L147.522 577.099L185.087 559.359L147.522 596.204L113.981 571.64L89.8317 593.474Z" fill="#5BC8AC"/>
<path d="M100.923 493.25L81.6033 473.084L100.923 483.697L120.242 458.224L147.075 480.513L177.127 466.715L147.075 495.373L120.242 476.268L100.923 493.25Z" fill="#5BC8AC"/>
<path d="M136.833 259.821C82.9562 275.739 92.7671 307.078 104.407 320.758C89.4413 320.758 86.5313 334.023 86.947 340.656C96.9242 348.615 115.216 349.775 123.114 349.361C138.08 349.361 169.259 330.292 182.977 320.758L269.031 340.656C293.973 344.635 288.569 329.049 282.749 320.758C301.706 279.968 269.862 255.676 251.57 248.629C186.719 247.634 178.82 275.574 182.977 289.668C173.998 264.796 148.473 259.407 136.833 259.821Z" fill="white"/>
<path d="M238.156 276.464C222.235 272.219 226.215 281.771 223.562 287.078C227.807 269.035 213.832 269.831 206.314 272.484C192.516 284.159 202.334 290.616 208.968 292.385C197.293 292.385 199.681 298.576 202.334 301.672C205.518 309.102 214.275 304.768 218.255 301.672C238.421 309.102 234.175 294.976 230.195 292.385C234.175 294.976 258.056 281.771 238.156 276.464Z" fill="#5BC8AC"/>
<path d="M131.544 292.016C130.8 287.672 133.29 282.407 142.632 287.078C147.939 292.385 142.632 300.345 132.018 300.345C135.556 302.556 141.571 308.04 137.325 312.286C132.018 317.592 126.711 316.801 126.711 308.305C126.711 302.998 122.731 321.573 112.117 316.266C108.58 312.728 102.035 305.652 114.771 300.345C109.464 298.576 104.157 291.058 116.098 284.424C117.375 284.425 127.256 278.279 131.544 292.016Z" fill="#5BC8AC"/>
<path d="M190.394 329.532C181.903 341.208 163.86 341.473 155.899 340.146V334.839C170.935 328.206 198.885 317.857 190.394 329.532Z" fill="#F9DA7C" stroke="white"/>
<path d="M174.473 299.019L194.374 322.9L158.553 333.922L142.632 338.82C130.957 321.838 141.305 310.517 147.939 306.979L174.473 299.019Z" fill="#F9DA7C" stroke="white"/>
<path d="M258.639 60.0414C262.797 61.0796 267.01 58.55 268.048 54.3914C269.087 50.2328 266.557 46.02 262.398 44.9818C258.24 43.9437 254.027 46.4733 252.989 50.6318C251.951 54.7904 254.48 59.0033 258.639 60.0414Z" fill="#5BC8AC"/>
<path d="M296.936 70.5157C299.023 69.2859 300.696 67.4619 301.741 65.2768C302.785 63.0917 303.155 60.6447 302.803 58.2484C302.45 55.8521 301.391 53.6154 299.761 51.8239C298.131 50.0325 296.004 48.7677 293.651 48.191C293.147 48.0651 292.559 47.9445 291.894 47.8322C292.478 47.5392 293.011 47.2519 293.47 46.9777C295.538 45.731 297.19 43.9011 298.22 41.7178C299.25 39.5346 299.612 37.0956 299.259 34.7074C298.907 32.3193 297.857 30.0886 296.24 28.2958C294.624 26.503 292.513 25.2282 290.174 24.6316L290.13 24.6207C288.572 24.2327 286.952 24.1577 285.365 24.4C283.777 24.6423 282.253 25.1972 280.882 26.0324C280.42 26.3096 279.916 26.6451 279.385 27.0222C279.599 26.3782 279.771 25.8034 279.896 25.3026C280.681 22.1589 280.185 18.8322 278.517 16.0543C276.849 13.2764 274.145 11.2749 271.002 10.4901C267.858 9.7053 264.531 10.2015 261.753 11.8694C258.976 13.5374 256.974 16.2406 256.189 19.3843C256.064 19.8868 255.945 20.4748 255.832 21.1424C255.539 20.5594 255.251 20.0263 254.976 19.565C254.158 18.1832 253.074 16.9773 251.786 16.0173C250.499 15.0573 249.034 14.3622 247.476 13.9723L247.447 13.9649C245.104 13.3997 242.646 13.5381 240.381 14.3626C238.116 15.1871 236.145 16.6612 234.713 18.6004C233.282 20.5396 232.454 22.8579 232.334 25.2652C232.213 27.6724 232.805 30.0618 234.035 32.1343C234.312 32.5921 234.647 33.0963 235.027 33.6319C234.385 33.4177 233.81 33.2463 233.306 33.1203C230.162 32.3355 226.835 32.8317 224.057 34.4997C221.279 36.1676 219.278 38.8708 218.493 42.0145C217.708 45.1582 218.205 48.4849 219.873 51.2628C221.54 54.0406 224.244 56.0421 227.387 56.8269C227.888 56.952 228.476 57.0708 229.145 57.184C228.563 57.4757 228.03 57.7631 227.568 58.0403C225.494 59.2795 223.835 61.107 222.801 63.2908C221.768 65.4746 221.406 67.9163 221.763 70.3059C222.119 72.6955 223.178 74.9253 224.804 76.7122C226.43 78.4991 228.551 79.7625 230.896 80.3422L230.94 80.3531C232.488 80.7421 234.097 80.8223 235.676 80.5893C237.255 80.3562 238.772 79.8144 240.141 78.9948C240.599 78.7184 241.103 78.383 241.637 78.0046C241.425 78.6455 241.253 79.2203 241.127 79.7246C240.343 82.8683 240.839 86.195 242.507 88.9729C244.175 91.7508 246.878 93.7523 250.022 94.5371C253.165 95.3219 256.492 94.8257 259.27 93.1578C262.048 91.4898 264.049 88.7866 264.834 85.6429C264.959 85.1403 265.078 84.5524 265.191 83.8831C265.484 84.4678 265.771 85.0026 266.047 85.4622C266.871 86.8308 267.956 88.0237 269.24 88.9726C270.525 89.9216 271.984 90.6079 273.535 90.9923L273.578 91.0032C275.921 91.5985 278.388 91.4834 280.666 90.6724C282.943 89.8614 284.927 88.3913 286.367 86.4491C287.806 84.5069 288.635 82.1804 288.748 79.7657C288.861 77.351 288.253 74.9572 287.002 72.8889C286.725 72.4272 286.389 71.923 286.012 71.3917C286.656 71.6065 287.231 71.7779 287.732 71.9029C289.282 72.2886 290.893 72.3645 292.472 72.1265C294.052 71.8885 295.569 71.3411 296.936 70.5157ZM256.803 67.3961C253.859 66.6612 251.199 65.0698 249.16 62.8232C247.12 60.5766 245.793 57.7757 245.345 54.7747C244.898 51.7736 245.35 48.7073 246.645 45.9633C247.94 43.2194 250.02 40.9212 252.621 39.3592C255.223 37.7972 258.229 37.0417 261.259 37.1882C264.29 37.3347 267.209 38.3766 269.648 40.1822C272.086 41.9877 273.935 44.4758 274.959 47.3319C275.984 50.1879 276.138 53.2836 275.403 56.2275C274.413 60.1725 271.899 63.5639 268.412 65.6577C264.925 67.7514 260.75 68.3766 256.803 67.3961Z" fill="#F18D9E"/>
<path d="M350.369 102.279C352.96 102.926 355.585 101.35 356.232 98.7589C356.879 96.1678 355.303 93.5429 352.712 92.8961C350.121 92.2492 347.496 93.8253 346.849 96.4164C346.202 99.0075 347.778 101.632 350.369 102.279Z" fill="#F18D9E"/>
<path d="M374.231 176.936C375.531 176.17 376.573 175.033 377.224 173.672C377.876 172.31 378.106 170.786 377.886 169.292C377.666 167.799 377.007 166.406 375.991 165.29C374.975 164.173 373.65 163.385 372.184 163.026C371.87 162.948 371.504 162.873 371.089 162.803C371.454 162.62 371.786 162.441 372.072 162.27C373.36 161.493 374.389 160.353 375.031 158.993C375.673 157.633 375.898 156.113 375.679 154.625C375.459 153.137 374.805 151.747 373.797 150.63C372.79 149.513 371.475 148.719 370.018 148.347L369.99 148.34C369.02 148.099 368.01 148.052 367.021 148.203C366.032 148.354 365.083 148.699 364.228 149.22C363.941 149.393 363.626 149.602 363.295 149.837C363.429 149.435 363.536 149.077 363.614 148.765C364.103 146.806 363.794 144.734 362.754 143.003C361.715 141.272 360.031 140.025 358.072 139.536C356.114 139.047 354.041 139.356 352.31 140.395C350.579 141.435 349.332 143.119 348.843 145.078C348.765 145.391 348.691 145.757 348.621 146.173C348.438 145.81 348.259 145.478 348.087 145.19C347.577 144.329 346.902 143.578 346.1 142.98C345.298 142.382 344.385 141.949 343.414 141.706L343.396 141.701C341.936 141.349 340.405 141.435 338.994 141.949C337.582 142.463 336.354 143.381 335.462 144.589C334.57 145.798 334.055 147.242 333.98 148.742C333.904 150.242 334.273 151.73 335.04 153.022C335.212 153.307 335.421 153.621 335.658 153.955C335.258 153.821 334.899 153.715 334.585 153.636C332.626 153.147 330.554 153.456 328.823 154.496C327.092 155.535 325.845 157.219 325.356 159.178C324.867 161.136 325.176 163.209 326.215 164.94C327.255 166.671 328.939 167.918 330.898 168.407C331.21 168.485 331.576 168.559 331.993 168.629C331.63 168.811 331.298 168.99 331.01 169.163C329.718 169.935 328.684 171.074 328.04 172.434C327.396 173.795 327.171 175.316 327.393 176.805C327.615 178.294 328.275 179.683 329.288 180.797C330.301 181.91 331.623 182.697 333.084 183.058L333.111 183.065C334.076 183.307 335.078 183.357 336.062 183.212C337.046 183.067 337.991 182.729 338.844 182.219C339.129 182.047 339.444 181.838 339.776 181.602C339.644 182.001 339.537 182.359 339.459 182.674C338.97 184.632 339.279 186.705 340.318 188.436C341.357 190.167 343.041 191.414 345 191.903C346.959 192.392 349.032 192.083 350.762 191.043C352.493 190.004 353.74 188.32 354.229 186.361C354.307 186.048 354.382 185.682 354.452 185.265C354.635 185.629 354.813 185.962 354.985 186.248C355.498 187.101 356.174 187.844 356.975 188.436C357.775 189.027 358.684 189.455 359.65 189.694L359.678 189.701C361.137 190.072 362.675 190 364.093 189.495C365.512 188.989 366.749 188.073 367.646 186.863C368.542 185.653 369.059 184.204 369.129 182.699C369.2 181.195 368.821 179.703 368.041 178.414C367.869 178.127 367.66 177.813 367.425 177.482C367.826 177.615 368.184 177.722 368.496 177.8C369.462 178.04 370.466 178.088 371.45 177.939C372.434 177.791 373.379 177.45 374.231 176.936ZM349.225 174.992C347.391 174.534 345.734 173.543 344.463 172.143C343.193 170.743 342.365 168.998 342.087 167.128C341.808 165.258 342.09 163.348 342.896 161.638C343.703 159.928 344.999 158.496 346.62 157.523C348.241 156.55 350.114 156.079 352.002 156.171C353.89 156.262 355.709 156.911 357.229 158.036C358.748 159.161 359.9 160.711 360.538 162.491C361.176 164.27 361.272 166.199 360.815 168.033C360.198 170.491 358.631 172.604 356.459 173.909C354.286 175.213 351.685 175.603 349.225 174.992Z" fill="#5BC8AC"/>
<g clip-path="url(#clip0_891_69)">
<path d="M36.0772 173.598C33.486 174.245 30.861 172.668 30.2141 170.077C29.5672 167.486 31.1434 164.861 33.7346 164.214C36.3259 163.567 38.9509 165.143 39.5978 167.735C40.2446 170.326 38.6685 172.951 36.0772 173.598Z" fill="#5BC8AC"/>
<path d="M12.214 180.124C10.9138 179.358 9.87164 178.221 9.22057 176.86C8.5695 175.498 8.3391 173.974 8.55882 172.481C8.77855 170.987 9.43841 169.594 10.4541 168.477C11.4698 167.361 12.7952 166.573 14.261 166.214C14.5753 166.135 14.9413 166.06 15.3562 165.99C14.9919 165.808 14.6597 165.629 14.3737 165.458C13.0856 164.681 12.0559 163.541 11.4141 162.18C10.7723 160.82 10.547 159.3 10.7665 157.812C10.9861 156.324 11.6406 154.934 12.6479 153.817C13.6552 152.7 14.9703 151.906 16.4278 151.534L16.4551 151.527C17.426 151.285 18.4353 151.239 19.4244 151.39C20.4136 151.541 21.363 151.886 22.2176 152.407C22.5053 152.579 22.8194 152.789 23.1505 153.023C23.0167 152.622 22.9099 152.264 22.832 151.952C22.343 149.993 22.6521 147.92 23.6914 146.189C24.7307 144.459 26.4151 143.211 28.3739 142.722C30.3327 142.233 32.4056 142.542 34.1365 143.582C35.8674 144.621 37.1145 146.305 37.6035 148.264C37.6817 148.577 37.7558 148.944 37.826 149.36C38.0089 148.997 38.1879 148.664 38.3596 148.377C38.8693 147.516 39.5448 146.765 40.3469 146.166C41.149 145.568 42.0619 145.135 43.0325 144.892L43.0511 144.887C44.511 144.535 46.0424 144.622 47.4537 145.135C48.8649 145.649 50.0933 146.568 50.9852 147.776C51.8771 148.984 52.3928 150.429 52.468 151.929C52.5431 153.429 52.1743 154.917 51.4076 156.209C51.2354 156.494 51.0263 156.808 50.7898 157.142C51.1899 157.008 51.5481 156.902 51.8623 156.823C53.8212 156.334 55.894 156.643 57.6249 157.683C59.3558 158.722 60.6029 160.406 61.092 162.365C61.581 164.324 61.2718 166.397 60.2325 168.128C59.1932 169.859 57.5089 171.106 55.55 171.595C55.238 171.673 54.8716 171.747 54.4546 171.817C54.8175 171.999 55.1497 172.178 55.4374 172.351C56.7298 173.123 57.7636 174.262 58.4076 175.622C59.0516 176.983 59.2768 178.505 59.0546 179.994C58.8324 181.482 58.1728 182.872 57.1596 183.985C56.1463 185.099 54.8251 185.886 53.3636 186.247L53.3364 186.254C52.372 186.496 51.3692 186.546 50.3855 186.401C49.4018 186.256 48.4563 185.918 47.603 185.408C47.3178 185.235 47.0036 185.026 46.6712 184.791C46.8034 185.19 46.9102 185.548 46.9886 185.862C47.4776 187.821 47.1685 189.894 46.1292 191.625C45.0899 193.356 43.4055 194.603 41.4467 195.092C39.4878 195.581 37.415 195.272 35.6841 194.233C33.9532 193.193 32.7061 191.509 32.2171 189.55C32.1389 189.237 32.0648 188.871 31.9943 188.453C31.8117 188.818 31.6329 189.151 31.461 189.437C30.948 190.29 30.2719 191.033 29.4714 191.625C28.6709 192.216 27.7617 192.644 26.7957 192.883L26.7684 192.89C25.3086 193.261 23.7714 193.189 22.3524 192.684C20.9334 192.179 19.6969 191.263 18.8001 190.052C17.9033 188.842 17.3868 187.393 17.3163 185.888C17.2458 184.383 17.6245 182.892 18.4043 181.603C18.577 181.315 18.7861 181.001 19.021 180.67C18.6197 180.804 18.2616 180.911 17.9495 180.989C16.9836 181.229 15.9798 181.276 14.9956 181.128C14.0114 180.98 13.0662 180.639 12.214 180.124ZM37.2213 178.18C39.0556 177.723 40.713 176.731 41.9837 175.331C43.2545 173.931 44.0816 172.186 44.3605 170.316C44.6394 168.446 44.3575 166.535 43.5505 164.826C42.7435 163.116 41.4477 161.684 39.8268 160.711C38.2059 159.737 36.3329 159.267 34.4444 159.358C32.556 159.449 30.7371 160.098 29.2176 161.223C27.6982 162.348 26.5465 163.899 25.9081 165.678C25.2698 167.458 25.1735 169.387 25.6314 171.221C26.2482 173.679 27.8147 175.793 29.9875 177.097C32.1602 178.402 34.7617 178.791 37.2213 178.18Z" fill="#F18D9E"/>
</g>
<path d="M124.413 60.0423C120.254 61.0805 116.041 58.5509 115.003 54.3922C113.965 50.2336 116.495 46.0207 120.653 44.9825C124.812 43.9443 129.025 46.4739 130.063 50.6326C131.101 54.7912 128.572 59.0041 124.413 60.0423Z" fill="#F18D9E"/>
<path d="M86.1148 70.5168C84.0281 69.2869 82.3555 67.4629 81.3106 65.2778C80.2657 63.0926 79.8959 60.6456 80.2486 58.2493C80.6012 55.853 81.6602 53.6162 83.2903 51.8247C84.9204 50.0333 87.0476 48.7684 89.4001 48.1918C89.9044 48.0659 90.4919 47.9453 91.1577 47.833C90.573 47.5399 90.0399 47.2526 89.5808 46.9784C87.5136 45.7317 85.8611 43.9017 84.831 41.7185C83.801 39.5352 83.4394 37.0962 83.7917 34.708C84.144 32.3198 85.1946 30.0891 86.8112 28.2962C88.4278 26.5034 90.5383 25.2286 92.8775 24.632L92.9213 24.621C94.4796 24.2331 96.0994 24.1581 97.6868 24.4004C99.2743 24.6427 100.798 25.1976 102.17 26.0328C102.631 26.31 103.135 26.6455 103.667 27.0226C103.452 26.3786 103.281 25.8038 103.156 25.3029C102.371 22.1592 102.867 18.8325 104.535 16.0545C106.203 13.2766 108.906 11.2751 112.05 10.4903C115.194 9.70545 118.52 10.2016 121.298 11.8696C124.076 13.5376 126.078 16.2408 126.863 19.3846C126.988 19.8871 127.107 20.4751 127.22 21.1427C127.513 20.5597 127.8 20.0266 128.076 19.5653C128.894 18.1835 129.978 16.9776 131.265 16.0176C132.553 15.0576 134.018 14.3625 135.576 13.9725L135.605 13.9651C137.948 13.3999 140.406 13.5383 142.671 14.3628C144.936 15.1874 146.907 16.6615 148.339 18.6007C149.77 20.54 150.598 22.8583 150.719 25.2655C150.839 27.6728 150.247 30.0622 149.017 32.1348C148.74 32.5926 148.405 33.0968 148.025 33.6325C148.667 33.4182 149.242 33.2468 149.747 33.1209C152.89 32.336 156.217 32.8322 158.995 34.5002C161.773 36.1682 163.774 38.8714 164.559 42.0151C165.344 45.1589 164.848 48.4856 163.18 51.2635C161.512 54.0415 158.809 56.043 155.665 56.8278C155.164 56.9528 154.576 57.0717 153.907 57.1849C154.489 57.4766 155.022 57.7639 155.484 58.0412C157.558 59.2804 159.218 61.1079 160.251 63.2918C161.285 65.4756 161.646 67.9173 161.29 70.307C160.933 72.6966 159.874 74.9264 158.248 76.7134C156.622 78.5003 154.502 79.7638 152.156 80.3434L152.112 80.3543C150.564 80.7433 148.955 80.8236 147.376 80.5905C145.798 80.3574 144.28 79.8156 142.911 78.996C142.453 78.7196 141.949 78.3842 141.415 78.0058C141.627 78.6467 141.799 79.2215 141.925 79.7259C142.71 82.8696 142.213 86.1963 140.545 88.9743C138.877 91.7522 136.174 93.7537 133.03 94.5385C129.887 95.3234 126.56 94.8272 123.782 93.1592C121.004 91.4912 119.003 88.788 118.218 85.6442C118.092 85.1417 117.973 84.5537 117.86 83.8844C117.567 84.4691 117.28 85.0039 117.004 85.4635C116.181 86.8321 115.096 88.0251 113.811 88.974C112.527 89.9229 111.067 90.6093 109.517 90.9937L109.473 91.0046C107.13 91.5999 104.663 91.4848 102.386 90.6738C100.109 89.8628 98.1241 88.3926 96.6848 86.4504C95.2455 84.5082 94.4166 82.1817 94.3035 79.7669C94.1903 77.3521 94.7982 74.9583 96.0496 72.8901C96.3268 72.4283 96.6623 71.9241 97.0394 71.3928C96.3954 71.6076 95.8206 71.779 95.3198 71.904C93.7696 72.2897 92.1586 72.3657 90.579 72.1276C88.9995 71.8896 87.4824 71.3422 86.1148 70.5168ZM126.249 67.3971C129.193 66.6622 131.853 65.0708 133.892 62.8242C135.932 60.5775 137.259 57.7766 137.707 54.7755C138.154 51.7744 137.702 48.708 136.407 45.964C135.112 43.2201 133.032 40.9218 130.431 39.3598C127.829 37.7978 124.823 37.0423 121.793 37.1888C118.762 37.3353 115.843 38.3772 113.404 40.1828C110.965 41.9884 109.117 44.4765 108.093 47.3326C107.068 50.1887 106.914 53.2844 107.648 56.2284C108.638 60.1734 111.152 63.5649 114.639 65.6587C118.127 67.7525 122.302 68.3777 126.249 67.3971Z" fill="#5BC8AC"/>
<g filter="url(#filter1_d_891_69)">
<path fill-rule="evenodd" clip-rule="evenodd" d="M30.1949 59.302C29.4105 59.0321 28.5705 58.9413 27.7425 59.0369C26.9146 59.1326 26.1218 59.412 25.4279 59.8528C24.734 60.2935 24.1585 60.8832 23.7477 61.5744C23.3368 62.2656 23.1021 63.039 23.0624 63.8324C22.7668 67.5314 22.5468 73.2795 23.2412 79.2274C23.9286 85.1457 25.5442 91.4733 29.0778 96.1608C32.7385 101.215 37.9667 103.461 42.8271 104.338C47.6531 105.205 52.2179 104.75 54.8166 104.325C55.5354 104.216 56.2315 104 56.879 103.683C52.9982 93.7909 54.8166 97.9565 52.5707 95.665C52.1513 95.2973 51.9025 94.786 51.879 94.2437C51.8555 93.7013 52.0591 93.1722 52.4452 92.7729C52.8313 92.3735 53.3681 92.1366 53.9377 92.1142C54.5072 92.0918 55.0627 92.2857 55.4821 92.6534C66.0416 101.917 55.8237 90.3374 60.1032 100.302C61.3784 98.0594 62.9734 94.6812 63.6711 90.7891C64.4995 86.1736 64.0836 80.7561 60.3129 75.7019C56.8308 71.0209 51.0561 67.4299 45.3879 64.7817C39.7129 62.1302 33.9416 60.3298 30.1949 59.302Z" fill="white"/>
<path d="M324.602 117.966L322.768 113.226C320.648 107.705 318.953 103.015 317.684 99.1556C316.415 95.2963 315.526 91.9661 315.018 89.1648C314.51 86.3635 314.361 83.9618 314.572 81.9595C314.783 79.9573 315.299 78.069 316.119 76.2948C317.798 72.6739 320.368 70.2786 323.83 69.1089C327.291 67.9392 330.765 68.2922 334.251 70.1679C336.179 71.2055 337.818 72.6169 339.168 74.4022C340.519 76.1875 341.467 78.1898 342.013 80.409C343.989 79.5466 346.044 79.1606 348.18 79.251C350.316 79.3414 352.348 79.9054 354.276 80.943C357.762 82.8187 360.111 85.5984 361.322 89.2823C362.534 92.9661 362.3 96.6185 360.621 100.239C359.8 102.011 358.709 103.59 357.349 104.976C355.99 106.362 354.117 107.677 351.732 108.919C349.347 110.162 346.342 111.397 342.717 112.624C339.091 113.852 334.593 115.21 329.221 116.698L324.602 117.966Z" fill="white"/>
<mask id="path-32-outside-1_891_69" maskUnits="userSpaceOnUse" x="225.604" y="76.7494" width="117" height="73" fill="black">
<rect fill="white" x="225.604" y="76.7494" width="117" height="73"/>
<path d="M259.865 107.37C260.14 104.803 261.951 103.52 265.296 103.52C267.084 103.52 268.413 103.657 269.284 103.932C270.154 104.207 270.75 104.689 271.071 105.376C271.438 106.063 271.644 106.682 271.69 107.232C271.781 107.736 271.827 108.515 271.827 109.57V133.631C271.827 134.685 271.781 135.487 271.69 136.037C271.644 136.541 271.461 137.137 271.14 137.824C270.498 139.016 268.917 139.612 266.396 139.612C263.921 139.612 262.248 139.314 261.378 138.718C260.553 138.077 260.072 137.16 259.934 135.968C258.238 138.397 255.397 139.612 251.409 139.612C247.468 139.612 243.801 137.802 240.41 134.181C237.018 130.56 235.323 126.367 235.323 121.6C235.323 116.788 237.018 112.594 240.41 109.02C243.847 105.399 247.605 103.589 251.684 103.589C253.243 103.589 254.663 103.864 255.947 104.414C257.23 104.964 258.124 105.491 258.628 105.995C259.132 106.453 259.544 106.911 259.865 107.37ZM247.353 121.669C247.353 123.181 247.949 124.556 249.141 125.794C250.332 126.985 251.776 127.581 253.472 127.581C255.168 127.581 256.565 126.962 257.665 125.725C258.811 124.488 259.384 123.136 259.384 121.669C259.384 120.157 258.834 118.759 257.734 117.475C256.68 116.192 255.236 115.551 253.403 115.551C251.616 115.551 250.149 116.192 249.003 117.475C247.903 118.759 247.353 120.157 247.353 121.669ZM277.307 92.5204C277.307 91.4662 277.329 90.6871 277.375 90.183C277.467 89.633 277.673 89.0143 277.994 88.3268C278.636 87.0894 280.423 86.4706 283.356 86.4706C286.152 86.4706 287.894 87.0894 288.581 88.3268C288.948 89.0143 289.154 89.633 289.2 90.183C289.291 90.7329 289.337 91.535 289.337 92.5891V124.419C289.337 126.069 289.475 127.123 289.75 127.581C290.025 127.994 290.621 128.2 291.537 128.2C292.5 128.2 293.141 128.246 293.462 128.337C293.783 128.383 294.172 128.567 294.631 128.887C295.547 129.483 296.006 131.11 296.006 133.768C296.006 136.656 295.547 138.42 294.631 139.062C293.439 139.887 290.598 140.024 286.106 139.474C282.577 139.016 280.286 137.847 279.231 135.968C277.948 133.723 277.307 130.148 277.307 125.244V92.5204ZM321.108 121.6L330.252 129.162C331.398 130.125 332.108 130.858 332.383 131.362C332.704 131.866 332.864 132.348 332.864 132.806C332.864 133.906 332.154 135.395 330.733 137.275C329.175 139.199 327.8 140.162 326.608 140.162C325.6 140.162 324.202 139.497 322.415 138.168L321.727 137.687C320.673 136.816 319.046 135.304 316.846 133.15C314.646 130.95 312.973 129.392 311.828 128.475V133.768C311.828 134.823 311.782 135.625 311.69 136.175C311.644 136.679 311.438 137.275 311.071 137.962C310.476 139.154 308.711 139.749 305.778 139.749C302.891 139.749 301.126 139.131 300.484 137.893C300.164 137.206 299.957 136.61 299.866 136.106C299.82 135.556 299.797 134.754 299.797 133.7V92.5204C299.797 91.4662 299.82 90.6871 299.866 90.183C299.957 89.633 300.164 89.0143 300.484 88.3268C301.126 87.0894 302.913 86.4706 305.847 86.4706C308.047 86.4706 309.605 86.8602 310.521 87.6393C311.301 88.281 311.713 89.2893 311.759 90.6642C311.805 91.0767 311.828 91.7183 311.828 92.5891V114.382C312.653 113.694 313.89 112.526 315.54 110.876C317.236 109.226 318.496 108.057 319.321 107.37L320.146 106.82C321.75 105.582 323.125 104.964 324.271 104.964C325.417 104.964 326.723 105.903 328.189 107.782C329.702 109.615 330.458 111.059 330.458 112.113C330.458 113.167 329.61 114.405 327.914 115.826L321.108 121.6Z"/>
</mask>
<path d="M259.865 107.37C260.14 104.803 261.951 103.52 265.296 103.52C267.084 103.52 268.413 103.657 269.284 103.932C270.154 104.207 270.75 104.689 271.071 105.376C271.438 106.063 271.644 106.682 271.69 107.232C271.781 107.736 271.827 108.515 271.827 109.57V133.631C271.827 134.685 271.781 135.487 271.69 136.037C271.644 136.541 271.461 137.137 271.14 137.824C270.498 139.016 268.917 139.612 266.396 139.612C263.921 139.612 262.248 139.314 261.378 138.718C260.553 138.077 260.072 137.16 259.934 135.968C258.238 138.397 255.397 139.612 251.409 139.612C247.468 139.612 243.801 137.802 240.41 134.181C237.018 130.56 235.323 126.367 235.323 121.6C235.323 116.788 237.018 112.594 240.41 109.02C243.847 105.399 247.605 103.589 251.684 103.589C253.243 103.589 254.663 103.864 255.947 104.414C257.23 104.964 258.124 105.491 258.628 105.995C259.132 106.453 259.544 106.911 259.865 107.37ZM247.353 121.669C247.353 123.181 247.949 124.556 249.141 125.794C250.332 126.985 251.776 127.581 253.472 127.581C255.168 127.581 256.565 126.962 257.665 125.725C258.811 124.488 259.384 123.136 259.384 121.669C259.384 120.157 258.834 118.759 257.734 117.475C256.68 116.192 255.236 115.551 253.403 115.551C251.616 115.551 250.149 116.192 249.003 117.475C247.903 118.759 247.353 120.157 247.353 121.669ZM277.307 92.5204C277.307 91.4662 277.329 90.6871 277.375 90.183C277.467 89.633 277.673 89.0143 277.994 88.3268C278.636 87.0894 280.423 86.4706 283.356 86.4706C286.152 86.4706 287.894 87.0894 288.581 88.3268C288.948 89.0143 289.154 89.633 289.2 90.183C289.291 90.7329 289.337 91.535 289.337 92.5891V124.419C289.337 126.069 289.475 127.123 289.75 127.581C290.025 127.994 290.621 128.2 291.537 128.2C292.5 128.2 293.141 128.246 293.462 128.337C293.783 128.383 294.172 128.567 294.631 128.887C295.547 129.483 296.006 131.11 296.006 133.768C296.006 136.656 295.547 138.42 294.631 139.062C293.439 139.887 290.598 140.024 286.106 139.474C282.577 139.016 280.286 137.847 279.231 135.968C277.948 133.723 277.307 130.148 277.307 125.244V92.5204ZM321.108 121.6L330.252 129.162C331.398 130.125 332.108 130.858 332.383 131.362C332.704 131.866 332.864 132.348 332.864 132.806C332.864 133.906 332.154 135.395 330.733 137.275C329.175 139.199 327.8 140.162 326.608 140.162C325.6 140.162 324.202 139.497 322.415 138.168L321.727 137.687C320.673 136.816 319.046 135.304 316.846 133.15C314.646 130.95 312.973 129.392 311.828 128.475V133.768C311.828 134.823 311.782 135.625 311.69 136.175C311.644 136.679 311.438 137.275 311.071 137.962C310.476 139.154 308.711 139.749 305.778 139.749C302.891 139.749 301.126 139.131 300.484 137.893C300.164 137.206 299.957 136.61 299.866 136.106C299.82 135.556 299.797 134.754 299.797 133.7V92.5204C299.797 91.4662 299.82 90.6871 299.866 90.183C299.957 89.633 300.164 89.0143 300.484 88.3268C301.126 87.0894 302.913 86.4706 305.847 86.4706C308.047 86.4706 309.605 86.8602 310.521 87.6393C311.301 88.281 311.713 89.2893 311.759 90.6642C311.805 91.0767 311.828 91.7183 311.828 92.5891V114.382C312.653 113.694 313.89 112.526 315.54 110.876C317.236 109.226 318.496 108.057 319.321 107.37L320.146 106.82C321.75 105.582 323.125 104.964 324.271 104.964C325.417 104.964 326.723 105.903 328.189 107.782C329.702 109.615 330.458 111.059 330.458 112.113C330.458 113.167 329.61 114.405 327.914 115.826L321.108 121.6Z" fill="#F18D9E"/>
<path d="M259.865 107.37L252.356 112.626L266.375 132.653L268.979 108.346L259.865 107.37ZM269.284 103.932L272.044 95.1916L272.044 95.1915L269.284 103.932ZM271.071 105.376L262.765 109.252L262.868 109.474L262.983 109.69L271.071 105.376ZM271.69 107.232L262.555 107.993L262.592 108.435L262.671 108.872L271.69 107.232ZM271.69 136.037L262.648 134.53L262.592 134.867L262.561 135.207L271.69 136.037ZM271.14 137.824L279.21 142.17L279.335 141.939L279.446 141.701L271.14 137.824ZM261.378 138.718L255.75 145.954L255.971 146.125L256.202 146.283L261.378 138.718ZM259.934 135.968L269.04 134.918L266.267 110.884L252.418 130.721L259.934 135.968ZM240.41 134.181L233.72 140.447L233.72 140.447L240.41 134.181ZM240.41 109.02L233.762 102.709L233.76 102.711L240.41 109.02ZM255.947 104.414L252.336 112.839L252.336 112.839L255.947 104.414ZM258.628 105.995L252.146 112.476L252.301 112.63L252.462 112.777L258.628 105.995ZM249.141 125.794L242.538 132.152L242.598 132.214L242.659 132.275L249.141 125.794ZM257.665 125.725L250.94 119.497L250.876 119.566L250.814 119.635L257.665 125.725ZM257.734 117.475L250.651 123.294L250.712 123.368L250.775 123.441L257.734 117.475ZM249.003 117.475L242.166 111.371L242.104 111.44L242.044 111.51L249.003 117.475ZM268.979 108.346C268.943 108.683 268.82 109.312 268.419 110.051C268.001 110.822 267.407 111.48 266.73 111.96C265.481 112.846 264.614 112.686 265.296 112.686V94.3536C262.633 94.3536 259.188 94.8353 256.128 97.0043C252.721 99.4198 251.118 102.967 250.751 106.393L268.979 108.346ZM265.296 112.686C265.973 112.686 266.423 112.713 266.69 112.741C266.819 112.754 266.869 112.764 266.855 112.761C266.846 112.759 266.725 112.737 266.523 112.673L272.044 95.1915C269.787 94.479 267.304 94.3536 265.296 94.3536V112.686ZM266.523 112.673C266.072 112.531 265.37 112.233 264.624 111.63C263.847 111.003 263.2 110.186 262.765 109.252L279.377 101.5C277.752 98.0171 274.822 96.069 272.044 95.1916L266.523 112.673ZM262.983 109.69C262.97 109.664 262.892 109.516 262.805 109.254C262.718 108.993 262.603 108.563 262.555 107.993L280.824 106.471C280.642 104.278 279.888 102.43 279.159 101.062L262.983 109.69ZM262.671 108.872C262.646 108.73 262.637 108.646 262.636 108.638C262.635 108.627 262.638 108.655 262.642 108.733C262.652 108.894 262.661 109.164 262.661 109.57H280.993C280.993 108.414 280.955 106.949 280.708 105.592L262.671 108.872ZM262.661 109.57V133.631H280.993V109.57H262.661ZM262.661 133.631C262.661 134.034 262.652 134.317 262.642 134.5C262.63 134.702 262.622 134.688 262.648 134.53L280.731 137.544C280.949 136.235 280.993 134.829 280.993 133.631H262.661ZM262.561 135.207C262.607 134.701 262.703 134.342 262.757 134.166C262.813 133.985 262.852 133.908 262.833 133.948L279.446 141.701C280.014 140.484 280.641 138.814 280.818 136.867L262.561 135.207ZM263.069 133.479C264.039 131.677 265.493 130.869 266.241 130.588C266.86 130.354 267.043 130.446 266.396 130.446V148.778C269.391 148.778 275.953 148.219 279.21 142.17L263.069 133.479ZM266.396 130.446C265.957 130.446 265.611 130.432 265.347 130.413C265.08 130.394 264.936 130.372 264.892 130.364C264.842 130.355 264.97 130.373 265.22 130.461C265.46 130.546 265.956 130.744 266.554 131.153L256.202 146.283C258.168 147.628 260.253 148.159 261.678 148.413C263.225 148.688 264.84 148.778 266.396 148.778V130.446ZM267.005 131.483C267.615 131.957 268.141 132.578 268.514 133.289C268.874 133.976 268.999 134.567 269.04 134.918L250.828 137.019C251.202 140.262 252.691 143.574 255.75 145.954L267.005 131.483ZM252.418 130.721C252.484 130.627 252.583 130.515 252.708 130.415C252.831 130.317 252.919 130.276 252.929 130.272C252.932 130.271 252.829 130.315 252.58 130.36C252.328 130.404 251.946 130.446 251.409 130.446V148.778C257.257 148.778 263.479 146.903 267.45 141.215L252.418 130.721ZM251.409 130.446C250.626 130.446 249.236 130.195 247.1 127.915L233.72 140.447C238.367 145.408 244.31 148.778 251.409 148.778V130.446ZM247.1 127.915C245.228 125.916 244.489 123.936 244.489 121.6H226.156C226.156 128.797 228.809 135.205 233.72 140.447L247.1 127.915ZM244.489 121.6C244.489 119.197 245.241 117.245 247.06 115.328L233.76 102.711C228.796 107.943 226.156 114.379 226.156 121.6H244.489ZM247.058 115.331C249.18 113.095 250.665 112.755 251.684 112.755V94.4223C244.546 94.4223 238.515 97.7027 233.762 102.709L247.058 115.331ZM251.684 112.755C252.146 112.755 252.319 112.831 252.336 112.839L259.557 95.9885C257.008 94.8957 254.34 94.4223 251.684 94.4223V112.755ZM252.336 112.839C252.526 112.92 252.669 112.987 252.771 113.037C252.822 113.063 252.86 113.082 252.886 113.096C252.912 113.11 252.924 113.117 252.923 113.117C252.922 113.116 252.906 113.107 252.876 113.087C252.846 113.067 252.798 113.035 252.735 112.989C252.618 112.902 252.405 112.735 252.146 112.476L265.109 99.5132C263.321 97.7252 261.085 96.6431 259.557 95.9884L252.336 112.839ZM252.462 112.777C252.511 112.822 252.521 112.835 252.502 112.814C252.484 112.794 252.43 112.732 252.356 112.626L267.375 102.113C266.59 100.993 265.696 100.033 264.794 99.2123L252.462 112.777ZM238.187 121.669C238.187 125.88 239.944 129.458 242.538 132.152L255.743 119.436C255.798 119.492 256.014 119.736 256.211 120.19C256.416 120.664 256.52 121.183 256.52 121.669H238.187ZM242.659 132.275C245.582 135.198 249.362 136.747 253.472 136.747V118.415C253.72 118.415 254.135 118.464 254.614 118.661C255.094 118.86 255.432 119.122 255.622 119.312L242.659 132.275ZM253.472 136.747C257.713 136.747 261.629 135.063 264.516 131.815L250.814 119.635C251.062 119.357 251.485 119 252.082 118.735C252.673 118.474 253.182 118.415 253.472 118.415V136.747ZM264.391 131.953C266.854 129.293 268.55 125.791 268.55 121.669H250.218C250.218 121.172 250.322 120.661 250.515 120.207C250.698 119.773 250.897 119.543 250.94 119.497L264.391 131.953ZM268.55 121.669C268.55 117.708 267.039 114.246 264.694 111.51L250.775 123.441C250.742 123.402 250.585 123.206 250.442 122.842C250.293 122.465 250.218 122.053 250.218 121.669H268.55ZM264.817 111.657C261.827 108.017 257.656 106.384 253.403 106.384V124.717C253.241 124.717 252.761 124.685 252.138 124.408C251.489 124.12 250.982 123.697 250.651 123.294L264.817 111.657ZM253.403 106.384C249.12 106.384 245.126 108.055 242.166 111.371L255.841 123.58C255.603 123.847 255.199 124.184 254.637 124.429C254.083 124.672 253.626 124.717 253.403 124.717V106.384ZM242.044 111.51C239.699 114.246 238.187 117.708 238.187 121.669H256.52C256.52 122.053 256.444 122.465 256.296 122.842C256.153 123.206 255.996 123.402 255.963 123.441L242.044 111.51ZM277.375 90.183L268.334 88.676L268.278 89.0129L268.247 89.3531L277.375 90.183ZM277.994 88.3268L269.857 84.1074L269.769 84.2772L269.688 84.4505L277.994 88.3268ZM288.581 88.3268L296.669 84.0133L296.632 83.944L296.594 83.8753L288.581 88.3268ZM289.2 90.183L280.065 90.9442L280.096 91.3189L280.158 91.6899L289.2 90.183ZM289.75 127.581L281.89 132.297L282.002 132.484L282.123 132.666L289.75 127.581ZM293.462 128.337L290.944 137.151L291.546 137.323L292.166 137.412L293.462 128.337ZM294.631 128.887L289.374 136.397L289.503 136.487L289.635 136.573L294.631 128.887ZM294.631 139.062L299.848 146.598L299.868 146.585L299.887 146.571L294.631 139.062ZM286.106 139.474L284.926 148.564L284.959 148.569L284.992 148.573L286.106 139.474ZM279.231 135.968L287.226 131.484L287.208 131.452L287.19 131.421L279.231 135.968ZM286.473 92.5204C286.473 92.0542 286.478 91.6898 286.486 91.4149C286.495 91.1244 286.504 91.0076 286.504 91.0128L268.247 89.3531C268.161 90.2931 268.14 91.4182 268.14 92.5204H286.473ZM286.417 91.6899C286.372 91.9584 286.318 92.1344 286.295 92.2051C286.271 92.2773 286.265 92.2786 286.3 92.2031L269.688 84.4505C269.133 85.6398 268.601 87.0722 268.334 88.676L286.417 91.6899ZM286.131 92.5462C285.034 94.6631 283.333 95.4172 282.814 95.5966C282.364 95.7524 282.412 95.6369 283.356 95.6369V77.3044C281.367 77.3044 279.055 77.4983 276.817 78.2727C274.512 79.0709 271.596 80.7531 269.857 84.1074L286.131 92.5462ZM283.356 95.6369C284.189 95.6369 284.174 95.7437 283.691 95.572C283.115 95.3676 281.604 94.6435 280.568 92.7783L296.594 83.8753C294.87 80.7727 292.145 79.1205 289.828 78.2973C287.603 77.5069 285.319 77.3044 283.356 77.3044V95.6369ZM280.493 92.6403C280.48 92.6148 280.402 92.4667 280.315 92.2051C280.228 91.9434 280.113 91.514 280.065 90.9442L298.334 89.4218C298.152 87.2285 297.398 85.3807 296.669 84.0133L280.493 92.6403ZM280.158 91.6899C280.132 91.5318 280.14 91.5185 280.152 91.7199C280.162 91.9029 280.171 92.1862 280.171 92.5891H298.503C298.503 91.3909 298.459 89.9849 298.241 88.676L280.158 91.6899ZM280.171 92.5891V124.419H298.503V92.5891H280.171ZM280.171 124.419C280.171 125.45 280.211 126.56 280.351 127.632C280.453 128.417 280.736 130.374 281.89 132.297L297.61 122.865C297.881 123.317 298.06 123.715 298.175 124.005C298.291 124.299 298.366 124.544 298.413 124.714C298.502 125.041 298.528 125.246 298.53 125.261C298.532 125.28 298.503 125.038 298.503 124.419H280.171ZM282.123 132.666C285.13 137.176 290.062 137.366 291.537 137.366V119.034C291.678 119.034 292.404 119.038 293.401 119.383C294.476 119.755 296.133 120.631 297.376 122.497L282.123 132.666ZM291.537 137.366C291.707 137.366 291.839 137.368 291.937 137.371C291.985 137.372 292.022 137.374 292.049 137.375C292.075 137.376 292.087 137.377 292.087 137.377C292.087 137.377 292.082 137.377 292.074 137.376C292.066 137.375 292.053 137.374 292.035 137.373C292.002 137.369 291.944 137.363 291.865 137.351C291.787 137.34 291.673 137.322 291.529 137.293C291.388 137.265 291.187 137.221 290.944 137.151L295.98 119.524C294.231 119.024 292.312 119.034 291.537 119.034V137.366ZM292.166 137.412C291.183 137.271 290.469 136.98 290.092 136.803C289.698 136.618 289.454 136.452 289.374 136.397L299.887 121.378C298.99 120.75 297.188 119.61 294.758 119.263L292.166 137.412ZM289.635 136.573C287.443 135.148 286.897 133.247 286.839 133.04C286.749 132.72 286.839 132.858 286.839 133.768H305.172C305.172 132.02 305.033 130.016 304.485 128.069C303.968 126.235 302.735 123.223 299.626 121.202L289.635 136.573ZM286.839 133.768C286.839 134.83 286.744 135.128 286.79 134.953C286.819 134.841 286.94 134.407 287.274 133.822C287.617 133.222 288.263 132.33 289.374 131.553L299.887 146.571C302.956 144.423 304.079 141.314 304.534 139.562C305.038 137.622 305.172 135.594 305.172 133.768H286.839ZM289.413 131.526C290.361 130.87 291.135 130.675 291.3 130.636C291.51 130.586 291.499 130.612 291.163 130.628C290.473 130.662 289.213 130.62 287.22 130.376L284.992 148.573C287.491 148.879 289.897 149.043 292.049 148.939C293.815 148.854 297.033 148.547 299.848 146.598L289.413 131.526ZM287.287 130.385C286.765 130.317 286.398 130.236 286.159 130.17C285.919 130.103 285.852 130.061 285.905 130.089C285.963 130.118 286.165 130.229 286.427 130.468C286.698 130.715 286.985 131.055 287.226 131.484L271.237 140.453C274.427 146.138 280.389 147.975 284.926 148.564L287.287 130.385ZM287.19 131.421C287.231 131.492 287.015 131.125 286.81 129.984C286.612 128.879 286.473 127.328 286.473 125.244H268.14C268.14 130.548 268.764 136.125 271.273 140.516L287.19 131.421ZM286.473 125.244V92.5204H268.14V125.244H286.473ZM321.108 121.6L315.178 114.611L306.835 121.69L315.267 128.664L321.108 121.6ZM330.252 129.162L336.147 122.144L336.121 122.121L336.094 122.099L330.252 129.162ZM332.383 131.362L324.336 135.752L324.484 136.023L324.65 136.283L332.383 131.362ZM330.733 137.275L337.857 143.042L337.953 142.924L338.045 142.803L330.733 137.275ZM322.415 138.168L327.884 130.813L327.779 130.734L327.671 130.659L322.415 138.168ZM321.727 137.687L315.889 144.754L316.171 144.987L316.471 145.196L321.727 137.687ZM316.846 133.15L310.365 139.631L310.399 139.665L310.433 139.699L316.846 133.15ZM311.828 128.475L317.554 121.317L302.661 109.403V128.475H311.828ZM311.69 136.175L302.649 134.668L302.592 135.005L302.562 135.345L311.69 136.175ZM311.071 137.962L302.984 133.648L302.927 133.755L302.873 133.863L311.071 137.962ZM300.484 137.893L292.178 141.769L292.259 141.943L292.347 142.113L300.484 137.893ZM299.866 136.106L290.731 136.867L290.768 137.309L290.847 137.746L299.866 136.106ZM299.866 90.183L290.824 88.676L290.768 89.0129L290.737 89.3531L299.866 90.183ZM300.484 88.3268L292.347 84.1074L292.259 84.2772L292.178 84.4505L300.484 88.3268ZM310.521 87.6393L304.585 94.6234L304.639 94.6697L304.694 94.715L310.521 87.6393ZM311.759 90.6642L302.598 90.9696L302.61 91.324L302.649 91.6764L311.759 90.6642ZM311.828 114.382H302.661V133.952L317.696 121.424L311.828 114.382ZM315.54 110.876L309.148 104.306L309.103 104.35L309.058 104.394L315.54 110.876ZM319.321 107.37L314.237 99.7429L313.829 100.014L313.453 100.328L319.321 107.37ZM320.146 106.82L325.231 114.446L325.494 114.271L325.745 114.077L320.146 106.82ZM328.189 107.782L320.963 113.422L321.04 113.52L321.119 113.615L328.189 107.782ZM327.914 115.826L322.028 108.799L322.006 108.818L321.984 108.836L327.914 115.826ZM315.267 128.664L324.41 136.226L336.094 122.099L326.95 114.537L315.267 128.664ZM324.356 136.181C324.563 136.355 324.724 136.497 324.847 136.609C324.971 136.722 325.038 136.789 325.06 136.812C325.087 136.84 325.03 136.784 324.924 136.651C324.869 136.582 324.788 136.476 324.693 136.336C324.598 136.197 324.472 136.001 324.336 135.752L340.43 126.973C339.22 124.755 337.194 123.023 336.147 122.144L324.356 136.181ZM324.65 136.283C324.314 135.756 323.698 134.547 323.698 132.806H342.03C342.03 130.148 341.093 127.977 340.116 126.441L324.65 136.283ZM323.698 132.806C323.698 132.105 323.809 131.578 323.891 131.279C323.974 130.977 324.053 130.813 324.058 130.802C324.065 130.787 324.029 130.863 323.919 131.038C323.811 131.209 323.65 131.444 323.421 131.746L338.045 142.803C338.984 141.56 339.897 140.178 340.605 138.694C341.279 137.279 342.03 135.231 342.03 132.806H323.698ZM323.609 131.507C323.138 132.089 323.016 132.113 323.277 131.931C323.522 131.759 324.697 130.996 326.608 130.996V149.328C329.711 149.328 332.169 148.083 333.79 146.949C335.425 145.805 336.77 144.385 337.857 143.042L323.609 131.507ZM326.608 130.996C327.349 130.996 327.905 131.115 328.219 131.202C328.537 131.29 328.717 131.374 328.739 131.385C328.767 131.398 328.705 131.371 328.545 131.271C328.388 131.172 328.169 131.025 327.884 130.813L316.945 145.524C318.129 146.404 319.451 147.268 320.868 147.942C322.202 148.576 324.209 149.328 326.608 149.328V130.996ZM327.671 130.659L326.984 130.178L316.471 145.196L317.158 145.677L327.671 130.659ZM327.565 130.62C326.834 130.016 325.444 128.74 323.259 126.6L310.433 139.699C312.648 141.868 314.513 143.616 315.889 144.754L327.565 130.62ZM323.328 126.668C321.092 124.432 319.12 122.57 317.554 121.317L306.102 135.633C306.827 136.213 308.201 137.467 310.365 139.631L323.328 126.668ZM302.661 128.475V133.768H320.994V128.475H302.661ZM302.661 133.768C302.661 134.171 302.652 134.455 302.642 134.638C302.63 134.839 302.622 134.826 302.649 134.668L320.732 137.681C320.95 136.373 320.994 134.967 320.994 133.768H302.661ZM302.562 135.345C302.62 134.703 302.756 134.241 302.839 134.001C302.924 133.755 302.992 133.633 302.984 133.648L319.159 142.275C319.823 141.03 320.619 139.204 320.819 137.004L302.562 135.345ZM302.873 133.863C304.026 131.556 305.884 130.782 306.369 130.618C306.813 130.468 306.752 130.583 305.778 130.583V148.916C307.737 148.916 310.024 148.733 312.234 147.987C314.483 147.228 317.521 145.56 319.27 142.061L302.873 133.863ZM305.778 130.583C304.868 130.583 304.849 130.47 305.322 130.635C305.875 130.829 307.544 131.595 308.622 133.674L292.347 142.113C294.067 145.429 296.939 147.123 299.256 147.935C301.493 148.72 303.801 148.916 305.778 148.916V130.583ZM308.791 134.017C308.738 133.904 308.733 133.879 308.751 133.932C308.768 133.981 308.83 134.166 308.884 134.466L290.847 137.746C291.129 139.296 291.668 140.676 292.178 141.769L308.791 134.017ZM309 135.345C308.987 135.182 308.963 134.684 308.963 133.7H290.631C290.631 134.824 290.653 135.93 290.731 136.867L309 135.345ZM308.963 133.7V92.5204H290.631V133.7H308.963ZM308.963 92.5204C308.963 92.0542 308.968 91.6898 308.976 91.4149C308.985 91.1244 308.995 91.0076 308.994 91.0128L290.737 89.3531C290.652 90.2931 290.631 91.4182 290.631 92.5204H308.963ZM308.907 91.6899C308.862 91.9584 308.809 92.1344 308.785 92.2051C308.761 92.2773 308.755 92.2786 308.791 92.2031L292.178 84.4505C291.623 85.6398 291.091 87.0722 290.824 88.676L308.907 91.6899ZM308.622 92.5462C307.524 94.6631 305.823 95.4172 305.305 95.5966C304.855 95.7524 304.902 95.6369 305.847 95.6369V77.3044C303.858 77.3044 301.545 77.4983 299.308 78.2727C297.002 79.0709 294.086 80.7531 292.347 84.1074L308.622 92.5462ZM305.847 95.6369C306.452 95.6369 306.602 95.6952 306.442 95.6554C306.291 95.6176 305.499 95.4004 304.585 94.6234L316.458 80.6552C312.977 77.6964 308.624 77.3044 305.847 77.3044V95.6369ZM304.694 94.715C303.822 93.9968 303.252 93.1319 302.931 92.3474C302.634 91.6195 302.602 91.0955 302.598 90.9696L320.92 90.3588C320.82 87.352 319.821 83.4235 316.348 80.5636L304.694 94.715ZM302.649 91.6764C302.637 91.5676 302.643 91.581 302.65 91.7819C302.657 91.9633 302.661 92.2273 302.661 92.5891H320.994C320.994 91.663 320.974 90.597 320.869 89.652L302.649 91.6764ZM302.661 92.5891V114.382H320.994V92.5891H302.661ZM317.696 121.424C318.862 120.452 320.347 119.031 322.021 117.357L309.058 104.394C307.433 106.02 306.443 106.937 305.96 107.34L317.696 121.424ZM321.932 117.445C323.61 115.813 324.655 114.856 325.189 114.411L313.453 100.328C312.337 101.258 310.862 102.639 309.148 104.306L321.932 117.445ZM324.406 114.996L325.231 114.446L315.061 99.1929L314.237 99.7429L324.406 114.996ZM325.745 114.077C326.16 113.757 326.287 113.721 326.142 113.786C326.003 113.849 325.336 114.13 324.271 114.13V95.7973C320.051 95.7973 316.659 97.9327 314.547 99.562L325.745 114.077ZM324.271 114.13C322.286 114.13 321.052 113.321 320.757 113.109C320.452 112.89 320.534 112.872 320.963 113.422L335.415 102.142C334.378 100.813 333.074 99.386 331.462 98.227C329.861 97.0754 327.401 95.7973 324.271 95.7973V114.13ZM321.119 113.615C321.363 113.912 321.533 114.139 321.645 114.302C321.76 114.467 321.79 114.529 321.771 114.493C321.756 114.463 321.651 114.261 321.543 113.906C321.436 113.553 321.292 112.934 321.292 112.113H339.624C339.624 109.512 338.735 107.37 338.011 105.987C337.238 104.512 336.254 103.154 335.26 101.949L321.119 113.615ZM321.292 112.113C321.292 110.16 322.064 108.938 322.261 108.651C322.474 108.339 322.509 108.396 322.028 108.799L333.801 122.852C335.016 121.834 336.322 120.562 337.384 119.013C338.428 117.488 339.624 115.12 339.624 112.113H321.292ZM321.984 108.836L315.178 114.611L327.039 128.59L333.845 122.815L321.984 108.836Z" fill="white" mask="url(#path-32-outside-1_891_69)"/>
<mask id="path-34-outside-2_891_69" maskUnits="userSpaceOnUse" x="178.773" y="79.7494" width="68" height="70" fill="black">
<rect fill="white" x="178.773" y="79.7494" width="68" height="70"/>
<path d="M193.822 89.2893H232.046C233.512 89.2893 234.589 89.4726 235.277 89.8392C235.964 90.16 236.422 90.6871 236.652 91.4204C236.881 92.1537 236.995 93.1162 236.995 94.3078C236.995 95.4994 236.881 96.4618 236.652 97.1951C236.422 97.8826 236.033 98.3638 235.483 98.6388C234.658 99.0513 233.489 99.2575 231.977 99.2575H218.846V133.837C218.846 134.891 218.8 135.67 218.709 136.175C218.663 136.679 218.457 137.275 218.09 137.962C217.769 138.604 217.173 139.062 216.303 139.337C215.432 139.612 214.286 139.749 212.865 139.749C211.444 139.749 210.299 139.612 209.428 139.337C208.603 139.062 208.007 138.604 207.64 137.962C207.32 137.275 207.113 136.679 207.022 136.175C206.976 135.625 206.953 134.823 206.953 133.768V99.2575H193.754C192.287 99.2575 191.21 99.0971 190.523 98.7763C189.835 98.4097 189.377 97.8597 189.148 97.1264C188.918 96.3931 188.804 95.4306 188.804 94.239C188.804 93.0474 188.918 92.1079 189.148 91.4204C189.377 90.6871 189.766 90.183 190.316 89.908C191.141 89.4955 192.31 89.2893 193.822 89.2893Z"/>
</mask>
<path d="M193.822 89.2893H232.046C233.512 89.2893 234.589 89.4726 235.277 89.8392C235.964 90.16 236.422 90.6871 236.652 91.4204C236.881 92.1537 236.995 93.1162 236.995 94.3078C236.995 95.4994 236.881 96.4618 236.652 97.1951C236.422 97.8826 236.033 98.3638 235.483 98.6388C234.658 99.0513 233.489 99.2575 231.977 99.2575H218.846V133.837C218.846 134.891 218.8 135.67 218.709 136.175C218.663 136.679 218.457 137.275 218.09 137.962C217.769 138.604 217.173 139.062 216.303 139.337C215.432 139.612 214.286 139.749 212.865 139.749C211.444 139.749 210.299 139.612 209.428 139.337C208.603 139.062 208.007 138.604 207.64 137.962C207.32 137.275 207.113 136.679 207.022 136.175C206.976 135.625 206.953 134.823 206.953 133.768V99.2575H193.754C192.287 99.2575 191.21 99.0971 190.523 98.7763C189.835 98.4097 189.377 97.8597 189.148 97.1264C188.918 96.3931 188.804 95.4306 188.804 94.239C188.804 93.0474 188.918 92.1079 189.148 91.4204C189.377 90.6871 189.766 90.183 190.316 89.908C191.141 89.4955 192.31 89.2893 193.822 89.2893Z" fill="url(#paint0_linear_891_69)"/>
<path d="M235.277 89.8392L230.963 97.9271L231.179 98.0421L231.4 98.1455L235.277 89.8392ZM236.652 91.4204L227.903 94.1545L227.903 94.1545L236.652 91.4204ZM236.652 97.1951L245.347 100.094L245.375 100.012L245.401 99.9292L236.652 97.1951ZM235.483 98.6388L231.384 90.4403L231.384 90.4403L235.483 98.6388ZM218.846 99.2575V90.0913H209.68V99.2575H218.846ZM218.709 136.175L209.69 134.535L209.617 134.937L209.58 135.345L218.709 136.175ZM218.09 137.962L210.002 133.648L209.945 133.755L209.891 133.863L218.09 137.962ZM209.428 139.337L206.529 148.033L206.598 148.056L206.668 148.078L209.428 139.337ZM207.64 137.962L199.334 141.838L199.494 142.181L199.682 142.51L207.64 137.962ZM207.022 136.175L197.887 136.936L197.924 137.378L198.003 137.814L207.022 136.175ZM206.953 99.2575H216.119V90.0913H206.953V99.2575ZM190.523 98.7763L186.209 106.864L186.425 106.979L186.646 107.083L190.523 98.7763ZM189.148 97.1264L180.399 99.8604L180.399 99.8605L189.148 97.1264ZM189.148 91.4204L197.843 94.319L197.871 94.237L197.897 94.1545L189.148 91.4204ZM190.316 89.908L194.416 98.1065L194.416 98.1065L190.316 89.908ZM193.822 98.4555H232.046V80.123H193.822V98.4555ZM232.046 98.4555C232.426 98.4555 232.523 98.4814 232.415 98.463C232.352 98.4523 232.192 98.4219 231.96 98.3496C231.731 98.278 231.381 98.15 230.963 97.9271L239.59 81.7514C236.857 80.2935 233.908 80.123 232.046 80.123V98.4555ZM231.4 98.1455C230.683 97.8106 229.902 97.2755 229.219 96.4898C228.538 95.7064 228.128 94.8745 227.903 94.1545L245.401 88.6864C244.414 85.5288 242.209 82.9593 239.153 81.5329L231.4 98.1455ZM227.903 94.1545C227.855 94.0031 227.83 93.8928 227.818 93.8343C227.806 93.7752 227.805 93.7536 227.807 93.7758C227.81 93.7975 227.816 93.8522 227.821 93.9439C227.825 94.0353 227.829 94.1557 227.829 94.3078H246.162C246.162 92.6403 246.015 90.6515 245.401 88.6863L227.903 94.1545ZM227.829 94.3078C227.829 94.4599 227.825 94.5803 227.821 94.6716C227.816 94.7634 227.81 94.818 227.807 94.8398C227.805 94.862 227.806 94.8403 227.818 94.7812C227.83 94.7227 227.855 94.6125 227.903 94.4611L245.401 99.9292C246.015 97.9641 246.162 95.9753 246.162 94.3078H227.829ZM227.956 94.2965C228.131 93.7718 228.459 93.05 229.063 92.3043C229.686 91.5351 230.48 90.8921 231.384 90.4403L239.582 106.837C242.691 105.283 244.497 102.644 245.347 100.094L227.956 94.2965ZM231.384 90.4403C231.676 90.2942 231.918 90.2064 232.083 90.1552C232.248 90.1039 232.357 90.0827 232.395 90.0761C232.456 90.0652 232.336 90.0913 231.977 90.0913V108.424C234.108 108.424 236.921 108.168 239.582 106.837L231.384 90.4403ZM231.977 90.0913H218.846V108.424H231.977V90.0913ZM209.68 99.2575V133.837H228.012V99.2575H209.68ZM209.68 133.837C209.68 134.242 209.671 134.513 209.661 134.674C209.657 134.751 209.654 134.78 209.655 134.768C209.656 134.761 209.665 134.676 209.69 134.535L227.727 137.814C227.974 136.458 228.012 134.993 228.012 133.837H209.68ZM209.58 135.345C209.638 134.703 209.775 134.241 209.858 134.001C209.943 133.755 210.01 133.633 210.002 133.648L226.178 142.276C226.842 141.03 227.637 139.204 227.837 137.004L209.58 135.345ZM209.891 133.863C210.38 132.885 211.068 132.096 211.814 131.522C212.526 130.974 213.169 130.714 213.542 130.596L219.063 148.078C221.618 147.271 224.575 145.489 226.289 142.061L209.891 133.863ZM213.542 130.596C213.771 130.524 213.845 130.528 213.698 130.545C213.559 130.562 213.29 130.583 212.865 130.583V148.916C214.763 148.916 216.947 148.746 219.063 148.078L213.542 130.596ZM212.865 130.583C212.44 130.583 212.172 130.562 212.032 130.545C211.885 130.528 211.96 130.524 212.188 130.596L206.668 148.078C208.784 148.746 210.967 148.916 212.865 148.916V130.583ZM212.326 130.641C212.735 130.777 213.322 131.038 213.951 131.522C214.598 132.019 215.17 132.663 215.599 133.414L199.682 142.51C201.361 145.447 203.965 147.178 206.529 148.033L212.326 130.641ZM215.947 134.086C215.894 133.973 215.889 133.948 215.907 134.001C215.924 134.05 215.986 134.235 216.04 134.535L198.003 137.814C198.285 139.365 198.824 140.745 199.334 141.838L215.947 134.086ZM216.156 135.413C216.143 135.25 216.119 134.752 216.119 133.768H197.787C197.787 134.893 197.809 135.999 197.887 136.936L216.156 135.413ZM216.119 133.768V99.2575H197.787V133.768H216.119ZM206.953 90.0913H193.754V108.424H206.953V90.0913ZM193.754 90.0913C193.328 90.0913 193.165 90.0663 193.196 90.071C193.22 90.0745 193.336 90.0926 193.523 90.1436C193.706 90.1936 194.014 90.2906 194.399 90.47L186.646 107.083C189.219 108.283 191.969 108.424 193.754 108.424V90.0913ZM194.836 90.6885C195.444 91.0125 196.112 91.5092 196.705 92.2208C197.3 92.9343 197.679 93.6973 197.897 94.3923L180.399 99.8605C181.357 102.928 183.431 105.383 186.209 106.864L194.836 90.6885ZM197.897 94.3923C197.944 94.5437 197.969 94.654 197.981 94.7125C197.993 94.7715 197.994 94.7932 197.992 94.771C197.989 94.7493 197.984 94.6946 197.979 94.6029C197.974 94.5115 197.97 94.3911 197.97 94.239H179.638C179.638 95.9065 179.784 97.8953 180.399 99.8604L197.897 94.3923ZM197.97 94.239C197.97 94.0866 197.974 93.9696 197.978 93.8847C197.983 93.7992 197.988 93.7561 197.989 93.7503C197.989 93.7436 197.984 93.7891 197.965 93.878C197.947 93.9658 197.91 94.1179 197.843 94.319L180.452 88.5218C179.775 90.5515 179.638 92.611 179.638 94.239H197.97ZM197.897 94.1545C197.752 94.6182 197.456 95.3317 196.865 96.097C196.248 96.8951 195.419 97.605 194.416 98.1065L186.217 81.7094C182.91 83.3628 181.174 86.2057 180.399 88.6864L197.897 94.1545ZM194.416 98.1065C194.123 98.2526 193.881 98.3404 193.716 98.3916C193.551 98.4429 193.442 98.4641 193.404 98.4707C193.343 98.4815 193.463 98.4555 193.822 98.4555V80.123C191.691 80.123 188.879 80.3786 186.217 81.7094L194.416 98.1065Z" fill="white" mask="url(#path-34-outside-2_891_69)"/>
<mask id="path-36-outside-3_891_69" maskUnits="userSpaceOnUse" x="38.696" y="76.7492" width="162" height="73" fill="black">
<rect fill="white" x="38.696" y="76.7492" width="162" height="73"/>
<path d="M85.6379 99.5323C86.8295 101.961 87.4253 104.665 87.4253 107.644C87.4253 110.623 86.8295 113.328 85.6379 115.757C84.4463 118.14 82.911 120.042 81.0319 121.463C77.2279 124.396 73.2864 125.862 69.2074 125.862H60.6141V133.631C60.6141 134.685 60.5683 135.487 60.4766 136.037C60.4308 136.541 60.2245 137.137 59.8579 137.824C59.2162 139.062 57.4288 139.68 54.4956 139.68C51.2874 139.68 49.4084 138.833 48.8584 137.137C48.5834 136.358 48.4459 135.166 48.4459 133.562V95.4075C48.4459 94.3534 48.4688 93.5743 48.5147 93.0701C48.6063 92.5202 48.8355 91.9014 49.2021 91.214C49.8438 89.9765 51.6312 89.3578 54.5644 89.3578H69.2762C73.3093 89.3578 77.2279 90.8244 81.0319 93.7576C82.911 95.1784 84.4463 97.1033 85.6379 99.5323ZM69.2762 113.694C70.6511 113.694 72.0031 113.19 73.3322 112.182C74.6614 111.173 75.3259 109.661 75.3259 107.644C75.3259 105.628 74.6614 104.115 73.3322 103.107C72.0031 102.053 70.6282 101.526 69.2074 101.526H60.6141V113.694H69.2762ZM91.8826 92.5202C91.8826 91.4661 91.9055 90.6869 91.9513 90.1828C92.043 89.6328 92.2492 89.0141 92.5701 88.3266C93.2117 87.0892 94.9991 86.4705 97.9323 86.4705C100.728 86.4705 102.47 87.0892 103.157 88.3266C103.524 89.0141 103.73 89.6328 103.776 90.1828C103.867 90.7328 103.913 91.5348 103.913 92.5889V124.419C103.913 126.069 104.051 127.123 104.326 127.581C104.601 127.994 105.197 128.2 106.113 128.2C107.076 128.2 107.717 128.246 108.038 128.337C108.359 128.383 108.748 128.566 109.207 128.887C110.123 129.483 110.582 131.11 110.582 133.768C110.582 136.656 110.123 138.42 109.207 139.062C108.015 139.887 105.174 140.024 100.682 139.474C97.1532 139.016 94.8616 137.847 93.8075 135.968C92.5242 133.722 91.8826 130.148 91.8826 125.244V92.5202ZM137.884 107.369C138.159 104.803 139.97 103.52 143.315 103.52C145.103 103.52 146.432 103.657 147.303 103.932C148.173 104.207 148.769 104.688 149.09 105.376C149.457 106.063 149.663 106.682 149.709 107.232C149.801 107.736 149.846 108.515 149.846 109.569V133.631C149.846 134.685 149.801 135.487 149.709 136.037C149.663 136.541 149.48 137.137 149.159 137.824C148.517 139.016 146.936 139.612 144.415 139.612C141.94 139.612 140.268 139.314 139.397 138.718C138.572 138.076 138.091 137.16 137.953 135.968C136.257 138.397 133.416 139.612 129.429 139.612C125.487 139.612 121.821 137.801 118.429 134.181C115.038 130.56 113.342 126.367 113.342 121.6C113.342 116.788 115.038 112.594 118.429 109.019C121.866 105.399 125.625 103.588 129.704 103.588C131.262 103.588 132.683 103.863 133.966 104.413C135.249 104.963 136.143 105.49 136.647 105.995C137.151 106.453 137.564 106.911 137.884 107.369ZM125.372 121.669C125.372 123.181 125.968 124.556 127.16 125.794C128.352 126.985 129.795 127.581 131.491 127.581C133.187 127.581 134.585 126.962 135.684 125.725C136.83 124.487 137.403 123.135 137.403 121.669C137.403 120.156 136.853 118.759 135.753 117.475C134.699 116.192 133.255 115.55 131.422 115.55C129.635 115.55 128.168 116.192 127.022 117.475C125.922 118.759 125.372 120.156 125.372 121.669ZM175.468 103.52C180.052 103.52 183.856 105.284 186.88 108.813C189.951 112.296 191.486 116.559 191.486 121.6V133.699C191.486 134.754 191.441 135.556 191.349 136.106C191.303 136.61 191.12 137.183 190.799 137.824C190.157 139.062 188.37 139.68 185.437 139.68C182.183 139.68 180.304 138.833 179.8 137.137C179.525 136.358 179.387 135.189 179.387 133.631V121.531C179.387 119.652 178.837 118.186 177.737 117.132C176.683 116.077 175.239 115.55 173.406 115.55C171.619 115.55 170.152 116.1 169.006 117.2C167.906 118.3 167.356 119.744 167.356 121.531V133.699C167.356 134.754 167.311 135.556 167.219 136.106C167.173 136.61 166.967 137.183 166.6 137.824C166.004 139.062 164.24 139.68 161.307 139.68C158.419 139.68 156.655 139.062 156.013 137.824C155.692 137.137 155.486 136.541 155.394 136.037C155.349 135.487 155.326 134.685 155.326 133.631V109.294C155.326 108.286 155.349 107.53 155.394 107.026C155.486 106.476 155.715 105.88 156.082 105.238C156.724 104.093 158.488 103.52 161.375 103.52C164.171 103.52 165.89 104.047 166.531 105.101C166.99 105.88 167.219 106.82 167.219 107.919C167.402 107.599 167.815 107.14 168.456 106.545C169.098 105.949 169.717 105.467 170.312 105.101C171.871 104.047 173.589 103.52 175.468 103.52Z"/>
</mask>
<path d="M85.6379 99.5323C86.8295 101.961 87.4253 104.665 87.4253 107.644C87.4253 110.623 86.8295 113.328 85.6379 115.757C84.4463 118.14 82.911 120.042 81.0319 121.463C77.2279 124.396 73.2864 125.862 69.2074 125.862H60.6141V133.631C60.6141 134.685 60.5683 135.487 60.4766 136.037C60.4308 136.541 60.2245 137.137 59.8579 137.824C59.2162 139.062 57.4288 139.68 54.4956 139.68C51.2874 139.68 49.4084 138.833 48.8584 137.137C48.5834 136.358 48.4459 135.166 48.4459 133.562V95.4075C48.4459 94.3534 48.4688 93.5743 48.5147 93.0701C48.6063 92.5202 48.8355 91.9014 49.2021 91.214C49.8438 89.9765 51.6312 89.3578 54.5644 89.3578H69.2762C73.3093 89.3578 77.2279 90.8244 81.0319 93.7576C82.911 95.1784 84.4463 97.1033 85.6379 99.5323ZM69.2762 113.694C70.6511 113.694 72.0031 113.19 73.3322 112.182C74.6614 111.173 75.3259 109.661 75.3259 107.644C75.3259 105.628 74.6614 104.115 73.3322 103.107C72.0031 102.053 70.6282 101.526 69.2074 101.526H60.6141V113.694H69.2762ZM91.8826 92.5202C91.8826 91.4661 91.9055 90.6869 91.9513 90.1828C92.043 89.6328 92.2492 89.0141 92.5701 88.3266C93.2117 87.0892 94.9991 86.4705 97.9323 86.4705C100.728 86.4705 102.47 87.0892 103.157 88.3266C103.524 89.0141 103.73 89.6328 103.776 90.1828C103.867 90.7328 103.913 91.5348 103.913 92.5889V124.419C103.913 126.069 104.051 127.123 104.326 127.581C104.601 127.994 105.197 128.2 106.113 128.2C107.076 128.2 107.717 128.246 108.038 128.337C108.359 128.383 108.748 128.566 109.207 128.887C110.123 129.483 110.582 131.11 110.582 133.768C110.582 136.656 110.123 138.42 109.207 139.062C108.015 139.887 105.174 140.024 100.682 139.474C97.1532 139.016 94.8616 137.847 93.8075 135.968C92.5242 133.722 91.8826 130.148 91.8826 125.244V92.5202ZM137.884 107.369C138.159 104.803 139.97 103.52 143.315 103.52C145.103 103.52 146.432 103.657 147.303 103.932C148.173 104.207 148.769 104.688 149.09 105.376C149.457 106.063 149.663 106.682 149.709 107.232C149.801 107.736 149.846 108.515 149.846 109.569V133.631C149.846 134.685 149.801 135.487 149.709 136.037C149.663 136.541 149.48 137.137 149.159 137.824C148.517 139.016 146.936 139.612 144.415 139.612C141.94 139.612 140.268 139.314 139.397 138.718C138.572 138.076 138.091 137.16 137.953 135.968C136.257 138.397 133.416 139.612 129.429 139.612C125.487 139.612 121.821 137.801 118.429 134.181C115.038 130.56 113.342 126.367 113.342 121.6C113.342 116.788 115.038 112.594 118.429 109.019C121.866 105.399 125.625 103.588 129.704 103.588C131.262 103.588 132.683 103.863 133.966 104.413C135.249 104.963 136.143 105.49 136.647 105.995C137.151 106.453 137.564 106.911 137.884 107.369ZM125.372 121.669C125.372 123.181 125.968 124.556 127.16 125.794C128.352 126.985 129.795 127.581 131.491 127.581C133.187 127.581 134.585 126.962 135.684 125.725C136.83 124.487 137.403 123.135 137.403 121.669C137.403 120.156 136.853 118.759 135.753 117.475C134.699 116.192 133.255 115.55 131.422 115.55C129.635 115.55 128.168 116.192 127.022 117.475C125.922 118.759 125.372 120.156 125.372 121.669ZM175.468 103.52C180.052 103.52 183.856 105.284 186.88 108.813C189.951 112.296 191.486 116.559 191.486 121.6V133.699C191.486 134.754 191.441 135.556 191.349 136.106C191.303 136.61 191.12 137.183 190.799 137.824C190.157 139.062 188.37 139.68 185.437 139.68C182.183 139.68 180.304 138.833 179.8 137.137C179.525 136.358 179.387 135.189 179.387 133.631V121.531C179.387 119.652 178.837 118.186 177.737 117.132C176.683 116.077 175.239 115.55 173.406 115.55C171.619 115.55 170.152 116.1 169.006 117.2C167.906 118.3 167.356 119.744 167.356 121.531V133.699C167.356 134.754 167.311 135.556 167.219 136.106C167.173 136.61 166.967 137.183 166.6 137.824C166.004 139.062 164.24 139.68 161.307 139.68C158.419 139.68 156.655 139.062 156.013 137.824C155.692 137.137 155.486 136.541 155.394 136.037C155.349 135.487 155.326 134.685 155.326 133.631V109.294C155.326 108.286 155.349 107.53 155.394 107.026C155.486 106.476 155.715 105.88 156.082 105.238C156.724 104.093 158.488 103.52 161.375 103.52C164.171 103.52 165.89 104.047 166.531 105.101C166.99 105.88 167.219 106.82 167.219 107.919C167.402 107.599 167.815 107.14 168.456 106.545C169.098 105.949 169.717 105.467 170.312 105.101C171.871 104.047 173.589 103.52 175.468 103.52Z" fill="#5BC8AC"/>
<path d="M85.6379 99.5323L93.8673 95.4953L93.8673 95.4953L85.6379 99.5323ZM85.6379 115.757L93.8365 119.856L93.852 119.825L93.8673 119.794L85.6379 115.757ZM81.0319 121.463L75.5037 114.151L75.469 114.177L75.4347 114.204L81.0319 121.463ZM60.6141 125.862V116.696H51.4479V125.862H60.6141ZM60.4766 136.037L51.4351 134.53L51.3789 134.867L51.348 135.207L60.4766 136.037ZM59.8579 137.824L51.77 133.511L51.745 133.558L51.7205 133.605L59.8579 137.824ZM48.8584 137.137L57.5775 134.309L57.5412 134.197L57.5021 134.086L48.8584 137.137ZM48.5147 93.0701L39.4731 91.5632L39.417 91.9001L39.3861 92.2403L48.5147 93.0701ZM49.2021 91.214L57.29 95.5275L57.315 95.4806L57.3395 95.4334L49.2021 91.214ZM81.0319 93.7576L75.4347 101.016L75.469 101.043L75.5037 101.069L81.0319 93.7576ZM73.3322 112.182L67.7923 104.879L67.7923 104.879L73.3322 112.182ZM73.3322 103.107L67.6364 110.289L67.7137 110.35L67.7923 110.41L73.3322 103.107ZM60.6141 101.526V92.3598H51.4479V101.526H60.6141ZM60.6141 113.694H51.4479V122.86H60.6141V113.694ZM77.4086 103.569C77.9236 104.619 78.2591 105.922 78.2591 107.644H96.5916C96.5916 103.409 95.7355 99.3036 93.8673 95.4953L77.4086 103.569ZM78.2591 107.644C78.2591 109.367 77.9236 110.67 77.4086 111.72L93.8673 119.794C95.7355 115.985 96.5916 111.88 96.5916 107.644H78.2591ZM77.4394 111.657C76.7955 112.945 76.1176 113.687 75.5037 114.151L86.5601 128.774C89.7043 126.397 92.0971 123.335 93.8365 119.856L77.4394 111.657ZM75.4347 114.204C72.9388 116.128 70.9171 116.696 69.2074 116.696V135.029C75.6558 135.029 81.517 132.663 86.6291 128.721L75.4347 114.204ZM69.2074 116.696H60.6141V135.029H69.2074V116.696ZM51.4479 125.862V133.631H69.7803V125.862H51.4479ZM51.4479 133.631C51.4479 134.034 51.4389 134.317 51.4284 134.5C51.4169 134.701 51.4087 134.688 51.4351 134.53L69.5181 137.544C69.7363 136.235 69.7803 134.829 69.7803 133.631H51.4479ZM51.348 135.207C51.4063 134.566 51.5425 134.103 51.6256 133.863C51.7106 133.618 51.7782 133.495 51.77 133.511L67.9457 142.138C68.6098 140.893 69.4052 139.066 69.6052 136.867L51.348 135.207ZM51.7205 133.605C52.8182 131.488 54.5193 130.734 55.0377 130.554C55.4876 130.399 55.4399 130.514 54.4956 130.514V148.847C56.4845 148.847 58.7972 148.653 61.0345 147.878C63.3403 147.08 66.256 145.398 67.9952 142.044L51.7205 133.605ZM54.4956 130.514C53.5433 130.514 53.7298 130.364 54.4502 130.689C54.8726 130.88 55.5113 131.251 56.1492 131.919C56.8099 132.611 57.2963 133.442 57.5775 134.309L40.1393 139.965C42.7286 147.949 50.8203 148.847 54.4956 148.847V130.514ZM57.5021 134.086C57.594 134.347 57.6353 134.528 57.6498 134.597C57.665 134.67 57.6631 134.679 57.6549 134.608C57.6469 134.539 57.6358 134.418 57.6269 134.237C57.618 134.058 57.6122 133.834 57.6122 133.562H39.2797C39.2797 135.418 39.4041 137.891 40.2147 140.188L57.5021 134.086ZM57.6122 133.562V95.4075H39.2797V133.562H57.6122ZM57.6122 95.4075C57.6122 94.9414 57.6173 94.5769 57.6254 94.3021C57.6339 94.0116 57.6437 93.8948 57.6433 93.9L39.3861 92.2403C39.3006 93.1803 39.2797 94.3054 39.2797 95.4075H57.6122ZM57.5562 94.5771C57.4913 94.9664 57.4022 95.2388 57.3509 95.3772C57.299 95.5173 57.2675 95.5697 57.29 95.5275L41.1143 86.9005C40.4509 88.1443 39.779 89.728 39.4731 91.5632L57.5562 94.5771ZM57.3395 95.4334C56.2419 97.5502 54.5407 98.3044 54.0223 98.4838C53.5725 98.6395 53.6201 98.5241 54.5644 98.5241V80.1916C52.5755 80.1916 50.2628 80.3855 48.0255 81.1599C45.7198 81.9581 42.804 83.6403 41.0648 86.9946L57.3395 95.4334ZM54.5644 98.5241H69.2762V80.1916H54.5644V98.5241ZM69.2762 98.5241C70.9174 98.5241 72.9176 99.0756 75.4347 101.016L86.6291 86.4987C81.5382 82.5732 75.7013 80.1916 69.2762 80.1916V98.5241ZM75.5037 101.069C76.0794 101.504 76.7546 102.236 77.4086 103.569L93.8673 95.4953C92.1381 91.9704 89.7425 88.8523 86.5601 86.4461L75.5037 101.069ZM69.2762 122.86C73.0494 122.86 76.2983 121.437 78.8722 119.484L67.7923 104.879C67.7314 104.925 67.8384 104.832 68.1189 104.727C68.4161 104.617 68.8168 104.528 69.2762 104.528V122.86ZM78.8722 119.484C82.9714 116.375 84.4921 111.858 84.4921 107.644H66.1597C66.1597 107.657 66.1576 107.237 66.4356 106.604C66.7373 105.917 67.2269 105.308 67.7923 104.879L78.8722 119.484ZM84.4921 107.644C84.4921 103.43 82.9714 98.9142 78.8722 95.8045L67.7923 110.41C67.2269 109.981 66.7373 109.372 66.4356 108.685C66.1576 108.052 66.1597 107.632 66.1597 107.644H84.4921ZM79.0281 95.9254C76.4046 93.8448 73.0772 92.3598 69.2074 92.3598V110.692C68.7555 110.692 68.3444 110.603 68.0233 110.48C67.7197 110.364 67.5934 110.255 67.6364 110.289L79.0281 95.9254ZM69.2074 92.3598H60.6141V110.692H69.2074V92.3598ZM51.4479 101.526V113.694H69.7803V101.526H51.4479ZM60.6141 122.86H69.2762V104.528H60.6141V122.86ZM91.9513 90.1828L82.9098 88.6759L82.8537 89.0128L82.8227 89.3529L91.9513 90.1828ZM92.5701 88.3266L84.4327 84.1072L84.3447 84.277L84.2638 84.4503L92.5701 88.3266ZM103.157 88.3266L111.245 84.0131L111.208 83.9438L111.17 83.8751L103.157 88.3266ZM103.776 90.1828L94.6412 90.944L94.6724 91.3188L94.7343 91.6897L103.776 90.1828ZM104.326 127.581L96.4658 132.297L96.578 132.484L96.699 132.666L104.326 127.581ZM108.038 128.337L105.52 137.151L106.122 137.323L106.742 137.411L108.038 128.337ZM109.207 128.887L103.95 136.396L104.079 136.487L104.211 136.573L109.207 128.887ZM109.207 139.062L114.424 146.598L114.444 146.585L114.463 146.571L109.207 139.062ZM100.682 139.474L99.5017 148.564L99.5349 148.568L99.5681 148.573L100.682 139.474ZM93.8075 135.968L101.802 131.484L101.784 131.452L101.766 131.42L93.8075 135.968ZM101.049 92.5202C101.049 92.054 101.054 91.6896 101.062 91.4147C101.071 91.1242 101.08 91.0075 101.08 91.0127L82.8227 89.3529C82.7373 90.2929 82.7164 91.4181 82.7164 92.5202H101.049ZM100.993 91.6897C100.948 91.9582 100.894 92.1342 100.871 92.2049C100.847 92.2771 100.841 92.2784 100.876 92.2029L84.2638 84.4503C83.7088 85.6396 83.1771 87.072 82.9098 88.6759L100.993 91.6897ZM100.707 92.546C99.6098 94.6629 97.9086 95.417 97.3902 95.5965C96.9404 95.7522 96.988 95.6367 97.9323 95.6367V77.3042C95.9434 77.3042 93.6307 77.4981 91.3935 78.2725C89.0877 79.0707 86.172 80.7529 84.4327 84.1072L100.707 92.546ZM97.9323 95.6367C98.7649 95.6367 98.75 95.7435 98.2667 95.5719C97.6914 95.3674 96.1805 94.6433 95.1443 92.7781L111.17 83.8751C109.446 80.7725 106.721 79.1203 104.404 78.2971C102.179 77.5067 99.8954 77.3042 97.9323 77.3042V95.6367ZM95.0692 92.6401C95.0556 92.6146 94.9781 92.4665 94.8909 92.2049C94.8037 91.9432 94.6887 91.5138 94.6412 90.944L112.91 89.4216C112.728 87.2283 111.974 85.3805 111.245 84.0131L95.0692 92.6401ZM94.7343 91.6897C94.7079 91.5316 94.7161 91.5183 94.7276 91.7197C94.7381 91.9027 94.747 92.186 94.747 92.5889H113.08C113.08 91.3907 113.035 89.9847 112.817 88.6759L94.7343 91.6897ZM94.747 92.5889V124.419H113.08V92.5889H94.747ZM94.747 124.419C94.747 125.449 94.7873 126.56 94.9272 127.632C95.0294 128.416 95.3117 130.374 96.4658 132.297L112.186 122.865C112.457 123.317 112.636 123.715 112.751 124.005C112.867 124.299 112.942 124.543 112.989 124.714C113.078 125.04 113.104 125.246 113.106 125.261C113.108 125.279 113.08 125.038 113.08 124.419H94.747ZM96.699 132.666C99.7057 137.176 104.638 137.366 106.113 137.366V119.034C106.255 119.034 106.98 119.038 107.977 119.383C109.052 119.755 110.709 120.631 111.953 122.497L96.699 132.666ZM106.113 137.366C106.283 137.366 106.415 137.368 106.513 137.371C106.561 137.372 106.598 137.374 106.625 137.375C106.651 137.376 106.663 137.377 106.663 137.377C106.663 137.377 106.658 137.377 106.65 137.376C106.642 137.375 106.629 137.374 106.611 137.372C106.578 137.369 106.52 137.362 106.441 137.351C106.363 137.34 106.249 137.322 106.105 137.293C105.965 137.265 105.763 137.22 105.52 137.151L110.556 119.524C108.807 119.024 106.888 119.034 106.113 119.034V137.366ZM106.742 137.411C105.759 137.271 105.045 136.98 104.668 136.803C104.274 136.618 104.03 136.452 103.95 136.396L114.463 121.378C113.567 120.75 111.764 119.61 109.334 119.263L106.742 137.411ZM104.211 136.573C102.019 135.147 101.473 133.247 101.415 133.04C101.325 132.72 101.415 132.858 101.415 133.768H119.748C119.748 132.02 119.609 130.016 119.061 128.069C118.544 126.235 117.311 123.223 114.202 121.202L104.211 136.573ZM101.415 133.768C101.415 134.83 101.321 135.128 101.366 134.953C101.395 134.841 101.516 134.407 101.85 133.822C102.193 133.222 102.839 132.33 103.95 131.552L114.463 146.571C117.533 144.423 118.655 141.314 119.11 139.562C119.614 137.622 119.748 135.594 119.748 133.768H101.415ZM103.989 131.525C104.937 130.869 105.711 130.675 105.876 130.636C106.086 130.586 106.075 130.612 105.739 130.628C105.049 130.661 103.789 130.62 101.796 130.376L99.5681 148.573C102.067 148.878 104.473 149.043 106.625 148.939C108.391 148.854 111.609 148.547 114.424 146.598L103.989 131.525ZM101.863 130.384C101.341 130.317 100.974 130.236 100.735 130.169C100.495 130.102 100.428 130.061 100.481 130.088C100.539 130.118 100.741 130.229 101.003 130.468C101.274 130.715 101.561 131.055 101.802 131.484L85.8132 140.453C89.0027 146.138 94.9651 147.975 99.5017 148.564L101.863 130.384ZM101.766 131.42C101.807 131.492 101.591 131.125 101.386 129.983C101.188 128.879 101.049 127.328 101.049 125.244H82.7164C82.7164 130.547 83.3399 136.125 85.849 140.516L101.766 131.42ZM101.049 125.244V92.5202H82.7164V125.244H101.049ZM137.884 107.369L130.375 112.626L144.394 132.653L146.998 108.346L137.884 107.369ZM147.303 103.932L150.063 95.1914L150.063 95.1914L147.303 103.932ZM149.09 105.376L140.784 109.252L140.887 109.474L141.002 109.689L149.09 105.376ZM149.709 107.232L140.574 107.993L140.611 108.435L140.69 108.872L149.709 107.232ZM149.709 136.037L140.667 134.53L140.611 134.867L140.58 135.207L149.709 136.037ZM149.159 137.824L157.229 142.17L157.354 141.939L157.465 141.701L149.159 137.824ZM139.397 138.718L133.769 145.953L133.99 146.125L134.221 146.283L139.397 138.718ZM137.953 135.968L147.059 134.917L144.286 110.884L130.437 130.721L137.953 135.968ZM118.429 134.181L111.739 140.447L111.739 140.447L118.429 134.181ZM118.429 109.019L111.781 102.708L111.779 102.711L118.429 109.019ZM133.966 104.413L130.355 112.838L130.355 112.838L133.966 104.413ZM136.647 105.995L130.165 112.476L130.32 112.63L130.481 112.777L136.647 105.995ZM127.16 125.794L120.557 132.152L120.617 132.214L120.678 132.275L127.16 125.794ZM135.684 125.725L128.959 119.497L128.895 119.566L128.834 119.635L135.684 125.725ZM135.753 117.475L128.67 123.293L128.731 123.368L128.794 123.441L135.753 117.475ZM127.022 117.475L120.185 111.37L120.123 111.44L120.063 111.51L127.022 117.475ZM146.998 108.346C146.962 108.683 146.839 109.312 146.438 110.051C146.021 110.822 145.426 111.48 144.749 111.96C143.5 112.846 142.633 112.686 143.315 112.686V94.3534C140.652 94.3534 137.207 94.8351 134.148 97.0041C130.74 99.4197 129.137 102.967 128.77 106.393L146.998 108.346ZM143.315 112.686C143.992 112.686 144.443 112.713 144.71 112.74C144.838 112.754 144.888 112.764 144.874 112.761C144.865 112.759 144.744 112.736 144.542 112.673L150.063 95.1914C147.807 94.4788 145.323 94.3534 143.315 94.3534V112.686ZM144.542 112.673C144.092 112.531 143.389 112.233 142.643 111.63C141.866 111.003 141.219 110.185 140.784 109.252L157.396 101.5C155.771 98.0169 152.841 96.0688 150.063 95.1914L144.542 112.673ZM141.002 109.689C140.989 109.664 140.911 109.516 140.824 109.254C140.737 108.992 140.622 108.563 140.574 107.993L158.843 106.471C158.661 104.277 157.907 102.43 157.178 101.062L141.002 109.689ZM140.69 108.872C140.665 108.73 140.656 108.646 140.655 108.638C140.654 108.626 140.657 108.655 140.662 108.733C140.671 108.894 140.68 109.164 140.68 109.569H159.013C159.013 108.414 158.974 106.949 158.727 105.592L140.69 108.872ZM140.68 109.569V133.631H159.013V109.569H140.68ZM140.68 133.631C140.68 134.034 140.671 134.317 140.661 134.5C140.649 134.701 140.641 134.688 140.667 134.53L158.75 137.544C158.968 136.235 159.013 134.829 159.013 133.631H140.68ZM140.58 135.207C140.626 134.701 140.722 134.342 140.776 134.166C140.832 133.985 140.871 133.908 140.853 133.948L157.465 141.701C158.033 140.484 158.66 138.814 158.837 136.867L140.58 135.207ZM141.088 133.479C142.058 131.677 143.512 130.869 144.26 130.587C144.879 130.354 145.062 130.445 144.415 130.445V148.778C147.41 148.778 153.972 148.219 157.229 142.17L141.088 133.479ZM144.415 130.445C143.976 130.445 143.63 130.432 143.366 130.413C143.099 130.394 142.955 130.372 142.912 130.364C142.861 130.355 142.989 130.373 143.239 130.461C143.479 130.546 143.975 130.744 144.573 131.153L134.221 146.283C136.187 147.628 138.272 148.159 139.697 148.413C141.244 148.688 142.859 148.778 144.415 148.778V130.445ZM145.024 131.483C145.634 131.957 146.16 132.578 146.533 133.289C146.894 133.975 147.018 134.567 147.059 134.917L128.847 137.019C129.222 140.262 130.71 143.574 133.769 145.953L145.024 131.483ZM130.437 130.721C130.503 130.627 130.602 130.515 130.727 130.415C130.85 130.317 130.938 130.276 130.948 130.272C130.951 130.271 130.849 130.315 130.599 130.359C130.347 130.404 129.965 130.445 129.429 130.445V148.778C135.276 148.778 141.498 146.903 145.469 141.215L130.437 130.721ZM129.429 130.445C128.645 130.445 127.255 130.195 125.119 127.914L111.739 140.447C116.386 145.408 122.329 148.778 129.429 148.778V130.445ZM125.119 127.914C123.247 125.916 122.508 123.936 122.508 121.6H104.176C104.176 128.797 106.828 135.204 111.739 140.447L125.119 127.914ZM122.508 121.6C122.508 119.197 123.26 117.245 125.079 115.328L111.779 102.711C106.815 107.943 104.176 114.378 104.176 121.6H122.508ZM125.077 115.33C127.199 113.095 128.684 112.755 129.704 112.755V94.4222C122.565 94.4222 116.534 97.7026 111.781 102.708L125.077 115.33ZM129.704 112.755C130.165 112.755 130.338 112.831 130.355 112.838L137.577 95.9883C135.027 94.8955 132.359 94.4222 129.704 94.4222V112.755ZM130.355 112.838C130.545 112.92 130.688 112.987 130.791 113.037C130.841 113.062 130.879 113.082 130.905 113.096C130.931 113.11 130.943 113.117 130.942 113.117C130.942 113.116 130.925 113.106 130.895 113.087C130.865 113.067 130.817 113.035 130.754 112.988C130.637 112.902 130.424 112.735 130.165 112.476L143.128 99.513C141.34 97.725 139.104 96.6429 137.577 95.9883L130.355 112.838ZM130.481 112.777C130.53 112.821 130.54 112.834 130.521 112.814C130.503 112.793 130.449 112.732 130.375 112.626L145.394 102.113C144.61 100.993 143.715 100.033 142.813 99.2121L130.481 112.777ZM116.206 121.669C116.206 125.88 117.963 129.457 120.557 132.152L133.763 119.436C133.817 119.492 134.033 119.736 134.23 120.19C134.435 120.664 134.539 121.183 134.539 121.669H116.206ZM120.678 132.275C123.601 135.198 127.381 136.747 131.491 136.747V118.415C131.739 118.415 132.154 118.463 132.633 118.661C133.113 118.859 133.451 119.122 133.641 119.312L120.678 132.275ZM131.491 136.747C135.732 136.747 139.648 135.062 142.535 131.815L128.834 119.635C129.081 119.356 129.504 118.999 130.101 118.735C130.693 118.473 131.201 118.415 131.491 118.415V136.747ZM142.41 131.952C144.873 129.293 146.569 125.791 146.569 121.669H128.237C128.237 121.172 128.341 120.66 128.534 120.207C128.717 119.773 128.917 119.543 128.959 119.497L142.41 131.952ZM146.569 121.669C146.569 117.708 145.058 114.246 142.713 111.51L128.794 123.441C128.761 123.402 128.604 123.205 128.461 122.842C128.312 122.465 128.237 122.053 128.237 121.669H146.569ZM142.836 111.657C139.846 108.016 135.675 106.384 131.422 106.384V124.717C131.26 124.717 130.78 124.685 130.157 124.408C129.508 124.119 129.001 123.696 128.67 123.293L142.836 111.657ZM131.422 106.384C127.139 106.384 123.145 108.055 120.185 111.37L133.86 123.58C133.622 123.847 133.218 124.183 132.656 124.429C132.102 124.671 131.645 124.717 131.422 124.717V106.384ZM120.063 111.51C117.718 114.246 116.206 117.708 116.206 121.669H134.539C134.539 122.053 134.463 122.465 134.315 122.842C134.172 123.205 134.015 123.402 133.982 123.441L120.063 111.51ZM186.88 108.813L179.921 114.778L179.962 114.827L180.005 114.875L186.88 108.813ZM191.349 136.106L182.307 134.599L182.251 134.936L182.22 135.276L191.349 136.106ZM190.799 137.824L198.936 142.044L198.967 141.984L198.998 141.924L190.799 137.824ZM179.8 137.137L188.586 134.525L188.52 134.304L188.443 134.086L179.8 137.137ZM177.737 117.132L171.256 123.613L171.325 123.682L171.395 123.749L177.737 117.132ZM169.006 117.2L162.658 110.588L162.591 110.653L162.525 110.719L169.006 117.2ZM167.219 136.106L158.177 134.599L158.121 134.936L158.09 135.276L167.219 136.106ZM166.6 137.824L158.642 133.277L158.481 133.557L158.341 133.848L166.6 137.824ZM156.013 137.824L147.707 141.701L147.788 141.874L147.876 142.044L156.013 137.824ZM155.394 136.037L146.26 136.798L146.297 137.24L146.376 137.677L155.394 136.037ZM155.394 107.026L146.353 105.519L146.297 105.856L146.266 106.196L155.394 107.026ZM156.082 105.238L164.04 109.786L164.06 109.752L164.079 109.717L156.082 105.238ZM166.531 105.101L174.432 100.453L174.397 100.394L174.361 100.335L166.531 105.101ZM167.219 107.919H158.053V142.436L175.177 112.467L167.219 107.919ZM168.456 106.545L174.693 113.261L174.693 113.261L168.456 106.545ZM170.312 105.101L175.116 112.907L175.285 112.804L175.448 112.693L170.312 105.101ZM175.468 112.686C177.332 112.686 178.609 113.248 179.921 114.778L193.84 102.848C189.102 97.3203 182.771 94.3534 175.468 94.3534V112.686ZM180.005 114.875C181.468 116.535 182.32 118.584 182.32 121.6H200.653C200.653 114.534 198.434 108.058 193.756 102.752L180.005 114.875ZM182.32 121.6V133.699H200.653V121.6H182.32ZM182.32 133.699C182.32 134.102 182.311 134.386 182.301 134.569C182.289 134.77 182.281 134.757 182.307 134.599L200.39 137.613C200.609 136.304 200.653 134.898 200.653 133.699H182.32ZM182.22 135.276C182.268 134.75 182.371 134.356 182.447 134.12C182.523 133.882 182.589 133.748 182.6 133.725L198.998 141.924C199.633 140.653 200.295 138.946 200.478 136.935L182.22 135.276ZM182.662 133.605C183.759 131.488 185.46 130.734 185.979 130.554C186.429 130.399 186.381 130.514 185.437 130.514V148.847C187.426 148.847 189.738 148.653 191.976 147.878C194.281 147.08 197.197 145.398 198.936 142.044L182.662 133.605ZM185.437 130.514C184.439 130.514 184.624 130.359 185.357 130.689C185.79 130.885 186.46 131.273 187.124 131.983C187.815 132.72 188.312 133.605 188.586 134.525L171.013 139.749C172.153 143.581 174.894 146.081 177.817 147.4C180.429 148.578 183.18 148.847 185.437 148.847V130.514ZM188.443 134.086C188.531 134.335 188.571 134.51 188.586 134.58C188.602 134.655 188.601 134.668 188.594 134.605C188.586 134.544 188.576 134.433 188.567 134.265C188.559 134.097 188.553 133.887 188.553 133.631H170.221C170.221 135.477 170.352 137.909 171.156 140.188L188.443 134.086ZM188.553 133.631V121.531H170.221V133.631H188.553ZM188.553 121.531C188.553 117.776 187.388 113.685 184.079 110.514L171.395 123.749C170.924 123.298 170.585 122.757 170.392 122.241C170.212 121.762 170.221 121.477 170.221 121.531H188.553ZM184.219 110.65C181.067 107.499 177.077 106.384 173.406 106.384V124.717C173.452 124.717 173.179 124.723 172.72 124.556C172.228 124.376 171.702 124.06 171.256 123.613L184.219 110.65ZM173.406 106.384C169.574 106.384 165.73 107.639 162.658 110.588L175.354 123.813C175.042 124.113 174.634 124.377 174.184 124.545C173.754 124.707 173.458 124.717 173.406 124.717V106.384ZM162.525 110.719C159.447 113.797 158.19 117.706 158.19 121.531H176.523C176.523 121.58 176.514 121.901 176.335 122.371C176.146 122.866 175.845 123.324 175.488 123.682L162.525 110.719ZM158.19 121.531V133.699H176.523V121.531H158.19ZM158.19 133.699C158.19 134.102 158.181 134.386 158.171 134.569C158.159 134.77 158.151 134.757 158.177 134.599L176.26 137.613C176.479 136.304 176.523 134.898 176.523 133.699H158.19ZM158.09 135.276C158.151 134.613 158.296 134.113 158.405 133.809C158.515 133.503 158.615 133.323 158.642 133.277L174.559 142.372C175.302 141.072 176.141 139.207 176.347 136.936L158.09 135.276ZM158.341 133.848C159.432 131.582 161.236 130.763 161.797 130.567C162.281 130.397 162.259 130.514 161.307 130.514V148.847C163.288 148.847 165.614 148.655 167.863 147.866C170.188 147.051 173.172 145.304 174.859 141.801L158.341 133.848ZM161.307 130.514C160.396 130.514 160.378 130.401 160.851 130.567C161.404 130.76 163.072 131.526 164.15 133.605L147.876 142.044C149.596 145.36 152.467 147.054 154.785 147.866C157.022 148.651 159.329 148.847 161.307 148.847V130.514ZM164.319 133.948C164.267 133.835 164.261 133.81 164.28 133.863C164.297 133.912 164.358 134.097 164.413 134.397L146.376 137.677C146.658 139.227 147.197 140.607 147.707 141.701L164.319 133.948ZM164.529 135.276C164.515 135.113 164.492 134.615 164.492 133.631H146.159C146.159 134.755 146.182 135.861 146.26 136.798L164.529 135.276ZM164.492 133.631V109.294H146.159V133.631H164.492ZM164.492 109.294C164.492 108.855 164.497 108.51 164.505 108.249C164.509 108.12 164.513 108.021 164.517 107.95C164.521 107.878 164.524 107.849 164.523 107.856L146.266 106.196C146.181 107.129 146.159 108.223 146.159 109.294H164.492ZM164.436 108.533C164.302 109.337 164.047 109.775 164.04 109.786L148.123 100.691C147.384 101.985 146.67 103.614 146.353 105.519L164.436 108.533ZM164.079 109.717C162.881 111.857 161.124 112.535 160.717 112.668C160.324 112.795 160.421 112.686 161.375 112.686V94.3534C159.443 94.3534 157.213 94.5306 155.056 95.2311C152.885 95.9361 149.924 97.4738 148.084 100.76L164.079 109.717ZM161.375 112.686C162.308 112.686 162.428 112.787 162.074 112.678C161.75 112.579 159.982 111.971 158.702 109.867L174.361 100.335C172.439 97.1766 169.491 95.7778 167.449 95.1515C165.376 94.5158 163.238 94.3534 161.375 94.3534V112.686ZM158.631 109.748C158.098 108.842 158.053 108.1 158.053 107.919H176.385C176.385 105.539 175.882 102.918 174.432 100.453L158.631 109.748ZM175.177 112.467C174.967 112.835 174.779 113.092 174.681 113.221C174.575 113.36 174.5 113.444 174.479 113.467C174.444 113.506 174.497 113.443 174.693 113.261L162.219 99.8276C161.573 100.428 160.207 101.714 159.26 103.372L175.177 112.467ZM174.693 113.261C174.999 112.978 175.142 112.892 175.116 112.907L165.508 97.2943C164.291 98.0433 163.197 98.9197 162.219 99.8276L174.693 113.261ZM175.448 112.693C175.466 112.681 175.478 112.674 175.486 112.669C175.493 112.665 175.496 112.664 175.495 112.665C175.493 112.665 175.489 112.667 175.482 112.67C175.475 112.673 175.467 112.676 175.458 112.678C175.448 112.681 175.44 112.683 175.432 112.685C175.425 112.687 175.42 112.688 175.418 112.688C175.416 112.688 175.419 112.688 175.426 112.687C175.434 112.687 175.448 112.686 175.468 112.686V94.3534C171.756 94.3534 168.249 95.43 165.177 97.5086L175.448 112.693Z" fill="white" mask="url(#path-36-outside-3_891_69)"/>
<path d="M325.354 115.362L323.853 111.299C322.118 106.567 320.735 102.545 319.702 99.2348C318.669 95.9242 317.953 93.065 317.552 90.6571C317.151 88.2492 317.05 86.1813 317.249 84.4533C317.448 82.7254 317.903 81.092 318.615 79.5532C320.071 76.4129 322.267 74.318 325.205 73.2687C328.142 72.2193 331.074 72.482 334 74.0567C335.619 74.9278 336.99 76.1245 338.113 77.6468C339.235 79.1691 340.016 80.8832 340.455 82.7891C342.133 82.0223 343.874 81.6651 345.678 81.7175C347.482 81.7698 349.194 82.2315 350.813 83.1026C353.739 84.6773 355.695 87.0447 356.681 90.2047C357.667 93.3648 357.431 96.515 355.976 99.6554C355.263 101.192 354.325 102.566 353.162 103.777C351.998 104.987 350.403 106.142 348.374 107.241C346.346 108.341 343.794 109.441 340.717 110.542C337.641 111.644 333.825 112.867 329.271 114.214L325.354 115.362Z" fill="#F18D9E"/>
<path fill-rule="evenodd" clip-rule="evenodd" d="M33.1304 63.8247C32.5203 63.6088 31.867 63.5361 31.223 63.6127C30.5791 63.6892 29.9624 63.9128 29.4228 64.2653C28.8831 64.6179 28.4355 65.0897 28.1159 65.6427C27.7964 66.1956 27.6138 66.8144 27.5829 67.4491C27.353 70.4082 27.1819 75.0068 27.722 79.765C28.2567 84.4997 29.5132 89.5617 32.2615 93.3118C35.1088 97.3551 39.1752 99.1516 42.9555 99.8534C46.7091 100.547 50.2594 100.183 52.2806 99.8429C52.8397 99.7561 53.3811 99.5829 53.8847 99.3297C50.8663 91.4158 45.2012 82.7111 36.8225 75.1508C36.4963 74.8567 36.3028 74.4477 36.2845 74.0138C36.2662 73.5799 36.4246 73.1566 36.7249 72.8371C37.0252 72.5176 37.4428 72.3281 37.8857 72.3102C38.3287 72.2922 38.7608 72.4474 39.0869 72.7415C47.2999 80.1526 53.0639 88.653 56.3924 96.6245C57.3843 94.8307 58.6248 92.1281 59.1675 89.0144C59.8118 85.322 59.4883 80.988 56.5555 76.9446C53.8473 73.1998 49.3558 70.3271 44.9472 68.2085C40.5333 66.0873 36.0445 64.647 33.1304 63.8247Z" fill="#5BC8AC"/>
</g>
<path d="M350.691 170.554C353.283 171.201 355.907 169.625 356.554 167.034C357.201 164.443 355.625 161.818 353.034 161.171C350.443 160.524 347.818 162.1 347.171 164.692C346.524 167.283 348.1 169.907 350.691 170.554Z" fill="#F18D9E"/>
<defs>
<filter id="filter0_d_891_69" x="349.06" y="525.765" width="228.88" height="144.573" filterUnits="userSpaceOnUse" color-interpolation-filters="sRGB">
<feFlood flood-opacity="0" result="BackgroundImageFix"/>
<feColorMatrix in="SourceAlpha" type="matrix" values="0 0 0 0 0 0 0 0 0 0 0 0 0 0 0 0 0 0 127 0" result="hardAlpha"/>
<feOffset dy="4"/>
<feGaussianBlur stdDeviation="2"/>
<feComposite in2="hardAlpha" operator="out"/>
<feColorMatrix type="matrix" values="0 0 0 0 0 0 0 0 0 0 0 0 0 0 0 0 0 0 0.25 0"/>
<feBlend mode="normal" in2="BackgroundImageFix" result="effect1_dropShadow_891_69"/>
<feBlend mode="normal" in="SourceGraphic" in2="effect1_dropShadow_891_69" result="shape"/>
</filter>
<filter id="filter1_d_891_69" x="4.44792" y="51.2116" width="375.969" height="126.993" filterUnits="userSpaceOnUse" color-interpolation-filters="sRGB">
<feFlood flood-opacity="0" result="BackgroundImageFix"/>
<feColorMatrix in="SourceAlpha" type="matrix" values="0 0 0 0 0 0 0 0 0 0 0 0 0 0 0 0 0 0 127 0" result="hardAlpha"/>
<feOffset dy="10.5441"/>
<feGaussianBlur stdDeviation="9.16624"/>
<feComposite in2="hardAlpha" operator="out"/>
<feColorMatrix type="matrix" values="0 0 0 0 0 0 0 0 0 0 0 0 0 0 0 0 0 0 0.25 0"/>
<feBlend mode="normal" in2="BackgroundImageFix" result="effect1_dropShadow_891_69"/>
<feBlend mode="normal" in="SourceGraphic" in2="effect1_dropShadow_891_69" result="shape"/>
</filter>
<linearGradient id="paint0_linear_891_69" x1="187.773" y1="121.166" x2="242.77" y2="121.166" gradientUnits="userSpaceOnUse">
<stop offset="0.46" stop-color="#5BC8AC"/>
<stop offset="0.4601" stop-color="#F18D9E"/>
</linearGradient>
<clipPath id="clip0_891_69">
<rect width="57.5798" height="57.5798" fill="white" transform="matrix(-0.970223 0.242214 0.242214 0.970223 55.8653 134)"/>
</clipPath>
</defs>
</svg>
