<svg width="35" height="35" viewBox="0 0 35 35" fill="none" xmlns="http://www.w3.org/2000/svg">
<path d="M0 9C0 4.02944 4.02944 0 9 0H26C30.9706 0 35 4.02944 35 9V26C35 30.9706 30.9706 35 26 35H9C4.02944 35 0 30.9706 0 26V9Z" fill="#DFA4CC"/>
<path d="M28.7183 9.2554C27.2942 8.50778 25.6335 8.34741 24.0924 8.80869C24.0173 7.24306 23.3419 5.76635 22.206 4.68483C21.0702 3.60332 19.5613 3 17.9921 3C16.4229 3 14.9139 3.60332 13.7781 4.68483C12.6423 5.76635 11.9668 7.24306 11.8918 8.80869C10.3548 8.34636 8.69887 8.49128 7.26586 9.21352C6.21057 9.76757 5.34069 10.618 4.76349 11.66C4.1863 12.702 3.92704 13.8899 4.01768 15.0773C4.10832 16.2647 4.5449 17.3996 5.27358 18.3422C6.00226 19.2847 6.99118 19.9935 8.11837 20.3814C7.39889 21.404 7.00885 22.6215 7.00033 23.8713C7.00654 24.2223 7.03924 24.5722 7.09816 24.9183C7.33351 26.336 8.06569 27.6239 9.16394 28.5522C10.2622 29.4804 11.655 29.9885 13.0936 29.9857C13.3915 30.0048 13.6902 30.0048 13.9881 29.9857C15.5855 29.7343 17.0206 28.8672 17.9851 27.5706C18.9596 28.8463 20.3933 29.6925 21.9821 29.9299C22.2799 29.9489 22.5787 29.9489 22.8765 29.9299C23.992 29.9286 25.0856 29.6215 26.0384 29.042C26.9911 28.4625 27.7663 27.633 28.2795 26.6437C28.7928 25.6545 29.0243 24.5434 28.9488 23.4318C28.8734 22.3202 28.4939 21.2505 27.8518 20.3395C28.9845 19.9584 29.98 19.2529 30.7143 18.3109C31.4486 17.369 31.8894 16.2321 31.9818 15.0417C32.0741 13.8514 31.814 12.6603 31.2337 11.6165C30.6534 10.5728 29.7786 9.72253 28.7183 9.17164V9.2554ZM15.6651 6.5472C16.2895 5.94994 17.1206 5.61653 17.9851 5.61653C18.8496 5.61653 19.6807 5.94994 20.305 6.5472C20.7817 7.02405 21.1054 7.63191 21.2348 8.29325C21.3642 8.95459 21.2935 9.63946 21.0317 10.2605L20.6684 11.0841L19.746 11.8938C19.1793 11.6977 18.5847 11.594 17.9851 11.5867C17.2102 11.5874 16.444 11.7491 15.735 12.0613L14.9524 10.2605C14.6812 9.6422 14.6041 8.95625 14.7313 8.29327C14.8586 7.63029 15.1842 7.02146 15.6651 6.5472ZM7.14008 16.0957C6.82809 15.4099 6.75971 14.6384 6.94623 13.9085C7.13275 13.1787 7.56301 12.5343 8.1659 12.0818C8.76878 11.6294 9.50818 11.3959 10.2619 11.4201C11.0156 11.4443 11.7385 11.7247 12.311 12.2149L12.9958 12.8151L13.485 13.9319C12.7849 14.8676 12.4029 16.0025 12.3949 17.1706C12.3791 17.3797 12.3791 17.5897 12.3949 17.7988H11.6262L10.4523 17.9105C9.78082 17.9812 9.10375 17.8454 8.51177 17.521C7.91979 17.1967 7.44119 16.6993 7.14008 16.0957ZM16.3639 24.5833C16.1957 25.3285 15.7755 25.993 15.1741 26.465C14.5727 26.9369 13.8268 27.1874 13.0621 27.1743C12.2974 27.1612 11.5606 26.8853 10.9758 26.393C10.391 25.9007 9.99387 25.2221 9.85133 24.4716C9.83762 24.2764 9.83762 24.0805 9.85133 23.8853C9.8564 23.3179 10.01 22.7616 10.2968 22.2719C10.5837 21.7821 10.9938 21.3758 11.4865 21.0933L12.1992 20.5908L13.471 20.4512C14.2726 21.565 15.4566 22.3452 16.7972 22.6428L16.3639 24.5833ZM17.9851 19.9626C17.4323 19.9626 16.8919 19.7988 16.4322 19.492C15.9725 19.1852 15.6143 18.7492 15.4027 18.239C15.1912 17.7289 15.1358 17.1675 15.2437 16.6259C15.3515 16.0843 15.6177 15.5869 16.0086 15.1964C16.3995 14.8059 16.8976 14.54 17.4398 14.4323C17.982 14.3246 18.544 14.3799 19.0547 14.5912C19.5655 14.8025 20.002 15.1603 20.3091 15.6195C20.6162 16.0786 20.7802 16.6184 20.7802 17.1706C20.7802 17.9111 20.4857 18.6212 19.9615 19.1448C19.4373 19.6684 18.7264 19.9626 17.9851 19.9626ZM26.1188 24.4576C25.9746 25.3094 25.5013 26.0705 24.8007 26.5771C24.1002 27.0836 23.2285 27.295 22.3734 27.1658C21.6996 27.071 21.0709 26.7728 20.5714 26.3113C20.0718 25.8498 19.7254 25.2469 19.5783 24.5833L19.3826 23.7457L19.6761 22.4614C20.9654 22.0419 22.0581 21.1688 22.7507 20.0044L23.4495 20.4232H23.5753L24.4977 20.9677C25.0969 21.3095 25.5749 21.8291 25.8654 22.4544C26.1559 23.0797 26.2444 23.7798 26.1188 24.4576ZM28.8301 16.0817C28.5552 16.6366 28.1312 17.1041 27.6055 17.432C27.0797 17.7599 26.4731 17.9353 25.8533 17.9384H25.5179L24.6234 17.7988L23.5753 17.2264C23.5733 15.8691 23.0765 14.559 22.1777 13.5411L22.7787 13.0245L23.6591 12.2149C24.2333 11.705 24.9671 11.4103 25.7348 11.3814C26.5026 11.3524 27.2565 11.591 27.8676 12.0562C28.4786 12.5214 28.9088 13.1843 29.0844 13.9314C29.2599 14.6785 29.17 15.4633 28.8301 16.1515V16.0817Z" fill="white"/>
</svg>
