<svg width="38" height="51" viewBox="0 0 38 51" fill="none" xmlns="http://www.w3.org/2000/svg">
<path d="M16.7275 28.8496C18.4899 24.8051 24.6116 17.9294 35 22.7829C33.485 27.8385 27.7096 36.1298 16.7275 28.8496C7.749 33.7031 3.83479 25.5273 3 20.8328C12.3496 17.5394 16.0473 24.8051 16.7275 28.8496Z" fill="#5BC8AC"/>
<path d="M19.9796 50C17.568 45.3416 14.1304 33.2697 16.7275 28.8496M16.7275 28.8496C18.4899 24.8051 24.6116 17.9294 35 22.7829C33.485 27.8385 27.7096 36.1298 16.7275 28.8496ZM16.7275 28.8496C16.0473 24.8051 12.3496 17.5394 3 20.8328C3.83479 25.5273 7.749 33.7031 16.7275 28.8496Z" stroke="#5BC8AC" stroke-width="4"/>
<path d="M11.1695 16.0521C16.2473 12.9121 20.3594 13.5535 22.9363 17.5314" stroke="#5BC8AC" stroke-width="3"/>
<path d="M7.28299 12.3961C15.761 7.15339 22.6267 8.22426 26.9291 14.866" stroke="#5BC8AC" stroke-width="3"/>
<path d="M4.42719 8.25627C16.1374 0.63788 25.7794 2.45081 32 12.5515" stroke="#5BC8AC" stroke-width="3"/>
</svg>
