<svg width="37" height="37" viewBox="0 0 37 37" fill="none" xmlns="http://www.w3.org/2000/svg">
<path opacity="0.5" d="M0.666667 31.45V15.4667H36.3333V31.45C36.3333 32.7451 35.8188 33.9872 34.903 34.903C33.9872 35.8188 32.7451 36.3333 31.45 36.3333H5.55C4.25486 36.3333 3.01276 35.8188 2.09696 34.903C1.18116 33.9872 0.666667 32.7451 0.666667 31.45ZM9.25 10.4333C8.93616 10.4333 8.63518 10.3087 8.41326 10.0867C8.19134 9.86483 8.06667 9.56384 8.06667 9.25V1.85C8.06667 1.53616 8.19134 1.23518 8.41326 1.01326C8.63518 0.791339 8.93616 0.666667 9.25 0.666667C9.56384 0.666667 9.86483 0.791339 10.0867 1.01326C10.3087 1.23518 10.4333 1.53616 10.4333 1.85V9.25C10.4333 9.56384 10.3087 9.86483 10.0867 10.0867C9.86483 10.3087 9.56384 10.4333 9.25 10.4333ZM27.75 10.4333C27.4362 10.4333 27.1352 10.3087 26.9133 10.0867C26.6913 9.86483 26.5667 9.56384 26.5667 9.25V1.85C26.5667 1.53616 26.6913 1.23517 26.9133 1.01326C27.1352 0.791339 27.4362 0.666667 27.75 0.666667C28.0638 0.666667 28.3648 0.791339 28.5867 1.01326C28.8087 1.23517 28.9333 1.53616 28.9333 1.85V9.25C28.9333 9.56384 28.8087 9.86483 28.5867 10.0867C28.3648 10.3087 28.0638 10.4333 27.75 10.4333Z" fill="#5BC8AC" stroke="#5BC8AC" stroke-width="1.33333"/>
<path d="M30.2667 4.66667H31.45C32.7471 4.66667 33.9898 5.17734 34.9052 6.08445L35.3684 5.61702L34.9052 6.08445C35.8203 6.99135 36.3333 8.22008 36.3333 9.5V14.3333H0.666667V9.5C0.666667 8.22008 1.17968 6.99135 2.09482 6.08445C3.01017 5.17734 4.25292 4.66667 5.55 4.66667H6.73333V9.5C6.73333 10.165 6.99996 10.8015 7.47259 11.2699C7.94501 11.7381 8.58448 12 9.25 12C9.91552 12 10.555 11.7381 11.0274 11.2699C11.5 10.8015 11.7667 10.165 11.7667 9.5V4.66667H25.2333V9.5C25.2333 10.165 25.5 10.8015 25.9726 11.2699C26.445 11.7381 27.0845 12 27.75 12C28.4155 12 29.055 11.7381 29.5274 11.2699C30 10.8015 30.2667 10.165 30.2667 9.5V4.66667Z" fill="#5BC8AC" stroke="#5BC8AC" stroke-width="1.33333"/>
</svg>
