<svg width="40" height="40" viewBox="0 0 40 40" fill="none" xmlns="http://www.w3.org/2000/svg">
<g clip-path="url(#clip0_325_47)">
<path d="M20 30C21.7255 29.997 23.4208 29.5477 24.9212 28.6956C26.4216 27.8436 27.676 26.6178 28.5625 25.1375L26.425 23.8875C25.7579 24.9952 24.8158 25.9117 23.69 26.5479C22.5642 27.1841 21.2931 27.5184 20 27.5184C18.7069 27.5184 17.4358 27.1841 16.31 26.5479C15.1842 25.9117 14.2421 24.9952 13.575 23.8875L11.4375 25.1375C12.324 26.6178 13.5784 27.8436 15.0788 28.6956C16.5792 29.5477 18.2745 29.997 20 30Z" fill="#42695A"/>
<path d="M20 2.5C16.5388 2.5 13.1554 3.52636 10.2775 5.44928C7.39967 7.37221 5.15665 10.1053 3.83212 13.303C2.50758 16.5007 2.16102 20.0194 2.83627 23.4141C3.51151 26.8087 5.17822 29.9269 7.62564 32.3744C10.0731 34.8218 13.1913 36.4885 16.5859 37.1637C19.9806 37.839 23.4993 37.4924 26.697 36.1679C29.8947 34.8434 32.6278 32.6003 34.5507 29.7225C36.4737 26.8446 37.5 23.4612 37.5 20C37.5 15.3587 35.6563 10.9075 32.3744 7.62563C29.0925 4.34374 24.6413 2.5 20 2.5ZM20 5C22.8681 5.00447 25.6748 5.83111 28.0874 7.38193C30.5 8.93275 32.4175 11.1427 33.6125 13.75H31.25C31.25 13.4185 31.1183 13.1005 30.8839 12.8661C30.6495 12.6317 30.3315 12.5 30 12.5H10C9.66849 12.5 9.35054 12.6317 9.11612 12.8661C8.8817 13.1005 8.75001 13.4185 8.75001 13.75H6.38751C7.58254 11.1427 9.49999 8.93275 11.9126 7.38193C14.3253 5.83111 17.1319 5.00447 20 5ZM20 35C16.0218 35 12.2065 33.4196 9.39341 30.6066C6.58036 27.7936 5.00001 23.9782 5.00001 20C5.00584 18.7338 5.17388 17.4735 5.50001 16.25H8.75001V18.75C8.75001 19.413 9.0134 20.0489 9.48224 20.5178C9.95108 20.9866 10.587 21.25 11.25 21.25H15.3875C15.9849 21.2582 16.5655 21.0521 17.0241 20.6692C17.4827 20.2863 17.789 19.7518 17.8875 19.1625L18.5375 15H21.4625L22.15 19.1625C22.2485 19.7518 22.5548 20.2863 23.0134 20.6692C23.472 21.0521 24.0526 21.2582 24.65 21.25H28.75C29.413 21.25 30.0489 20.9866 30.5178 20.5178C30.9866 20.0489 31.25 19.413 31.25 18.75V16.25H34.5C34.8261 17.4735 34.9942 18.7338 35 20C35 23.9782 33.4197 27.7936 30.6066 30.6066C27.7936 33.4196 23.9783 35 20 35Z" fill="#42695A"/>
</g>
<defs>
<clipPath id="clip0_325_47">
<rect width="40" height="40" fill="white"/>
</clipPath>
</defs>
</svg>
