<svg width="35" height="42" viewBox="0 0 35 42" fill="none" xmlns="http://www.w3.org/2000/svg">
<rect x="0.5" y="0.5" width="33" height="41" rx="2.5" fill="#5BC8AC" stroke="#5BC8AC"/>
<rect x="5" y="37" width="30" height="3" rx="1" fill="white"/>
<mask id="path-3-inside-1_502_268" fill="white">
<rect width="6" height="40" rx="1"/>
</mask>
<rect width="6" height="40" rx="1" fill="#5BC8AC" stroke="white" stroke-width="4" mask="url(#path-3-inside-1_502_268)"/>
<path d="M17.8667 15.7847C19.1333 12.6839 23.5333 7.41255 31 11.1335C29.9111 15.0095 25.76 21.3662 17.8667 15.7847C11.4133 19.5057 8.6 13.2376 8 9.63849C14.72 7.11354 17.3778 12.6839 17.8667 15.7847Z" fill="white"/>
<path d="M20.2041 32C18.4707 28.4285 16 19.1735 17.8667 15.7847M17.8667 15.7847C19.1333 12.6839 23.5333 7.41255 31 11.1335C29.9111 15.0095 25.76 21.3662 17.8667 15.7847ZM17.8667 15.7847C17.3778 12.6839 14.72 7.11354 8 9.63849C8.6 13.2376 11.4133 19.5057 17.8667 15.7847Z" stroke="white" stroke-width="3"/>
</svg>
