<svg width="40" height="40" viewBox="0 0 40 40" fill="none" xmlns="http://www.w3.org/2000/svg">
<g clip-path="url(#clip0_325_29)">
<path d="M20 2.5C16.5388 2.5 13.1554 3.52636 10.2775 5.44928C7.39967 7.37221 5.15665 10.1053 3.83212 13.303C2.50758 16.5007 2.16102 20.0194 2.83627 23.4141C3.51151 26.8087 5.17822 29.9269 7.62564 32.3744C10.0731 34.8218 13.1913 36.4885 16.5859 37.1637C19.9806 37.839 23.4993 37.4924 26.697 36.1679C29.8947 34.8434 32.6278 32.6003 34.5507 29.7225C36.4737 26.8446 37.5 23.4612 37.5 20C37.5 15.3587 35.6563 10.9075 32.3744 7.62563C29.0925 4.34374 24.6413 2.5 20 2.5ZM20 35C17.0333 35 14.1332 34.1203 11.6665 32.472C9.19972 30.8238 7.27713 28.4811 6.14181 25.7403C5.0065 22.9994 4.70945 19.9834 5.28823 17.0736C5.86701 14.1639 7.29562 11.4912 9.39341 9.3934C11.4912 7.29561 14.1639 5.867 17.0737 5.28822C19.9834 4.70944 22.9994 5.00649 25.7403 6.14181C28.4811 7.27712 30.8238 9.19971 32.472 11.6664C34.1203 14.1332 35 17.0333 35 20C35 23.9782 33.4197 27.7936 30.6066 30.6066C27.7936 33.4196 23.9783 35 20 35Z" fill="#42695A"/>
<path d="M14.375 13.75C13.7569 13.75 13.1527 13.9333 12.6388 14.2767C12.1249 14.62 11.7244 15.1081 11.4879 15.6791C11.2514 16.2501 11.1895 16.8785 11.31 17.4847C11.4306 18.0908 11.7283 18.6477 12.1653 19.0847C12.6023 19.5217 13.1592 19.8194 13.7653 19.94C14.3715 20.0605 14.9999 19.9986 15.5709 19.7621C16.1419 19.5256 16.63 19.1251 16.9733 18.6112C17.3167 18.0973 17.5 17.4931 17.5 16.875C17.5 16.0462 17.1708 15.2513 16.5847 14.6653C15.9987 14.0792 15.2038 13.75 14.375 13.75Z" fill="#42695A"/>
<path d="M25.625 13.75C25.0069 13.75 24.4027 13.9333 23.8888 14.2767C23.3749 14.62 22.9744 15.1081 22.7379 15.6791C22.5014 16.2501 22.4395 16.8785 22.56 17.4847C22.6806 18.0908 22.9783 18.6477 23.4153 19.0847C23.8523 19.5217 24.4092 19.8194 25.0153 19.94C25.6215 20.0605 26.2499 19.9986 26.8209 19.7621C27.3919 19.5256 27.88 19.1251 28.2233 18.6112C28.5667 18.0973 28.75 17.4931 28.75 16.875C28.75 16.0462 28.4208 15.2513 27.8347 14.6653C27.2487 14.0792 26.4538 13.75 25.625 13.75Z" fill="#42695A"/>
<path d="M20 23.75C18.2745 23.7529 16.5792 24.2022 15.0788 25.0543C13.5784 25.9064 12.324 27.1322 11.4375 28.6125L13.575 29.8625C14.2421 28.7547 15.1842 27.8383 16.31 27.2021C17.4358 26.5659 18.7069 26.2315 20 26.2315C21.2931 26.2315 22.5642 26.5659 23.69 27.2021C24.8158 27.8383 25.7579 28.7547 26.425 29.8625L28.5625 28.6125C27.676 27.1322 26.4216 25.9064 24.9212 25.0543C23.4208 24.2022 21.7255 23.7529 20 23.75Z" fill="#42695A"/>
</g>
<defs>
<clipPath id="clip0_325_29">
<rect width="40" height="40" fill="white"/>
</clipPath>
</defs>
</svg>
