<svg width="45" height="46" viewBox="0 0 45 46" fill="none" xmlns="http://www.w3.org/2000/svg">
<path d="M43.5 23C43.5 34.9054 34.0671 44.5 22.5 44.5C10.9329 44.5 1.5 34.9054 1.5 23C1.5 11.0946 10.9329 1.5 22.5 1.5C34.0671 1.5 43.5 11.0946 43.5 23Z" fill="#F18D9E" stroke="white" stroke-width="3"/>
<path d="M37.6563 26.1929C38.294 25.5655 38.7301 24.7621 38.9091 23.8854C39.088 23.0088 39.0016 22.0987 38.6609 21.2714C38.3202 20.4441 37.7407 19.7372 36.9964 19.241C36.2521 18.7448 35.3767 18.4818 34.4823 18.4856C34.2903 18.4856 34.069 18.495 33.8204 18.5143C34.0037 18.3569 34.169 18.2063 34.309 18.0669C34.9381 17.4352 35.3665 16.6314 35.5403 15.7568C35.7141 14.8822 35.6255 13.9756 35.2856 13.1512C34.9458 12.3268 34.3698 11.6213 33.6302 11.1234C32.8906 10.6256 32.0204 10.3575 31.1289 10.3529H31.1122C30.5192 10.3533 29.9321 10.4714 29.385 10.7003C28.8378 10.9291 28.3415 11.2643 27.9248 11.6864C27.7842 11.8271 27.6335 11.9924 27.4769 12.1751C27.4962 11.9251 27.5062 11.7037 27.5062 11.513C27.5062 10.3161 27.0309 9.1682 26.1847 8.32184C25.3386 7.47548 24.191 7 22.9944 7C21.7978 7 20.6502 7.47548 19.804 8.32184C18.9579 9.1682 18.4825 10.3161 18.4825 11.513C18.4825 11.7044 18.4925 11.9257 18.5119 12.1751C18.3546 11.9924 18.2039 11.8271 18.064 11.6864C17.6472 11.2643 17.1509 10.9291 16.6038 10.7003C16.0567 10.4714 15.4696 10.3533 14.8765 10.3529H14.8652C13.9751 10.36 13.1069 10.6295 12.3691 11.1277C11.6314 11.6259 11.0568 12.3306 10.7174 13.1537C10.378 13.9768 10.2888 14.8817 10.4609 15.7553C10.633 16.6288 11.0589 17.4322 11.6851 18.0649C11.8251 18.2043 11.9904 18.3549 12.1744 18.513C11.9251 18.4936 11.7038 18.4836 11.5118 18.4836C10.3152 18.4836 9.16762 18.9591 8.32149 19.8055C7.47535 20.6518 7 21.7997 7 22.9967C7 24.1936 7.47535 25.3415 8.32149 26.1879C9.16762 27.0342 10.3152 27.5097 11.5118 27.5097C11.7025 27.5097 11.9238 27.4997 12.1737 27.4804C11.9911 27.6371 11.8258 27.7877 11.6851 27.9284C11.0528 28.5581 10.6218 29.3615 10.4468 30.2367C10.2718 31.1119 10.3607 32.0193 10.7022 32.8439C11.0438 33.6684 11.6225 34.3729 12.365 34.8678C13.1075 35.3627 13.9803 35.6258 14.8725 35.6237H14.8892C15.4786 35.6246 16.0624 35.5094 16.6072 35.2846C17.1521 35.0598 17.6473 34.7299 18.0646 34.3136C18.2039 34.1736 18.3546 34.0082 18.5119 33.8249C18.4932 34.0736 18.4832 34.2949 18.4832 34.487C18.4832 35.6839 18.9586 36.8318 19.8047 37.6782C20.6508 38.5245 21.7984 39 22.995 39C24.1917 39 25.3393 38.5245 26.1854 37.6782C27.0315 36.8318 27.5069 35.6839 27.5069 34.487C27.5069 34.2956 27.4969 34.0743 27.4776 33.8242C27.6349 34.0076 27.7855 34.1736 27.9255 34.3136C28.3429 34.7305 28.8384 35.0609 29.3836 35.2861C29.9288 35.5112 30.513 35.6266 31.1029 35.6257H31.1196C32.0123 35.6294 32.886 35.3674 33.6294 34.873C34.3728 34.3786 34.9524 33.6741 35.2943 32.8493C35.6363 32.0244 35.7252 31.1164 35.5497 30.2408C35.3743 29.3653 34.9424 28.5617 34.309 27.9324C34.1683 27.7917 34.003 27.6411 33.8204 27.4844C34.0703 27.5037 34.2916 27.5137 34.4823 27.5137C35.0722 27.5132 35.6562 27.3963 36.2009 27.1697C36.7455 26.943 37.2401 26.6111 37.6563 26.1929ZM22.997 28.6658C21.8765 28.6658 20.7811 28.3334 19.8494 27.7107C18.9177 27.088 18.1915 26.2029 17.7627 25.1674C17.3339 24.1319 17.2217 22.9924 17.4403 21.8931C17.6589 20.7937 18.1985 19.784 18.9908 18.9914C19.7832 18.1988 20.7927 17.6591 21.8917 17.4404C22.9908 17.2218 24.1299 17.334 25.1652 17.7629C26.2004 18.1918 27.0853 18.9182 27.7078 19.8502C28.3304 20.7821 28.6627 21.8778 28.6627 22.9987C28.6609 24.5011 28.0634 25.9416 27.0013 27.004C25.9392 28.0664 24.4991 28.664 22.997 28.6658Z" fill="white"/>
</svg>
