<svg width="28" height="27" viewBox="0 0 28 27" fill="none" xmlns="http://www.w3.org/2000/svg">
<path d="M24.7183 6.2554C23.2942 5.50778 21.6335 5.34741 20.0924 5.80869C20.0173 4.24306 19.3419 2.76635 18.206 1.68483C17.0702 0.603321 15.5613 0 13.9921 0C12.4229 0 10.9139 0.603321 9.77808 1.68483C8.64227 2.76635 7.9668 4.24306 7.89176 5.80869C6.35485 5.34636 4.69887 5.49128 3.26586 6.21352C2.21057 6.76757 1.34069 7.61802 0.763493 8.65999C0.186301 9.70197 -0.0729608 10.8899 0.0176803 12.0773C0.108321 13.2647 0.544901 14.3996 1.27358 15.3422C2.00226 16.2847 2.99118 16.9935 4.11837 17.3814C3.39889 18.404 3.00885 19.6215 3.00033 20.8713C3.00654 21.2223 3.03924 21.5722 3.09816 21.9183C3.33351 23.336 4.06569 24.6239 5.16394 25.5522C6.26219 26.4804 7.655 26.9885 9.09365 26.9857C9.39149 27.0048 9.69024 27.0048 9.98808 26.9857C11.5855 26.7343 13.0206 25.8672 13.9851 24.5706C14.9596 25.8463 16.3933 26.6925 17.9821 26.9299C18.2799 26.9489 18.5787 26.9489 18.8765 26.9299C19.992 26.9286 21.0856 26.6215 22.0384 26.042C22.9911 25.4625 23.7663 24.633 24.2795 23.6437C24.7928 22.6545 25.0243 21.5434 24.9488 20.4318C24.8734 19.3202 24.4939 18.2505 23.8518 17.3395C24.9845 16.9584 25.98 16.2529 26.7143 15.3109C27.4486 14.369 27.8894 13.2321 27.9818 12.0417C28.0741 10.8514 27.814 9.66025 27.2337 8.6165C26.6534 7.57276 25.7786 6.72253 24.7183 6.17164V6.2554ZM11.6651 3.5472C12.2895 2.94994 13.1206 2.61653 13.9851 2.61653C14.8496 2.61653 15.6807 2.94994 16.305 3.5472C16.7817 4.02405 17.1054 4.63191 17.2348 5.29325C17.3642 5.95459 17.2935 6.63946 17.0317 7.26051L16.6684 8.08413L15.746 8.8938C15.1793 8.69775 14.5847 8.59405 13.9851 8.58669C13.2102 8.58743 12.444 8.74906 11.735 9.06132L10.9524 7.26051C10.6812 6.6422 10.6041 5.95625 10.7313 5.29327C10.8586 4.63029 11.1842 4.02146 11.6651 3.5472ZM3.14009 13.0957C2.82809 12.4099 2.75971 11.6384 2.94623 10.9085C3.13275 10.1787 3.56301 9.53429 4.1659 9.08182C4.76878 8.62935 5.50818 8.39592 6.26189 8.42012C7.01559 8.44431 7.73847 8.72468 8.31102 9.21488L8.99582 9.81515L9.48496 10.9319C8.78485 11.8676 8.40286 13.0025 8.39487 14.1706C8.37913 14.3797 8.37913 14.5897 8.39487 14.7988H7.62622L6.45228 14.9105C5.78082 14.9812 5.10375 14.8454 4.51177 14.521C3.91979 14.1967 3.44119 13.6993 3.14009 13.0957ZM12.3639 21.5833C12.1957 22.3285 11.7755 22.993 11.1741 23.465C10.5727 23.9369 9.82682 24.1874 9.06213 24.1743C8.29745 24.1612 7.56065 23.8853 6.97582 23.393C6.39099 22.9007 5.99387 22.2221 5.85133 21.4716C5.83762 21.2764 5.83762 21.0805 5.85133 20.8853C5.8564 20.3179 6.00998 19.7616 6.29682 19.2719C6.58366 18.7821 6.99379 18.3758 7.48647 18.0933L8.19922 17.5908L9.47099 17.4512C10.2726 18.565 11.4566 19.3452 12.7972 19.6428L12.3639 21.5833ZM13.9851 16.9626C13.4323 16.9626 12.8919 16.7988 12.4322 16.492C11.9725 16.1852 11.6143 15.7492 11.4027 15.239C11.1912 14.7289 11.1358 14.1675 11.2437 13.6259C11.3515 13.0843 11.6177 12.5869 12.0086 12.1964C12.3995 11.8059 12.8976 11.54 13.4398 11.4323C13.982 11.3246 14.544 11.3799 15.0547 11.5912C15.5655 11.8025 16.002 12.1603 16.3091 12.6195C16.6162 13.0786 16.7802 13.6184 16.7802 14.1706C16.7802 14.9111 16.4857 15.6212 15.9615 16.1448C15.4373 16.6684 14.7264 16.9626 13.9851 16.9626ZM22.1188 21.4576C21.9746 22.3094 21.5013 23.0705 20.8007 23.5771C20.1002 24.0836 19.2285 24.295 18.3734 24.1658C17.6996 24.071 17.0709 23.7728 16.5714 23.3113C16.0718 22.8498 15.7254 22.2469 15.5783 21.5833L15.3826 20.7457L15.6761 19.4614C16.9654 19.0419 18.0581 18.1688 18.7507 17.0044L19.4495 17.4232H19.5753L20.4977 17.9677C21.0969 18.3095 21.5749 18.8291 21.8654 19.4544C22.1559 20.0797 22.2444 20.7798 22.1188 21.4576ZM24.8301 13.0817C24.5552 13.6366 24.1312 14.1041 23.6055 14.432C23.0797 14.7599 22.4731 14.9353 21.8533 14.9384H21.5179L20.6234 14.7988L19.5753 14.2264C19.5733 12.8691 19.0765 11.559 18.1777 10.5411L18.7787 10.0245L19.6591 9.21488C20.2333 8.70498 20.9671 8.41034 21.7348 8.38138C22.5026 8.35243 23.2565 8.59097 23.8676 9.05616C24.4786 9.52135 24.9088 10.1843 25.0844 10.9314C25.2599 11.6785 25.17 12.4633 24.8301 13.1515V13.0817Z" fill="black"/>
</svg>
