<svg width="25" height="23" viewBox="0 0 30 28" fill="none" xmlns="http://www.w3.org/2000/svg">
<path d="M15 19.7901C15.5661 20.1835 16.0607 20.635 16.4444 21.06C18.4667 19.3663 20.6574 21.06 21.5 22.1186C26.1222 20.4248 27.7593 24.0005 28 26H2C2.57778 21.7657 6.09259 21.6481 7.77778 22.1186C9.82519 17.6727 12.9027 18.3325 15 19.7901ZM15 19.7901V10.1213M15 8.35699C16.2037 5.18126 20.2722 -0.323339 26.9167 3.06411C26.9167 6.23983 24.5333 12.0973 15 10.1213M15 8.35699V10.1213M15 8.35699C14.037 5.29889 10.3056 -0.0410374 3.08333 3.06411C3.56481 6.29594 6.62222 12.2319 15 10.1213" stroke="#55C53F" stroke-width="3"/>
</svg>
