<svg width="34" height="34" viewBox="0 0 34 34" fill="none" xmlns="http://www.w3.org/2000/svg">
<path d="M0 9C0 4.02944 4.02944 0 9 0H25C29.9706 0 34 4.02944 34 9V25C34 29.9706 29.9706 34 25 34H9C4.02944 34 0 29.9706 0 25V9Z" fill="#94C989"/>
<path d="M17 22.7901C17.5661 23.1835 18.0607 23.635 18.4444 24.06C20.4667 22.3663 22.6574 24.06 23.5 25.1186C28.1222 23.4248 29.7593 27.0005 30 29H4C4.57778 24.7657 8.09259 24.6481 9.77778 25.1186C11.8252 20.6727 14.9027 21.3325 17 22.7901ZM17 22.7901V13.1213M17 11.357C18.2037 8.18126 22.2722 2.67666 28.9167 6.06411C28.9167 9.23983 26.5333 15.0973 17 13.1213M17 11.357V13.1213M17 11.357C16.037 8.29889 12.3056 2.95896 5.08333 6.06411C5.56481 9.29594 8.62222 15.2319 17 13.1213" stroke="white" stroke-width="3"/>
</svg>
