<svg width="72" height="71" viewBox="0 0 72 71" fill="none" xmlns="http://www.w3.org/2000/svg">
<g clip-path="url(#clip0_511_182)">
<path d="M36.9655 40.21C34.3343 40.8669 31.6687 39.2664 31.0118 36.6351C30.3549 34.0038 31.9555 31.3382 34.5867 30.6813C37.218 30.0245 39.8836 31.625 40.5405 34.2563C41.1974 36.8876 39.5968 39.5531 36.9655 40.21Z" fill="#F18D9E"/>
<path d="M12.7334 46.8373C11.4131 46.0591 10.3548 44.905 9.6937 43.5224C9.03256 42.1399 8.7986 40.5916 9.02172 39.0754C9.24484 37.5592 9.9149 36.1439 10.9463 35.0104C11.9777 33.8769 13.3236 33.0766 14.8121 32.7118C15.1312 32.6321 15.5029 32.5558 15.9242 32.4847C15.5542 32.2993 15.2169 32.1175 14.9264 31.944C13.6185 31.1552 12.5729 29.9973 11.9212 28.6159C11.2694 27.2346 11.0406 25.6913 11.2636 24.1802C11.4865 22.6692 12.1512 21.2578 13.174 20.1234C14.1969 18.9891 15.5323 18.1824 17.0123 17.8049L17.04 17.798C18.026 17.5525 19.0509 17.5051 20.0553 17.6584C21.0598 17.8117 22.0238 18.1628 22.8916 18.6913C23.1838 18.8667 23.5028 19.0789 23.839 19.3175C23.7031 18.9101 23.5946 18.5464 23.5155 18.2295C23.019 16.2404 23.3329 14.1354 24.3883 12.3778C25.4437 10.6202 27.154 9.35374 29.1431 8.85716C31.1323 8.36059 33.2372 8.67452 34.9948 9.7299C36.7525 10.7853 38.0189 12.4957 38.5155 14.4848C38.5948 14.8028 38.6701 15.1748 38.7414 15.5972C38.9271 15.2283 39.1089 14.891 39.2832 14.5992C39.8008 13.7248 40.4867 12.9618 41.3013 12.3544C42.1158 11.747 43.0427 11.3072 44.0284 11.0604L44.0472 11.0557C45.5298 10.6982 47.0848 10.7857 48.5179 11.3074C49.9509 11.8291 51.1983 12.7618 52.104 13.9888C53.0097 15.2158 53.5334 16.6827 53.6097 18.2058C53.686 19.7289 53.3114 21.2408 52.5329 22.5521C52.3581 22.8418 52.1458 23.1608 51.9055 23.4997C52.3119 23.3642 52.6756 23.2557 52.9947 23.176C54.9838 22.6795 57.0887 22.9934 58.8464 24.0488C60.604 25.1042 61.8704 26.8145 62.367 28.8037C62.8636 30.7928 62.5497 32.8977 61.4943 34.6553C60.4389 36.413 58.7285 37.6794 56.7394 38.176C56.4225 38.2551 56.0505 38.3303 55.627 38.4019C55.9956 38.5865 56.3329 38.7683 56.625 38.9437C57.9374 39.7278 58.9872 40.8841 59.6411 42.2659C60.2951 43.6476 60.5238 45.1925 60.2982 46.7045C60.0725 48.2165 59.4028 49.6274 58.3739 50.758C57.3449 51.8886 56.0033 52.6881 54.5192 53.0548L54.4915 53.0617C53.5122 53.3078 52.494 53.3586 51.495 53.2112C50.4961 53.0637 49.536 52.7209 48.6695 52.2023C48.3799 52.0274 48.0609 51.8152 47.7233 51.5757C47.8575 51.9813 47.966 52.345 48.0456 52.6641C48.5422 54.6532 48.2283 56.7581 47.1729 58.5157C46.1175 60.2734 44.4071 61.5398 42.418 62.0364C40.4289 62.533 38.324 62.219 36.5663 61.1636C34.8087 60.1083 33.5423 58.3979 33.0457 56.4088C32.9663 56.0908 32.8911 55.7188 32.8195 55.2953C32.6341 55.6652 32.4526 56.0036 32.278 56.2944C31.7571 57.1604 31.0705 57.9152 30.2576 58.5156C29.4447 59.116 28.5214 59.5503 27.5406 59.7935L27.5129 59.8004C26.0304 60.1771 24.4694 60.1042 23.0285 59.5911C21.5876 59.0779 20.332 58.1477 19.4213 56.9188C18.5106 55.69 17.9861 54.2179 17.9146 52.69C17.843 51.1622 18.2276 49.6476 19.0194 48.3389C19.1948 48.0468 19.4071 47.7278 19.6457 47.3916C19.2382 47.5274 18.8745 47.6359 18.5576 47.715C17.5768 47.959 16.5575 48.0071 15.558 47.8565C14.5586 47.7059 13.5987 47.3595 12.7334 46.8373ZM38.1273 44.8634C39.99 44.3984 41.6729 43.3915 42.9634 41.97C44.2538 40.5485 45.0937 38.7763 45.3769 36.8774C45.6601 34.9786 45.3739 33.0384 44.5544 31.3022C43.7349 29.566 42.419 28.1119 40.7731 27.1236C39.1272 26.1353 37.2251 25.6572 35.3075 25.7499C33.3899 25.8426 31.5428 26.5018 29.9999 27.6443C28.457 28.7867 27.2874 30.361 26.6392 32.1681C25.991 33.9753 25.8932 35.934 26.3583 37.7967C26.9845 40.2928 28.5753 42.4387 30.7816 43.7634C32.988 45.0882 35.6297 45.4838 38.1273 44.8634Z" fill="#5BC8AC"/>
</g>
<defs>
<clipPath id="clip0_511_182">
<rect width="58.47" height="58.47" fill="white" transform="matrix(-0.970223 0.242214 0.242214 0.970223 57.0595 0)"/>
</clipPath>
</defs>
</svg>
