<svg width="24" height="27" viewBox="0 0 24 27" fill="none" xmlns="http://www.w3.org/2000/svg">
<path d="M16 0C16.3398 0.000376943 16.6667 0.130506 16.9138 0.363798C17.1609 0.59709 17.3096 0.915937 17.3296 1.25519C17.3495 1.59445 17.2391 1.92851 17.021 2.18911C16.8029 2.44971 16.4935 2.6172 16.156 2.65733L16 2.66667C15.076 2.66667 14.2267 3.592 13.7453 4.736C14.5679 4.31739 15.467 4.0706 16.388 4.01067L16.7413 4C20.7173 4 24 8.07067 24 12.4267C24 17.156 23.192 20.2427 20.7693 23.864C18.5133 26.8653 15.3133 27.5347 12.2227 25.5093C12.1599 25.4693 12.0876 25.4469 12.0132 25.4445C11.9388 25.4422 11.8651 25.46 11.8 25.496C8.68667 27.5333 5.48667 26.8653 3.18667 23.8027C0.809333 20.2453 0 17.1573 0 12.4267L0.00533326 12.1307C0.149333 7.88933 3.37333 4 7.25867 4C8.512 4 9.728 4.388 10.8427 5.056C11.4013 2.456 13.2667 0 16 0ZM6.62133 8.20533C4.808 9.34933 4 10.952 4 13.3333C4 13.687 4.14048 14.0261 4.39052 14.2761C4.64057 14.5262 4.97971 14.6667 5.33333 14.6667C5.68696 14.6667 6.02609 14.5262 6.27614 14.2761C6.52619 14.0261 6.66667 13.687 6.66667 13.3333C6.66667 11.8333 7.04 11.096 8.04533 10.4613C8.3445 10.2725 8.55639 9.97256 8.63441 9.62749C8.71243 9.28242 8.65017 8.9205 8.46133 8.62133C8.2725 8.32217 7.97256 8.11027 7.62749 8.03226C7.28242 7.95424 6.9205 8.0165 6.62133 8.20533Z" fill="black"/>
</svg>
