<svg width="39" height="33" viewBox="0 0 39 33" fill="none" xmlns="http://www.w3.org/2000/svg">
<path d="M4.78062 29.2232V15.2961L2.9417 16.7597C2.51261 17.0744 2.05288 17.2003 1.5625 17.1373C1.07212 17.0744 0.673686 16.8226 0.367198 16.382C0.0607101 15.9413 -0.0539164 15.4692 0.0233185 14.9657C0.100553 14.4621 0.337775 14.0529 0.734983 13.7382L17.2394 0.755365C17.5765 0.503576 17.9369 0.314735 18.3207 0.188841C18.7044 0.0629469 19.0948 0 19.492 0C19.8893 0 20.2803 0.0629469 20.6653 0.188841C21.0502 0.314735 21.41 0.503576 21.7447 0.755365L38.2951 13.7382C38.6935 14.0529 38.9234 14.4621 38.9847 14.9657C39.046 15.4692 38.9234 15.9413 38.6169 16.382C38.3104 16.7911 37.912 17.0272 37.4216 17.0901C36.9312 17.1531 36.4868 17.0272 36.0884 16.7124L34.2035 15.2961V29.2232C34.2035 30.2618 33.8436 31.1512 33.124 31.8915C32.4044 32.6318 31.5382 33.0013 30.5256 33H8.45848C7.44707 33 6.58155 32.6305 5.86191 31.8915C5.14228 31.1525 4.78185 30.2631 4.78062 29.2232ZM12.1363 21.6695C12.6574 21.6695 13.0944 21.4882 13.4475 21.1257C13.8006 20.7631 13.9765 20.3149 13.9753 19.7811C13.974 19.2473 13.7975 18.7991 13.4457 18.4366C13.0938 18.074 12.6574 17.8927 12.1363 17.8927C11.6153 17.8927 11.1789 18.074 10.827 18.4366C10.4752 18.7991 10.2986 19.2473 10.2974 19.7811C10.2962 20.3149 10.4727 20.7637 10.827 21.1276C11.1813 21.4914 11.6178 21.672 12.1363 21.6695ZM19.492 21.6695C20.0131 21.6695 20.4501 21.4882 20.8032 21.1257C21.1563 20.7631 21.3322 20.3149 21.331 19.7811C21.3297 19.2473 21.1532 18.7991 20.8014 18.4366C20.4495 18.074 20.0131 17.8927 19.492 17.8927C18.971 17.8927 18.5346 18.074 18.1827 18.4366C17.8309 18.7991 17.6543 19.2473 17.6531 19.7811C17.6519 20.3149 17.8284 20.7637 18.1827 21.1276C18.537 21.4914 18.9735 21.672 19.492 21.6695ZM26.8478 21.6695C27.3688 21.6695 27.8058 21.4882 28.1589 21.1257C28.512 20.7631 28.6879 20.3149 28.6867 19.7811C28.6855 19.2473 28.5089 18.7991 28.1571 18.4366C27.8052 18.074 27.3688 17.8927 26.8478 17.8927C26.3267 17.8927 25.8903 18.074 25.5384 18.4366C25.1866 18.7991 25.0101 19.2473 25.0088 19.7811C25.0076 20.3149 25.1841 20.7637 25.5384 21.1276C25.8927 21.4914 26.3292 21.672 26.8478 21.6695Z" fill="#6FCFB7"/>
</svg>
