<svg width="52" height="60" viewBox="0 0 52 60" fill="none" xmlns="http://www.w3.org/2000/svg">
<path d="M19.1439 11.4155C19.8547 12.2671 20.7103 13.3255 21.6396 14.5421L21.6406 14.5433C23.4317 16.8805 25.4626 19.76 27.2442 22.8295H11.0439C12.8236 19.7606 14.8565 16.8811 16.6453 14.5431L19.1439 11.4155ZM19.1439 11.4155C18.4337 12.2677 17.5773 13.3264 16.6454 14.543L19.1439 11.4155ZM25.9293 11.1702C24.5987 9.43637 23.2137 7.74683 21.7765 6.10416L21.7899 6.09126L21.1526 5.40045L21.033 5.25802L20.9942 5.23823C20.7695 5.02588 20.51 4.85289 20.226 4.72769C19.8847 4.57721 19.516 4.49926 19.1429 4.49926C18.7697 4.49926 18.401 4.57721 18.0597 4.72769C17.7236 4.87588 17.4217 5.09103 17.1713 5.35915L17.1469 5.38405L17.1222 5.41345L17.1191 5.41712L17.0623 5.47776L17.0536 5.487L17.0452 5.49645L16.7709 5.80445L16.7709 5.80444L16.7675 5.80826C15.2377 7.54384 13.7664 9.33223 12.3563 11.1703L12.356 11.1707C9.6991 14.6377 6.41111 19.3994 4.06714 24.399L4.06708 24.3991C2.32857 28.1086 1 32.1762 1 36.0655C1 46.6245 8.95792 55.5 19.1429 55.5C29.3278 55.5 37.2857 46.6245 37.2857 36.0655C37.2857 32.1798 35.9572 28.1087 34.2186 24.3991L34.2186 24.399C31.8746 19.3994 28.5866 14.6377 25.9297 11.1707L25.9293 11.1702ZM41.4286 1C40.702 1 40.0094 1.29485 39.502 1.81278C38.9953 2.33002 38.7143 3.02723 38.7143 3.75C38.7143 4.47277 38.9953 5.16998 39.502 5.68722C40.0094 6.20515 40.702 6.5 41.4286 6.5H45.5714V14.125H44.8571C44.1305 14.125 43.438 14.4198 42.9306 14.9378C42.4239 15.455 42.1429 16.1522 42.1429 16.875C42.1429 17.5978 42.4239 18.295 42.9306 18.8122C43.438 19.3301 44.1305 19.625 44.8571 19.625H45.5714V27.25H41.4286C40.702 27.25 40.0094 27.5448 39.502 28.0628C38.9953 28.58 38.7143 29.2772 38.7143 30C38.7143 30.7228 38.9953 31.42 39.502 31.9372C40.0094 32.4552 40.702 32.75 41.4286 32.75H45.5714V40.375H44.8571C44.1306 40.375 43.438 40.6698 42.9306 41.1878C42.4239 41.705 42.1429 42.4022 42.1429 43.125C42.1429 43.8478 42.4239 44.545 42.9306 45.0622C43.438 45.5802 44.1305 45.875 44.8571 45.875H45.5714V53.5H41.4286C40.702 53.5 40.0094 53.7948 39.502 54.3128C38.9953 54.83 38.7143 55.5272 38.7143 56.25C38.7143 56.9728 38.9953 57.67 39.502 58.1872C40.0094 58.7052 40.702 59 41.4286 59H48.2857C49.0123 59 49.7049 58.7052 50.2123 58.1872C50.7189 57.67 51 56.9728 51 56.25V3.75C51 3.02724 50.7189 2.33002 50.2123 1.81278C49.7049 1.29485 49.0123 1 48.2857 1L41.4286 1ZM6.42857 36.0655C6.42857 33.779 7.10876 31.138 8.27673 28.3295H30.0096C31.1796 31.1371 31.8571 33.7784 31.8571 36.0655C31.8571 43.9303 26.0014 50 19.1429 50C12.2843 50 6.42857 43.9303 6.42857 36.0655Z" fill="#5BC8AC" stroke="white" stroke-width="2"/>
</svg>
