<svg width="45" height="46" viewBox="0 0 45 46" fill="none" xmlns="http://www.w3.org/2000/svg">
<path d="M43.5 23C43.5 34.9054 34.0671 44.5 22.5 44.5C10.9329 44.5 1.5 34.9054 1.5 23C1.5 11.0946 10.9329 1.5 22.5 1.5C34.0671 1.5 43.5 11.0946 43.5 23Z" fill="#5BC8AC" stroke="white" stroke-width="3"/>
<path d="M27.8591 30.8647C27.62 30.7859 26.1083 30.0993 27.0529 27.2056H27.0394C29.5016 24.65 31.3832 20.5376 31.3832 16.4889C31.3832 10.2635 27.2755 7 22.5015 7C17.7245 7 13.6393 10.262 13.6393 16.4889C13.6393 20.5543 15.5104 24.6833 17.9877 27.2329C18.9533 29.7855 17.2266 30.7329 16.8656 30.8647C11.866 32.6883 6.5 34.2213 6.5 37.5L7.5 40C7.5 40.9826 14 44 22.5 46C30 44.1083 38.5 42.009 38.5 37.5419C38.5 34.1647 33.1054 32.6155 27.8591 30.8647ZM19.5625 44.0658C19.5625 40.2021 22.0036 34.9862 22.0036 34.9862L20.3145 33.6508C20.3145 32.3745 22.5 31.0391 22.5 31.0391C22.5 31.0391 24.6794 32.3957 24.6794 33.6508L22.9964 34.9862C22.9964 34.9862 25.4375 40.1824 25.4375 44.1083C25.4375 44.7237 19.5625 44.5812 19.5625 44.0658Z" fill="white"/>
</svg>
