<svg width="58" height="59" viewBox="0 0 58 59" fill="none" xmlns="http://www.w3.org/2000/svg">
<path d="M35.6366 40.5658L35.6348 40.5686C34.4989 42.3026 33.8612 44.3229 33.7914 46.4028C33.7217 48.4827 34.2226 50.5422 35.2393 52.3505C36.2562 54.1588 37.7494 55.6453 39.5534 56.641C41.3457 57.6303 43.3734 58.0954 45.411 57.9838C48.4149 58.0393 51.3162 56.8856 53.4849 54.7782C55.6628 52.6619 56.9246 49.7567 56.9997 46.7004L57.0003 46.6754L56.9997 46.6505C56.9428 44.4052 56.2568 42.2219 55.0205 40.3577L48.1752 29.9971C47.8708 29.536 47.4585 29.1564 46.9731 28.8931C46.4877 28.6298 45.945 28.4915 45.3929 28.4915C44.8408 28.4915 44.298 28.6298 43.8126 28.8931C43.3272 29.1563 42.9149 29.536 42.6105 29.9971L42.6103 29.9973L35.6366 40.5658ZM40.5651 43.7629L45.3933 36.4506L50.0937 43.561L50.1001 43.5708L50.1067 43.5804C50.7368 44.4867 51.0969 45.5609 51.1421 46.6734C51.0745 48.1571 50.4377 49.5513 49.3737 50.557C48.3015 51.5705 46.8827 52.1075 45.428 52.0564L45.3638 52.0542L45.2998 52.0601C44.3221 52.1515 43.3383 51.9575 42.4631 51.4995C41.5877 51.0414 40.856 50.3375 40.3557 49.4677C39.8553 48.5978 39.6079 47.5992 39.6441 46.589C39.6802 45.5789 39.9983 44.6017 40.5591 43.7718L40.5592 43.7718L40.5651 43.7629ZM23.2124 4.92737C21.3899 4.93079 19.6279 5.51668 18.1669 6.58301C17.133 5.04062 15.7757 3.74192 14.1858 2.78443C12.2491 1.61808 10.0391 1.00133 7.7863 1H7.78571H2H1V2L0.999999 7.89106L1 7.8922C1.00387 11.275 2.32518 14.5216 4.67968 16.9189C7.03478 19.3169 10.2317 20.6692 13.5702 20.6732H13.5714H14.5V28.4916H2H1V29.4916V33.419V34.419H2H29H30V33.419V29.4916V28.4916H29H20.3571V20.6732H21.2857H21.287C23.6028 20.6702 25.8192 19.732 27.4512 18.0704C29.0825 16.4093 29.9971 14.1611 30 11.8197V11.8184V5.92737V4.92737H29L23.2143 4.92737L23.2124 4.92737ZM2 38.31H1V39.31V43.2374V44.2374H2H29H30V43.2374V39.31V38.31H29H2ZM2 48.1284H1V49.1284V53.0558V54.0558H2H29H30V53.0558V49.1284V48.1284H29H2ZM23.2143 10.8547H24.1429V11.8184C24.1429 12.6006 23.8375 13.3471 23.2997 13.8948C22.7624 14.4418 22.0376 14.7458 21.2857 14.7458H20.3571V13.7821C20.3571 13 20.6625 12.2534 21.2003 11.7057C21.7376 11.1587 22.4624 10.8547 23.2143 10.8547ZM13.5727 14.7458C13.5725 14.7458 13.5722 14.7458 13.572 14.7458C11.7977 14.7433 10.0931 14.0248 8.83288 12.7416C7.57208 11.4579 6.85957 9.71368 6.85714 7.89058V6.92737H7.78516C9.55943 6.92982 11.2641 7.64839 12.5243 8.93154C13.7851 10.2153 14.4976 11.9595 14.5 13.7826C14.5 13.7828 14.5 13.7831 14.5 13.7833L14.5 14.7458L13.5727 14.7458Z" fill="#5BC8AC" stroke="white" stroke-width="2"/>
</svg>
