<svg width="32" height="32" viewBox="0 0 32 32" fill="none" xmlns="http://www.w3.org/2000/svg">
<g clip-path="url(#clip0_533_389)">
<path d="M29 16C29 12.5522 27.6304 9.24558 25.1924 6.80761C22.7544 4.36964 19.4478 3 16 3C12.5522 3 9.24558 4.36964 6.80761 6.80761C4.36964 9.24558 3 12.5522 3 16C3 19.4478 4.36964 22.7544 6.80761 25.1924C9.24558 27.6304 12.5522 29 16 29C19.4478 29 22.7544 27.6304 25.1924 25.1924C27.6304 22.7544 29 19.4478 29 16ZM0 16C0 11.7565 1.68571 7.68687 4.68629 4.68629C7.68687 1.68571 11.7565 0 16 0C20.2435 0 24.3131 1.68571 27.3137 4.68629C30.3143 7.68687 32 11.7565 32 16C32 20.2435 30.3143 24.3131 27.3137 27.3137C24.3131 30.3143 20.2435 32 16 32C11.7565 32 7.68687 30.3143 4.68629 27.3137C1.68571 24.3131 0 20.2435 0 16ZM10.9125 24.0063C10.6313 24.7875 9.775 25.1875 8.99375 24.9062C8.2125 24.625 7.8125 23.7687 8.09375 22.9875C9.18125 19.9625 12.4312 18 16 18C19.5688 18 22.8188 19.9625 23.9125 22.9937C24.1938 23.775 23.7875 24.6313 23.0125 24.9125C22.2375 25.1938 21.375 24.7875 21.0938 24.0125C20.5125 22.4062 18.575 21 16 21C13.425 21 11.4875 22.4062 10.9125 24.0063ZM9.025 13C9.025 12.4696 9.23571 11.9609 9.61079 11.5858C9.98586 11.2107 10.4946 11 11.025 11C11.5554 11 12.0641 11.2107 12.4392 11.5858C12.8143 11.9609 13.025 12.4696 13.025 13C13.025 13.5304 12.8143 14.0391 12.4392 14.4142C12.0641 14.7893 11.5554 15 11.025 15C10.4946 15 9.98586 14.7893 9.61079 14.4142C9.23571 14.0391 9.025 13.5304 9.025 13ZM21.025 11C21.5554 11 22.0641 11.2107 22.4392 11.5858C22.8143 11.9609 23.025 12.4696 23.025 13C23.025 13.5304 22.8143 14.0391 22.4392 14.4142C22.0641 14.7893 21.5554 15 21.025 15C20.4946 15 19.9859 14.7893 19.6108 14.4142C19.2357 14.0391 19.025 13.5304 19.025 13C19.025 12.4696 19.2357 11.9609 19.6108 11.5858C19.9859 11.2107 20.4946 11 21.025 11Z" fill="#5BC8AC"/>
</g>
<defs>
<clipPath id="clip0_533_389">
<rect width="32" height="32" fill="white"/>
</clipPath>
</defs>
</svg>
