<svg width="32" height="32" viewBox="0 0 32 32" fill="none" xmlns="http://www.w3.org/2000/svg">
<path d="M29 16C29 12.5522 27.6304 9.24558 25.1924 6.80761C22.7544 4.36964 19.4478 3 16 3C12.5522 3 9.24558 4.36964 6.80761 6.80761C4.36964 9.24558 3 12.5522 3 16C3 19.4478 4.36964 22.7544 6.80761 25.1924C9.24558 27.6304 12.5522 29 16 29C19.4478 29 22.7544 27.6304 25.1924 25.1924C27.6304 22.7544 29 19.4478 29 16ZM0 16C0 11.7565 1.68571 7.68687 4.68629 4.68629C7.68687 1.68571 11.7565 0 16 0C20.2435 0 24.3131 1.68571 27.3137 4.68629C30.3143 7.68687 32 11.7565 32 16C32 20.2435 30.3143 24.3131 27.3137 27.3137C24.3131 30.3143 20.2435 32 16 32C11.7565 32 7.68687 30.3143 4.68629 27.3137C1.68571 24.3131 0 20.2435 0 16ZM11.0312 20.0187C12.2563 18.8812 13.9875 18 16 18C18.0125 18 19.7437 18.8812 20.9688 20.0187C22.1562 21.1312 23 22.625 23 24C23 24.3375 22.8312 24.65 22.55 24.8375C22.2687 25.025 21.9125 25.05 21.6 24.9188L20.525 24.45C19.1 23.825 17.5562 23.5063 16 23.5063C14.4438 23.5063 12.9 23.8313 11.475 24.45L10.4 24.9188C10.0938 25.0563 9.73125 25.025 9.45 24.8375C9.16875 24.65 9 24.3375 9 24C9 22.625 9.84375 21.1312 11.0312 20.0187ZM8.34375 9.16875L13.9625 12.1625C14.6312 12.5188 14.6312 13.4812 13.9625 13.8375L8.34375 16.8312C7.85 17.0938 7.25 16.7375 7.25 16.175C7.25 16 7.3125 15.8313 7.425 15.7L9.675 13L7.425 10.3C7.3125 10.1687 7.25 10 7.25 9.825C7.25 9.2625 7.85 8.90625 8.34375 9.16875ZM24.75 9.81875C24.75 9.99375 24.6875 10.1625 24.575 10.2937L22.325 12.9937L24.575 15.6938C24.6875 15.825 24.75 15.9938 24.75 16.1688C24.75 16.7313 24.15 17.0875 23.6562 16.825L18.0375 13.8313C17.3687 13.475 17.3687 12.5125 18.0375 12.1562L23.6562 9.1625C24.15 8.9 24.75 9.25625 24.75 9.81875Z" fill="#5BC8AC"/>
</svg>
