<svg width="30" height="30" viewBox="0 0 30 30" fill="none" xmlns="http://www.w3.org/2000/svg">
<path d="M23.3888 0.000350754C23.0365 -0.00539831 22.6866 0.0595776 22.3599 0.191431C22.0332 0.323285 21.7362 0.519335 21.4867 0.767974L20.3161 1.97441L28.0335 9.7267L29.204 8.52144C29.4564 8.26932 29.6565 7.96997 29.7931 7.64049C29.9297 7.31101 30 6.95786 30 6.60121C30 6.24456 29.9297 5.8914 29.7931 5.56192C29.6565 5.23244 29.4564 4.93309 29.204 4.68098L25.3272 0.804249C24.812 0.291814 24.1156 0.00298253 23.3888 0.000350754ZM18.9993 3.03574L17.1697 4.79097L25.2172 12.8358L27.083 11.1168L18.9993 3.03574ZM15.998 6.07113L3.34455 18.6117C3.20101 18.6856 3.07468 18.7889 2.97383 18.9149C2.87297 19.0409 2.79987 19.1868 2.75928 19.343L0.0506671 28.5229C-0.0104895 28.7212 -0.0163999 28.9324 0.0335722 29.1338C0.0835443 29.3352 0.187507 29.5191 0.334271 29.6658C0.481035 29.8126 0.665044 29.9165 0.866494 29.9664C1.06794 30.0164 1.27921 30.0105 1.47755 29.9494L10.6592 27.2428C10.8674 27.211 11.0628 27.1226 11.2241 26.9872C11.3853 26.8518 11.5062 26.6747 11.5734 26.4752L24.0466 14.1148L22.3283 12.397L9.52498 25.2324L4.3676 26.7303L3.26964 25.6338L4.84284 20.2593L17.5361 7.60637L15.998 6.07113ZM18.7781 8.88652L5.93963 21.7583L7.80429 22.1596L8.06064 23.8797L20.9365 11.0431L18.7781 8.88652Z" fill="#5BC8AC"/>
</svg>
