<svg width="45" height="45" viewBox="0 0 45 45" fill="none" xmlns="http://www.w3.org/2000/svg">
<g clip-path="url(#clip0_511_179)">
<path d="M22.8269 25.0543C21.1874 25.4636 19.5265 24.4663 19.1172 22.8268C18.7079 21.1873 19.7052 19.5264 21.3447 19.1171C22.9842 18.7078 24.6451 19.7051 25.0544 21.3446C25.4637 22.9841 24.4664 24.645 22.8269 25.0543Z" fill="#5BC8AC"/>
<path d="M7.72812 29.1838C6.90547 28.6989 6.24605 27.9798 5.8341 27.1184C5.42216 26.2569 5.27638 25.2922 5.4154 24.3474C5.55443 23.4027 5.97193 22.5209 6.61459 21.8146C7.25725 21.1083 8.09587 20.6097 9.02331 20.3823C9.22214 20.3327 9.45376 20.2851 9.71627 20.2409C9.48574 20.1253 9.27558 20.0121 9.09458 19.904C8.27959 19.4125 7.6281 18.691 7.22201 17.8303C6.81592 16.9695 6.67337 16.008 6.81227 15.0664C6.95117 14.1249 7.36532 13.2455 8.00266 12.5387C8.64 11.8319 9.47207 11.3293 10.3943 11.094L10.4115 11.0897C11.0259 10.9368 11.6645 10.9072 12.2903 11.0027C12.9162 11.0983 13.5169 11.317 14.0576 11.6463C14.2396 11.7556 14.4384 11.8879 14.6479 12.0365C14.5632 11.7826 14.4956 11.556 14.4463 11.3586C14.1369 10.1192 14.3325 8.80762 14.9901 7.71245C15.6477 6.61728 16.7135 5.82819 17.9529 5.51878C19.1923 5.20936 20.5038 5.40497 21.599 6.06257C22.6941 6.72017 23.4832 7.78589 23.7926 9.02529C23.8421 9.22342 23.889 9.45521 23.9334 9.71841C24.0491 9.48858 24.1624 9.27841 24.271 9.09655C24.5935 8.55175 25.0209 8.07635 25.5285 7.69787C26.036 7.31939 26.6135 7.04535 27.2277 6.89162L27.2394 6.88869C28.1632 6.66589 29.1321 6.72043 30.025 7.0455C30.918 7.37057 31.6952 7.95172 32.2595 8.71626C32.8238 9.48079 33.1502 10.3948 33.1977 11.3438C33.2453 12.2929 33.0119 13.2349 32.5268 14.052C32.4178 14.2325 32.2856 14.4312 32.1359 14.6424C32.3891 14.5579 32.6157 14.4904 32.8145 14.4407C34.0539 14.1313 35.3655 14.3269 36.4606 14.9845C37.5558 15.6421 38.3449 16.7078 38.6543 17.9472C38.9637 19.1866 38.7681 20.4982 38.1105 21.5933C37.4529 22.6885 36.3872 23.4776 35.1478 23.787C34.9503 23.8363 34.7186 23.8832 34.4547 23.9278C34.6843 24.0428 34.8945 24.1561 35.0765 24.2654C35.8942 24.7539 36.5483 25.4744 36.9558 26.3354C37.3633 27.1964 37.5058 28.159 37.3652 29.1011C37.2246 30.0432 36.8073 30.9223 36.1662 31.6268C35.5251 32.3312 34.6891 32.8294 33.7644 33.0579L33.7472 33.0622C33.137 33.2155 32.5025 33.2472 31.8801 33.1553C31.2577 33.0634 30.6594 32.8498 30.1195 32.5267C29.9391 32.4177 29.7403 32.2855 29.53 32.1363C29.6136 32.389 29.6812 32.6156 29.7308 32.8144C30.0402 34.0538 29.8446 35.3654 29.187 36.4605C28.5294 37.5557 27.4637 38.3448 26.2243 38.6542C24.9849 38.9636 23.6733 38.768 22.5782 38.1104C21.483 37.4528 20.6939 36.3871 20.3845 35.1477C20.335 34.9496 20.2882 34.7178 20.2436 34.4539C20.128 34.6844 20.0149 34.8953 19.9061 35.0764C19.5816 35.616 19.1538 36.0863 18.6473 36.4604C18.1408 36.8345 17.5655 37.1051 16.9543 37.2567L16.937 37.261C16.0133 37.4957 15.0407 37.4503 14.1429 37.1306C13.2451 36.8108 12.4627 36.2312 11.8953 35.4655C11.3278 34.6998 11.001 33.7826 10.9564 32.8306C10.9118 31.8786 11.1515 30.9349 11.6448 30.1194C11.7541 29.9374 11.8864 29.7386 12.0351 29.5292C11.7812 29.6138 11.5546 29.6814 11.3571 29.7307C10.746 29.8827 10.1108 29.9127 9.48812 29.8189C8.86539 29.725 8.26729 29.5092 7.72812 29.1838ZM23.5508 27.9539C24.7114 27.6642 25.76 27.0368 26.5641 26.151C27.3681 25.2653 27.8915 24.1611 28.0679 22.9779C28.2444 21.7948 28.066 20.5858 27.5554 19.5041C27.0448 18.4223 26.2249 17.5162 25.1994 16.9004C24.1738 16.2846 22.9887 15.9867 21.7938 16.0445C20.599 16.1022 19.4481 16.513 18.4867 17.2248C17.5253 17.9367 16.7966 18.9176 16.3927 20.0436C15.9888 21.1696 15.9279 22.3901 16.2176 23.5507C16.6078 25.106 17.599 26.4431 18.9738 27.2685C20.3485 28.094 21.9946 28.3405 23.5508 27.9539Z" fill="#F18D9E"/>
</g>
<defs>
<clipPath id="clip0_511_179">
<rect width="36.4321" height="36.4321" fill="white" transform="matrix(-0.970223 0.242214 0.242214 0.970223 35.3472 0)"/>
</clipPath>
</defs>
</svg>
