<svg width="34" height="34" viewBox="0 0 34 34" fill="none" xmlns="http://www.w3.org/2000/svg">
<path d="M0 9C0 4.02944 4.02944 0 9 0H25C29.9706 0 34 4.02944 34 9V25C34 29.9706 29.9706 34 25 34H9C4.02944 34 0 29.9706 0 25V9Z" fill="#8A7765"/>
<path d="M5.02299 11.3856H3.24194V6.39868H23.1897V11.3856H21.4086M5.02299 11.3856L6.80403 23.8529H12.5034M5.02299 11.3856H21.4086M12.5034 23.8529C11.791 25.159 10.7223 28.2699 12.1472 30.2647C12.6221 30.9771 13.572 31.6895 17.4903 30.9771C21.4086 30.2647 27.3929 26.3464 27.108 24.9216C26.7517 24.6841 25.3982 23.7817 22.8334 22.0719L26.3955 18.5098L27.108 19.2222L31.7387 14.5915C31.9761 13.1667 31.5962 10.5307 28.1766 11.3856L23.5459 16.0163L24.2583 16.7287L20.6962 19.9346C20.582 19.7253 20.4441 19.4825 20.2894 19.2222M12.5034 23.8529C14.4982 18.7235 16.6592 16.4913 17.4903 16.0163C18.2082 16.0163 19.4787 17.8584 20.2894 19.2222M21.4086 11.3856L20.2894 19.2222" stroke="white" stroke-width="2"/>
<path d="M15.4386 28.6963C16.7779 28.6963 20.6962 27.0588 22.474 25.634" stroke="white" stroke-width="2" stroke-linecap="round"/>
</svg>
