<svg width="31" height="28" viewBox="0 0 31 28" fill="none" xmlns="http://www.w3.org/2000/svg">
<path d="M3.02299 6.38561H1.24194V1.39868H21.1897V6.38561H19.4086M3.02299 6.38561L4.80403 18.8529H10.5034M3.02299 6.38561H19.4086M10.5034 18.8529C9.79096 20.159 8.72234 23.2699 10.1472 25.2647C10.6221 25.9771 11.572 26.6895 15.4903 25.9771C19.4086 25.2647 25.3929 21.3464 25.108 19.9216C24.7517 19.6841 23.3982 18.7817 20.8334 17.0719L24.3955 13.5098L25.108 14.2222L29.7387 9.59149C29.9761 8.16666 29.5962 5.53071 26.1766 6.38561L21.5459 11.0163L22.2583 11.7287L18.6962 14.9346C18.582 14.7253 18.4441 14.4825 18.2894 14.2222M10.5034 18.8529C12.4982 13.7235 14.6592 11.4913 15.4903 11.0163C16.2082 11.0163 17.4787 12.8584 18.2894 14.2222M19.4086 6.38561L18.2894 14.2222" stroke="black" stroke-width="2"/>
<path d="M13.4386 23.6963C14.7779 23.6963 18.6962 22.0588 20.474 20.634" stroke="black" stroke-width="2" stroke-linecap="round"/>
</svg>
