<svg width="148" height="133" viewBox="0 0 148 133" fill="none" xmlns="http://www.w3.org/2000/svg">
<path d="M17.3211 80.5835C7.1505 101.186 13.0833 113.725 17.3211 117.419C35.576 128.372 67.9567 120.245 81.8653 114.812C87.8633 105.423 69.152 84.3867 59.0466 75.0419C51.2231 65.3929 42.0956 64.0672 38.5098 64.6105C29.3824 62.0027 20.5809 74.1726 17.3211 80.5835Z" fill="white" stroke="white"/>
<g filter="url(#filter0_d_533_802)">
<path d="M89.5298 103.794C91.0058 105.419 94.3689 108.518 96.0141 107.916C95.0198 104.02 94.753 95.1923 101.64 91.0521C102.415 95.2817 102.375 104.576 96.0141 107.916C97.7518 108.967 101.918 110.969 104.682 110.565C103.78 107.057 103.993 99.5044 112.066 97.3597C112.104 102.318 110.821 111.548 105.539 110.769C109.293 111.637 115.726 112.777 116.998 111.625C115.643 107.045 115.012 97.2853 123.323 94.885C129.132 104.38 116.084 106.999 116.998 111.625C119.414 111.557 124.845 110.483 127.238 106.739C127.001 101.736 128.412 92.2128 135.957 94.1418C133.065 97.3512 127.273 104.364 127.238 106.739C130.2 104.038 136.183 99.3906 136.419 102.409C135.167 104.048 131.863 107.779 128.657 109.594C130.861 110.728 132.959 111.098 136.776 109.913C139.745 106.717 145.743 108.149 139.655 116.747C135.054 119.654 127.024 118.83 128.657 109.594C126.975 111.13 123.781 113.725 121.107 115.067C124.149 114.658 127.538 115.748 127.485 121.664C123.846 122.757 116.886 123.139 118.161 115.924C116.126 116.381 112.475 116.93 109.493 116.696C111.478 117.855 113.247 120.06 113.133 123.964C109.135 123.878 102.055 122.08 105.719 115.585C103.759 115.32 100.298 114.65 97.6121 113.615C99.7448 115.379 101.288 118.091 99.1445 121.491C96.2404 121.598 91.2218 119.793 94.38 111.72C92.6277 111.658 89.0004 111.141 88.5094 109.566L89.5298 103.794Z" fill="#5BC8AC"/>
<path d="M96.0141 107.916C94.3689 108.518 91.0058 105.419 89.5298 103.794L88.5094 109.566C89.0004 111.141 92.6277 111.658 94.38 111.72M96.0141 107.916C95.0198 104.02 94.753 95.1923 101.64 91.0521C102.415 95.2817 102.375 104.576 96.0141 107.916ZM96.0141 107.916C97.7518 108.967 101.918 110.969 104.682 110.565M104.682 110.565C103.78 107.057 103.993 99.5044 112.066 97.3597C112.106 102.575 110.685 112.519 104.682 110.565ZM104.682 110.565C108.215 111.437 115.623 112.871 116.998 111.625M116.998 111.625C115.643 107.045 115.012 97.2853 123.323 94.885C129.132 104.38 116.084 106.999 116.998 111.625ZM116.998 111.625C119.414 111.557 124.845 110.483 127.238 106.739M127.238 106.739C127.001 101.736 128.412 92.2128 135.957 94.1418C133.065 97.3512 127.273 104.364 127.238 106.739ZM127.238 106.739C130.2 104.038 136.183 99.3906 136.419 102.409C135.167 104.048 131.863 107.779 128.657 109.594M128.657 109.594C130.861 110.728 132.959 111.098 136.776 109.913C139.745 106.717 145.743 108.149 139.655 116.747C135.054 119.654 127.024 118.83 128.657 109.594ZM128.657 109.594C126.268 111.776 120.824 116.097 118.161 115.924M118.161 115.924C121.299 114.494 127.557 113.641 127.485 121.664C123.846 122.757 116.886 123.139 118.161 115.924ZM118.161 115.924C115.073 116.618 108.261 117.522 105.719 115.585M105.719 115.585C108.269 115.663 113.323 117.45 113.133 123.964C109.135 123.878 102.055 122.08 105.719 115.585ZM105.719 115.585C102.744 115.183 96.3121 113.847 94.38 111.72M94.38 111.72C97.3047 112.857 102.352 116.403 99.1445 121.491C96.2404 121.598 91.2218 119.793 94.38 111.72Z" stroke="white" stroke-width="2"/>
</g>
<path fill-rule="evenodd" clip-rule="evenodd" d="M90.6087 3C84.8714 13.6922 78.4387 17.6691 75.9395 18.3211C53.5121 6.58579 34.214 13.4314 27.3684 18.3211C19.8057 21.4505 15.9591 13.7574 14.9812 9.51961C4.81057 19.1686 15.7418 28.1005 22.4787 31.3603C14.916 30.0564 10.8521 22.1242 9.76548 18.3211C7.08198 23.1551 7.74351 27.1006 9.74414 30.1084C7.20849 36.3408 12.7538 42.2305 15.5615 43.7476C18.3798 41.3161 21.2863 37.0861 22.4772 36.3066C22.5124 36.406 22.5499 36.5039 22.5898 36.6005C21.9354 37.387 20.1858 39.1808 16.8229 42.4436C4.99625 53.9182 14.7964 63.0891 21.1748 66.2402C-9.07621 99.8814 3.11785 109.378 12.9963 109.922H7.80962C5.98413 115.659 13.0578 117.528 16.8229 117.745C18.0139 119.354 19.4539 120.884 21.1748 122.309L16.8229 117.745C15.0059 115.291 13.7682 112.653 12.9963 109.922C9.36662 97.0811 16.0315 82.1896 21.1748 74.7157C32.1277 55.4177 50.9477 66.6749 58.9885 74.7157C47.514 98.1863 59.4701 105.141 66.8824 105.684C70.0219 115.668 77.7841 116.471 82.1332 115.212C82.8051 116.136 83.4804 117.003 84.0891 117.745C99.9969 121.918 102.67 109.487 102.018 102.75C80.6337 72.2383 76.8088 57.2214 77.5694 53.527C84.0891 47.5289 82.0245 39.7271 80.1773 36.576C95.042 36.576 96.7129 27.0139 95.6902 22.2329C96.3752 19.3152 95.8837 16.4278 95.0718 14.4093C97.184 8.63889 93.8174 4.7026 90.6087 3Z" fill="#F18D9E"/>
<path d="M95.0718 14.4093C97.184 8.63889 93.8174 4.7026 90.6087 3C84.8714 13.6922 78.4387 17.6691 75.9395 18.3211C53.5121 6.58579 34.214 13.4314 27.3684 18.3211C19.8057 21.4505 15.9591 13.7574 14.9812 9.51961C4.81057 19.1686 15.7418 28.1005 22.4787 31.3603C14.916 30.0564 10.8521 22.1242 9.76548 18.3211C7.08198 23.1551 7.74351 27.1006 9.74414 30.1084M95.0718 14.4093C93.6791 18.2139 89.9048 22.8158 82.1332 28.1005C86.2861 25.2753 94.6879 18.5819 95.0718 14.4093ZM95.0718 14.4093C95.8837 16.4278 96.3752 19.3152 95.6902 22.2329M95.6902 22.2329C94.6052 26.8543 90.5683 31.5515 80.1773 32.9902C84.3256 32.6642 93.2359 30.0564 95.6902 22.2329ZM95.6902 22.2329C96.7129 27.0139 95.042 36.576 80.1773 36.576C82.0245 39.7271 84.0891 47.5289 77.5694 53.527C76.8088 57.2214 80.6337 72.2383 102.018 102.75C102.67 109.487 99.9969 121.918 84.0891 117.745C83.4804 117.003 82.8051 116.136 82.1332 115.212M82.1332 115.212C78.9667 110.857 75.8746 105.254 80.1773 105.684C78.0041 105.516 75.3528 107.187 82.1332 115.212ZM82.1332 115.212C77.7841 116.471 70.0219 115.668 66.8824 105.684M66.8824 105.684C66.0215 102.946 65.5082 99.5178 65.5082 95.2525L66.8824 105.684ZM66.8824 105.684C59.4701 105.141 47.514 98.1863 58.9885 74.7157C50.9477 66.6749 32.1277 55.4177 21.1748 74.7157C16.0315 82.1896 9.36662 97.0811 12.9963 109.922M16.8229 117.745C18.0139 119.354 19.4539 120.884 21.1748 122.309L16.8229 117.745ZM16.8229 117.745C13.0578 117.528 5.98413 115.659 7.80962 109.922H12.9963M16.8229 117.745C15.0059 115.291 13.7682 112.653 12.9963 109.922M12.9963 109.922C3.11785 109.378 -9.07621 99.8814 21.1748 66.2402C14.7964 63.0891 4.99625 53.9182 16.8229 42.4436C20.1858 39.1808 21.9354 37.387 22.5898 36.6005M22.5898 36.6005C22.5499 36.5039 22.5124 36.406 22.4772 36.3066M22.5898 36.6005C23.0664 36.0277 22.9622 35.9892 22.4772 36.3066M22.4772 36.3066C21.2863 37.0861 18.3798 41.3161 15.5615 43.7476C12.7538 42.2305 7.20849 36.3408 9.74414 30.1084M9.74414 30.1084C9.75119 30.0911 9.75831 30.0737 9.76548 30.0564C9.4395 31.6863 10.7434 35.2721 18.567 36.576C15.7932 35.6068 11.9527 33.4289 9.74414 30.1084Z" stroke="white" stroke-width="3"/>
<path d="M13.3722 121.236C11.0903 115.368 22.9343 116.02 27.7153 117.324L31.9902 122.866L15.98 122.866L13.3722 121.236Z" fill="#F9DA7C" stroke="white"/>
<path d="M40.0543 122.521C37.1125 116.267 48.5559 115.675 53.3088 116.59L58.1204 122.261L42.7648 124.039L40.0543 122.521Z" fill="#F9DA7C" stroke="white"/>
<path d="M12.1494 120.817C11.6674 118.391 14.142 119.187 15.4395 119.888L13.115 119.744C12.5214 120.125 12.2239 120.618 12.1494 120.817Z" fill="#8A7765"/>
<path d="M12.8013 122.516C12.436 120.058 16.204 120.488 18.1336 121.011L14.4964 121.237C13.4995 121.732 12.951 122.296 12.8013 122.516Z" fill="#8A7765"/>
<path d="M15.2999 123.608C15.1419 121.128 18.8605 121.872 20.7396 122.554L17.0961 122.475C16.0613 122.885 15.4675 123.401 15.2999 123.608Z" fill="#8A7765"/>
<path d="M39.126 121.81C38.1844 119.524 40.766 119.826 42.1746 120.263L39.8661 120.571C39.3572 121.06 39.1607 121.601 39.126 121.81Z" fill="#8A7765"/>
<path d="M40.0941 123.352C39.2606 121.01 43.0407 120.704 45.0349 120.844L41.51 121.769C40.6276 122.448 40.1984 123.107 40.0941 123.352Z" fill="#8A7765"/>
<path d="M42.7566 123.94C42.1222 121.537 45.9146 121.549 47.8902 121.855L44.3001 122.482C43.364 123.084 42.8811 123.705 42.7566 123.94Z" fill="#8A7765"/>
<path d="M24.1666 94.6006L18.299 88.407L24.1666 91.6668L30.0343 83.8433L38.1838 90.6889L47.3112 86.4511L38.1838 95.2526L30.0343 89.3849L24.1666 94.6006Z" fill="#5BC8AC"/>
<path d="M23.5807 107.295L17.6471 100.925L23.5807 104.278L29.5143 96.2305L37.7553 103.272L46.9853 98.9128L37.7553 107.966L29.5143 101.93L23.5807 107.295Z" fill="#5BC8AC"/>
<path d="M26.3058 82.6694L21.5589 77.7145L26.3058 80.3223L31.0526 74.0635L37.6455 79.5399L45.0295 76.1498L37.6455 83.1909L31.0526 78.4968L26.3058 82.6694Z" fill="#5BC8AC"/>
<path d="M35.129 25.315C21.8913 29.2262 24.3018 36.9263 27.1619 40.2874C23.4847 40.2874 22.7697 43.5467 22.8718 45.1763C25.3233 47.1319 29.8176 47.4171 31.7583 47.3153C35.4355 47.3153 43.0962 42.63 46.4669 40.2874L67.6106 45.1763C73.7392 46.1541 72.4113 42.3245 70.9813 40.2874C75.639 30.2651 67.8149 24.2965 63.3205 22.565C47.3862 22.3205 45.4455 29.1854 46.4669 32.6484C44.2606 26.5372 37.989 25.2132 35.129 25.315Z" fill="white"/>
<path d="M60.0245 29.4045C56.1127 28.3614 57.0907 30.7084 56.4387 32.0124C57.4818 27.579 54.0482 27.7746 52.201 28.4266C48.8108 31.2952 51.223 32.8816 52.8529 33.3163C49.9843 33.3163 50.5711 34.8375 51.223 35.5982C52.0054 37.4236 54.1569 36.3588 55.1348 35.5982C60.0897 37.4236 59.0465 33.9528 58.0686 33.3163C59.0465 33.9528 64.9142 30.7084 60.0245 29.4045Z" fill="#5BC8AC"/>
<path d="M33.8295 33.2256C33.6468 32.1582 34.2585 30.8647 36.5539 32.0124C37.8578 33.3163 36.5539 35.2722 33.946 35.2722C34.8153 35.8155 36.2931 37.1629 35.25 38.206C33.946 39.5099 32.6421 39.3154 32.6421 37.2281C32.6421 35.9241 31.6642 40.4879 29.0563 39.184C28.187 38.3147 26.5789 36.5761 29.7083 35.2722C28.4044 34.8376 27.1004 32.9903 30.0343 31.3604C30.348 31.3604 32.7759 29.8504 33.8295 33.2256Z" fill="#5BC8AC"/>
<path d="M48.2893 42.4434C46.203 45.3121 41.7697 45.3773 39.8138 45.0513V43.7474C43.5082 42.1175 50.3756 39.5748 48.2893 42.4434Z" fill="#F9DA7C" stroke="white"/>
<path d="M44.3774 34.946L49.2671 40.8137L40.4657 43.5218L36.5539 44.7255C33.6853 40.5529 36.2279 37.7712 37.8578 36.9019L44.3774 34.946Z" fill="#F9DA7C" stroke="white"/>
<defs>
<filter id="filter0_d_533_802" x="83.4824" y="89.4507" width="63.7996" height="43.5349" filterUnits="userSpaceOnUse" color-interpolation-filters="sRGB">
<feFlood flood-opacity="0" result="BackgroundImageFix"/>
<feColorMatrix in="SourceAlpha" type="matrix" values="0 0 0 0 0 0 0 0 0 0 0 0 0 0 0 0 0 0 127 0" result="hardAlpha"/>
<feOffset dy="4"/>
<feGaussianBlur stdDeviation="2"/>
<feComposite in2="hardAlpha" operator="out"/>
<feColorMatrix type="matrix" values="0 0 0 0 0 0 0 0 0 0 0 0 0 0 0 0 0 0 0.25 0"/>
<feBlend mode="normal" in2="BackgroundImageFix" result="effect1_dropShadow_533_802"/>
<feBlend mode="normal" in="SourceGraphic" in2="effect1_dropShadow_533_802" result="shape"/>
</filter>
</defs>
</svg>
