<svg width="36" height="59" viewBox="0 0 36 59" fill="none" xmlns="http://www.w3.org/2000/svg">
<mask id="path-1-outside-1_502_74" maskUnits="userSpaceOnUse" x="0" y="0" width="36" height="59" fill="black">
<rect fill="white" width="36" height="59"/>
<path d="M14.8642 57C21.948 57 27.7032 51.2074 27.7032 44.0788C27.7032 40.3159 26.1542 37.0241 23.2262 34.3511C22.6858 33.8558 22.563 33.5834 22.563 32.8409L22.6123 10.6135C22.6123 5.44073 19.4881 2 14.8642 2C10.2151 2 7.0909 5.44073 7.0909 10.6135L7.11609 32.8409C7.11609 33.5834 6.9933 33.8558 6.47592 34.3511C3.52486 37.0241 2 40.3159 2 44.0777C2 51.2063 7.73002 57 14.8642 57ZM14.8642 53.4082C9.74811 53.4082 5.59123 49.2008 5.59123 44.0777C5.59123 40.9834 7.04262 38.1869 9.64947 36.4295C10.4124 35.9089 10.7073 35.4389 10.7073 34.424V10.7624C10.7073 7.64373 12.4043 5.63822 14.8632 5.63822C17.2989 5.63822 18.9718 7.64373 18.9718 10.7624V34.4251C18.9718 35.44 19.2667 35.9099 20.0296 36.4295C22.6365 38.1879 24.0878 40.9844 24.0878 44.0788C24.0878 49.2018 19.9551 53.4104 14.8632 53.4104M27.1858 11.0855H32.5485C32.7383 11.0901 32.927 11.0562 33.1035 10.9859C33.28 10.9156 33.4406 10.8104 33.5759 10.6764C33.7112 10.5424 33.8183 10.3825 33.891 10.206C33.9637 10.0296 34.0003 9.84024 33.9989 9.64924C34.0004 9.45816 33.9636 9.26873 33.8909 9.09221C33.8182 8.91569 33.7109 8.75569 33.5755 8.6217C33.4401 8.48772 33.2794 8.38249 33.1028 8.31228C32.9262 8.24206 32.7373 8.20829 32.5475 8.21296H27.1848C26.995 8.20843 26.8063 8.24231 26.6298 8.31259C26.4534 8.38287 26.2927 8.48812 26.1574 8.62209C26.0221 8.75606 25.915 8.91602 25.8423 9.09246C25.7697 9.26891 25.733 9.45825 25.7344 9.64924C25.7344 10.417 26.3253 11.0855 27.1858 11.0855ZM27.1858 18.0399H32.5485C32.7382 18.0444 32.9268 18.0105 33.1032 17.9403C33.2797 17.8701 33.4403 17.765 33.5755 17.6311C33.7108 17.4972 33.818 17.3374 33.8907 17.1611C33.9634 16.9848 34.0002 16.7955 33.9989 16.6046C34.0004 16.4136 33.9636 16.2241 33.8909 16.0476C33.8182 15.8711 33.7109 15.7111 33.5755 15.5771C33.4401 15.4431 33.2794 15.3379 33.1028 15.2677C32.9262 15.1975 32.7373 15.1637 32.5475 15.1684H27.1848C26.995 15.1638 26.8063 15.1977 26.6298 15.268C26.4534 15.3383 26.2927 15.4435 26.1574 15.5775C26.0221 15.7115 25.915 15.8714 25.8423 16.0479C25.7697 16.2243 25.733 16.4136 25.7344 16.6046C25.7344 17.3724 26.3253 18.0399 27.1858 18.0399ZM14.839 50.07C15.623 50.0707 16.3994 49.9154 17.1236 49.613C17.8477 49.3106 18.5053 48.8672 19.0586 48.3081C19.6118 47.749 20.0497 47.0854 20.3471 46.3554C20.6445 45.6254 20.7955 44.8434 20.7915 44.0545C20.7915 41.7279 19.4881 39.8217 17.5938 38.7825C16.8067 38.3622 16.536 38.0643 16.536 36.852V23.7079C16.536 22.4195 15.7982 21.6527 14.839 21.6527C13.905 21.6527 13.142 22.4205 13.142 23.7079V36.8498C13.142 38.0622 12.8713 38.36 12.0842 38.7804C10.191 39.8196 8.88651 41.7269 8.88651 44.0524C8.8825 44.8413 9.03355 45.6233 9.33095 46.3533C9.62836 47.0833 10.0663 47.7469 10.6195 48.306C11.1727 48.865 11.8303 49.3085 12.5544 49.6109C13.2786 49.9132 14.055 50.0686 14.839 50.0678M27.1869 24.9931H32.5496C32.7392 24.9977 32.9279 24.9638 33.1043 24.8936C33.2807 24.8234 33.4413 24.7182 33.5766 24.5844C33.7118 24.4505 33.819 24.2907 33.8917 24.1144C33.9645 23.9381 34.0013 23.7488 33.9999 23.5579C34.0018 23.3656 33.9655 23.1749 33.8932 22.9968C33.8209 22.8188 33.714 22.657 33.5789 22.5211C33.4438 22.3851 33.283 22.2775 33.1061 22.2048C32.9292 22.132 32.7396 22.0955 32.5485 22.0974H27.1858C26.9948 22.0957 26.8054 22.1323 26.6286 22.2051C26.4518 22.2779 26.2912 22.3855 26.1562 22.5214C26.0211 22.6574 25.9144 22.8191 25.8422 22.9971C25.7699 23.175 25.7337 23.3657 25.7355 23.5579C25.7355 24.3257 26.3263 24.9931 27.1869 24.9931ZM27.1869 31.9496H32.5496C32.7406 31.9513 32.93 31.9147 33.1068 31.8418C33.2836 31.769 33.4442 31.6615 33.5793 31.5255C33.7143 31.3895 33.821 31.2278 33.8933 31.0499C33.9655 30.8719 34.0018 30.6813 33.9999 30.489C34.0013 30.298 33.9644 30.1087 33.8916 29.9323C33.8188 29.7559 33.7116 29.596 33.5762 29.4622C33.4408 29.3283 33.2801 29.2232 33.1036 29.153C32.927 29.0829 32.7383 29.0491 32.5485 29.0538H27.1858C26.9961 29.0493 26.8074 29.0831 26.6309 29.1534C26.4544 29.2237 26.2938 29.329 26.1585 29.4629C26.0232 29.5969 25.916 29.7569 25.8434 29.9333C25.7707 30.1097 25.734 30.2991 25.7355 30.4901C25.7338 30.6823 25.7702 30.8729 25.8426 31.0509C25.9149 31.2288 26.0218 31.3904 26.1569 31.5263C26.292 31.6621 26.4527 31.7696 26.6296 31.8422C26.8064 31.9149 26.9959 31.9514 27.1869 31.9496Z"/>
</mask>
<path d="M14.8642 57C21.948 57 27.7032 51.2074 27.7032 44.0788C27.7032 40.3159 26.1542 37.0241 23.2262 34.3511C22.6858 33.8558 22.563 33.5834 22.563 32.8409L22.6123 10.6135C22.6123 5.44073 19.4881 2 14.8642 2C10.2151 2 7.0909 5.44073 7.0909 10.6135L7.11609 32.8409C7.11609 33.5834 6.9933 33.8558 6.47592 34.3511C3.52486 37.0241 2 40.3159 2 44.0777C2 51.2063 7.73002 57 14.8642 57ZM14.8642 53.4082C9.74811 53.4082 5.59123 49.2008 5.59123 44.0777C5.59123 40.9834 7.04262 38.1869 9.64947 36.4295C10.4124 35.9089 10.7073 35.4389 10.7073 34.424V10.7624C10.7073 7.64373 12.4043 5.63822 14.8632 5.63822C17.2989 5.63822 18.9718 7.64373 18.9718 10.7624V34.4251C18.9718 35.44 19.2667 35.9099 20.0296 36.4295C22.6365 38.1879 24.0878 40.9844 24.0878 44.0788C24.0878 49.2018 19.9551 53.4104 14.8632 53.4104M27.1858 11.0855H32.5485C32.7383 11.0901 32.927 11.0562 33.1035 10.9859C33.28 10.9156 33.4406 10.8104 33.5759 10.6764C33.7112 10.5424 33.8183 10.3825 33.891 10.206C33.9637 10.0296 34.0003 9.84024 33.9989 9.64924C34.0004 9.45816 33.9636 9.26873 33.8909 9.09221C33.8182 8.91569 33.7109 8.75569 33.5755 8.6217C33.4401 8.48772 33.2794 8.38249 33.1028 8.31228C32.9262 8.24206 32.7373 8.20829 32.5475 8.21296H27.1848C26.995 8.20843 26.8063 8.24231 26.6298 8.31259C26.4534 8.38287 26.2927 8.48812 26.1574 8.62209C26.0221 8.75606 25.915 8.91602 25.8423 9.09246C25.7697 9.26891 25.733 9.45825 25.7344 9.64924C25.7344 10.417 26.3253 11.0855 27.1858 11.0855ZM27.1858 18.0399H32.5485C32.7382 18.0444 32.9268 18.0105 33.1032 17.9403C33.2797 17.8701 33.4403 17.765 33.5755 17.6311C33.7108 17.4972 33.818 17.3374 33.8907 17.1611C33.9634 16.9848 34.0002 16.7955 33.9989 16.6046C34.0004 16.4136 33.9636 16.2241 33.8909 16.0476C33.8182 15.8711 33.7109 15.7111 33.5755 15.5771C33.4401 15.4431 33.2794 15.3379 33.1028 15.2677C32.9262 15.1975 32.7373 15.1637 32.5475 15.1684H27.1848C26.995 15.1638 26.8063 15.1977 26.6298 15.268C26.4534 15.3383 26.2927 15.4435 26.1574 15.5775C26.0221 15.7115 25.915 15.8714 25.8423 16.0479C25.7697 16.2243 25.733 16.4136 25.7344 16.6046C25.7344 17.3724 26.3253 18.0399 27.1858 18.0399ZM14.839 50.07C15.623 50.0707 16.3994 49.9154 17.1236 49.613C17.8477 49.3106 18.5053 48.8672 19.0586 48.3081C19.6118 47.749 20.0497 47.0854 20.3471 46.3554C20.6445 45.6254 20.7955 44.8434 20.7915 44.0545C20.7915 41.7279 19.4881 39.8217 17.5938 38.7825C16.8067 38.3622 16.536 38.0643 16.536 36.852V23.7079C16.536 22.4195 15.7982 21.6527 14.839 21.6527C13.905 21.6527 13.142 22.4205 13.142 23.7079V36.8498C13.142 38.0622 12.8713 38.36 12.0842 38.7804C10.191 39.8196 8.88651 41.7269 8.88651 44.0524C8.8825 44.8413 9.03355 45.6233 9.33095 46.3533C9.62836 47.0833 10.0663 47.7469 10.6195 48.306C11.1727 48.865 11.8303 49.3085 12.5544 49.6109C13.2786 49.9132 14.055 50.0686 14.839 50.0678M27.1869 24.9931H32.5496C32.7392 24.9977 32.9279 24.9638 33.1043 24.8936C33.2807 24.8234 33.4413 24.7182 33.5766 24.5844C33.7118 24.4505 33.819 24.2907 33.8917 24.1144C33.9645 23.9381 34.0013 23.7488 33.9999 23.5579C34.0018 23.3656 33.9655 23.1749 33.8932 22.9968C33.8209 22.8188 33.714 22.657 33.5789 22.5211C33.4438 22.3851 33.283 22.2775 33.1061 22.2048C32.9292 22.132 32.7396 22.0955 32.5485 22.0974H27.1858C26.9948 22.0957 26.8054 22.1323 26.6286 22.2051C26.4518 22.2779 26.2912 22.3855 26.1562 22.5214C26.0211 22.6574 25.9144 22.8191 25.8422 22.9971C25.7699 23.175 25.7337 23.3657 25.7355 23.5579C25.7355 24.3257 26.3263 24.9931 27.1869 24.9931ZM27.1869 31.9496H32.5496C32.7406 31.9513 32.93 31.9147 33.1068 31.8418C33.2836 31.769 33.4442 31.6615 33.5793 31.5255C33.7143 31.3895 33.821 31.2278 33.8933 31.0499C33.9655 30.8719 34.0018 30.6813 33.9999 30.489C34.0013 30.298 33.9644 30.1087 33.8916 29.9323C33.8188 29.7559 33.7116 29.596 33.5762 29.4622C33.4408 29.3283 33.2801 29.2232 33.1036 29.153C32.927 29.0829 32.7383 29.0491 32.5485 29.0538H27.1858C26.9961 29.0493 26.8074 29.0831 26.6309 29.1534C26.4544 29.2237 26.2938 29.329 26.1585 29.4629C26.0232 29.5969 25.916 29.7569 25.8434 29.9333C25.7707 30.1097 25.734 30.2991 25.7355 30.4901C25.7338 30.6823 25.7702 30.8729 25.8426 31.0509C25.9149 31.2288 26.0218 31.3904 26.1569 31.5263C26.292 31.6621 26.4527 31.7696 26.6296 31.8422C26.8064 31.9149 26.9959 31.9514 27.1869 31.9496Z" fill="#5BC8AC"/>
<path d="M23.2262 34.3511L21.875 35.8256L21.8778 35.8282L23.2262 34.3511ZM22.563 32.8409L20.563 32.8365V32.8409H22.563ZM22.6123 10.6135L24.6123 10.6179V10.6135H22.6123ZM7.0909 10.6135H5.0909L5.0909 10.6157L7.0909 10.6135ZM7.11609 32.8409H9.11609L9.11608 32.8387L7.11609 32.8409ZM6.47592 34.3511L7.81856 35.8335L7.83903 35.8149L7.85898 35.7958L6.47592 34.3511ZM9.64947 36.4295L10.7674 38.0879L10.7768 38.0815L9.64947 36.4295ZM20.0296 36.4295L18.9038 38.0826L18.9112 38.0876L20.0296 36.4295ZM32.5485 11.0855L32.5963 9.08609L32.5724 9.08552H32.5485V11.0855ZM33.9989 9.64924L31.9989 9.63393L31.9988 9.64923L31.9989 9.66453L33.9989 9.64924ZM32.5475 8.21296V10.213H32.5721L32.5968 10.2124L32.5475 8.21296ZM27.1848 8.21296L27.137 10.2124L27.1609 10.213H27.1848V8.21296ZM25.7344 9.64924H27.7344V9.6416L27.7344 9.63396L25.7344 9.64924ZM32.5485 18.0399L32.5963 16.0404L32.5724 16.0399H32.5485V18.0399ZM33.1032 17.9403L32.3636 16.0821L33.1032 17.9403ZM33.9989 16.6046L31.9989 16.5893L31.9988 16.6039L31.9989 16.6184L33.9989 16.6046ZM32.5475 15.1684V17.1684H32.5721L32.5968 17.1678L32.5475 15.1684ZM27.1848 15.1684L27.137 17.1678L27.1609 17.1684H27.1848V15.1684ZM25.7344 16.6046H27.7344V16.597L27.7344 16.5894L25.7344 16.6046ZM20.7915 44.0545H18.7915L18.7915 44.0646L20.7915 44.0545ZM17.5938 38.7825L18.5558 37.029L18.5459 37.0236L18.536 37.0183L17.5938 38.7825ZM12.0842 38.7804L11.1421 37.0162L11.1319 37.0216L11.1218 37.0271L12.0842 38.7804ZM8.88651 44.0524L10.8865 44.0625V44.0524H8.88651ZM32.5496 24.9931L32.5973 22.9937L32.5735 22.9931H32.5496V24.9931ZM33.9999 23.5579L32 23.539L31.9999 23.5554L32 23.5717L33.9999 23.5579ZM32.5485 22.0974V24.0974H32.5581L32.5677 24.0973L32.5485 22.0974ZM27.1858 22.0974L27.1681 24.0973L27.177 24.0974H27.1858V22.0974ZM25.7355 23.5579H27.7355V23.5485L27.7354 23.539L25.7355 23.5579ZM27.1869 31.9496V29.9496H27.1773L27.1677 29.9497L27.1869 31.9496ZM32.5496 31.9496L32.5673 29.9497L32.5585 29.9496H32.5496V31.9496ZM33.9999 30.489L32 30.4752L31.9999 30.4916L32 30.508L33.9999 30.489ZM32.5485 29.0538V31.0538H32.5732L32.5978 31.0532L32.5485 29.0538ZM27.1858 29.0538L27.1381 31.0532L27.1619 31.0538H27.1858V29.0538ZM25.7355 30.4901L27.7354 30.5076L27.7356 30.4912L27.7354 30.4748L25.7355 30.4901ZM14.8642 59C23.0647 59 29.7032 52.2998 29.7032 44.0788H25.7032C25.7032 50.1149 20.8314 55 14.8642 55V59ZM29.7032 44.0788C29.7032 39.7024 27.8781 35.8898 24.5747 32.8741L21.8778 35.8282C24.4303 38.1584 25.7032 40.9294 25.7032 44.0788H29.7032ZM24.5775 32.8767C24.5289 32.8321 24.4953 32.7995 24.4722 32.7759C24.4493 32.7524 24.4409 32.7422 24.4416 32.743C24.4427 32.7444 24.4541 32.7584 24.4701 32.7838C24.4866 32.81 24.5049 32.8431 24.5219 32.8818C24.539 32.9205 24.5511 32.9562 24.5592 32.9859C24.5671 33.0146 24.5697 33.0321 24.5699 33.0336C24.57 33.0343 24.5681 33.0209 24.5662 32.9878C24.5644 32.9544 24.563 32.9073 24.563 32.8409H20.563C20.563 33.2903 20.5922 33.8838 20.8619 34.4956C21.1317 35.1074 21.5497 35.5275 21.875 35.8256L24.5775 32.8767ZM24.563 32.8454L24.6123 10.6179L20.6123 10.609L20.563 32.8365L24.563 32.8454ZM24.6123 10.6135C24.6123 7.6283 23.707 4.96721 21.9574 3.02742C20.1916 1.06974 17.7 0 14.8642 0V4C16.6523 4 18.0347 4.65063 18.9871 5.70649C19.9556 6.78025 20.6123 8.42589 20.6123 10.6135H24.6123ZM14.8642 0C12.0189 0 9.52088 1.06747 7.75054 3.02572C5.99632 4.96613 5.0909 7.62827 5.0909 10.6135H9.0909C9.0909 8.42592 9.74758 6.78133 10.7177 5.7082C11.6718 4.65289 13.0604 4 14.8642 4V0ZM5.0909 10.6157L5.11609 32.8432L9.11608 32.8387L9.0909 10.6112L5.0909 10.6157ZM5.11609 32.8409C5.11609 32.9072 5.11469 32.9548 5.11281 32.9889C5.11095 33.0227 5.10892 33.0376 5.10877 33.0387C5.10872 33.039 5.11086 33.0239 5.11782 32.9978C5.12501 32.9709 5.13587 32.9379 5.15134 32.9018C5.16682 32.8656 5.18342 32.8345 5.1985 32.8098C5.21311 32.7858 5.22335 32.7727 5.22412 32.7717C5.2244 32.7714 5.21614 32.7819 5.19404 32.8054C5.17174 32.8291 5.13954 32.8618 5.09286 32.9064L7.85898 35.7958C8.17139 35.4968 8.57087 35.0781 8.8287 34.4756C9.08596 33.8745 9.11609 33.2926 9.11609 32.8409H5.11609ZM5.13328 32.8688C1.79553 35.892 0 39.7095 0 44.0777H4C4 40.9223 5.25418 38.1562 7.81856 35.8335L5.13328 32.8688ZM0 44.0777C0 52.2985 6.61316 59 14.8642 59V55C8.84687 55 4 50.1141 4 44.0777H0ZM14.8642 51.4082C10.8678 51.4082 7.59123 48.1114 7.59123 44.0777H3.59123C3.59123 50.2902 8.62845 55.4082 14.8642 55.4082V51.4082ZM7.59123 44.0777C7.59123 41.6381 8.72056 39.4677 10.7674 38.0879L8.53152 34.7711C5.36469 36.906 3.59123 40.3287 3.59123 44.0777H7.59123ZM10.7768 38.0815C11.2775 37.7398 11.8338 37.2771 12.2195 36.5712C12.6086 35.8592 12.7073 35.1163 12.7073 34.424H8.70732C8.70732 34.7466 8.65855 34.7462 8.70945 34.653C8.75702 34.566 8.78435 34.5986 8.52212 34.7775L10.7768 38.0815ZM12.7073 34.424V10.7624H8.70732V34.424H12.7073ZM12.7073 10.7624C12.7073 9.55155 13.0362 8.75393 13.409 8.29981C13.7547 7.87873 14.2229 7.63822 14.8632 7.63822V3.63822C13.0446 3.63822 11.4348 4.40048 10.3173 5.76181C9.22691 7.0901 8.70732 8.85455 8.70732 10.7624H12.7073ZM14.8632 7.63822C15.4841 7.63822 15.9382 7.8722 16.2774 8.2905C16.6454 8.74422 16.9718 9.54495 16.9718 10.7624H20.9718C20.9718 8.86115 20.4618 7.09981 19.3843 5.77112C18.2782 4.407 16.678 3.63822 14.8632 3.63822V7.63822ZM16.9718 10.7624V34.4251H20.9718V10.7624H16.9718ZM16.9718 34.4251C16.9718 35.1173 17.0704 35.8603 17.4597 36.5724C17.8458 37.2786 18.4026 37.7412 18.9038 38.0826L21.1554 34.7765C20.8937 34.5982 20.9215 34.566 20.9695 34.6537C21.0206 34.7472 20.9718 34.7478 20.9718 34.4251H16.9718ZM18.9112 38.0876C20.9586 39.4686 22.0878 41.6392 22.0878 44.0788H26.0878C26.0878 40.3296 24.3143 36.9072 21.148 34.7715L18.9112 38.0876ZM22.0878 44.0788C22.0878 48.123 18.825 51.4104 14.8632 51.4104V55.4104C21.0852 55.4104 26.0878 50.2807 26.0878 44.0788H22.0878ZM27.1858 13.0855H32.5485V9.08552H27.1858V13.0855ZM32.5008 13.085C32.9602 13.0959 33.4168 13.0139 33.8434 12.844L32.3635 9.12781C32.4372 9.09848 32.5164 9.08419 32.5963 9.08609L32.5008 13.085ZM33.8434 12.844C34.27 12.6741 34.6575 12.42 34.9832 12.0975L32.1686 9.25531C32.2237 9.20071 32.2899 9.15713 32.3635 9.12781L33.8434 12.844ZM34.9832 12.0975C35.3089 11.775 35.5661 11.3906 35.7403 10.9676L32.0417 9.44446C32.0706 9.37431 32.1135 9.30987 32.1686 9.25531L34.9832 12.0975ZM35.7403 10.9676C35.9145 10.5446 36.0023 10.0911 35.9988 9.63396L31.9989 9.66453C31.9984 9.5894 32.0128 9.5146 32.0417 9.44446L35.7403 10.9676ZM35.9988 9.66456C36.0023 9.20721 35.9145 8.75352 35.7401 8.33033L32.0417 9.85409C32.0128 9.78394 31.9984 9.70911 31.9989 9.63393L35.9988 9.66456ZM35.7401 8.33033C35.5657 7.90713 35.3083 7.52266 34.9823 7.20011L32.1687 10.0433C32.1136 9.98872 32.0706 9.92425 32.0417 9.85409L35.7401 8.33033ZM34.9823 7.20011C34.6564 6.87754 34.2686 6.62351 33.8417 6.45378L32.3638 10.1708C32.2902 10.1415 32.2239 10.0979 32.1687 10.0433L34.9823 7.20011ZM33.8417 6.45378C33.4147 6.28404 32.9578 6.20225 32.4982 6.21357L32.5968 10.2124C32.5168 10.2143 32.4376 10.2001 32.3638 10.1708L33.8417 6.45378ZM32.5475 6.21296H27.1848V10.213H32.5475V6.21296ZM27.2325 6.21354C26.7732 6.20256 26.3165 6.28461 25.8899 6.45451L27.3698 10.1707C27.2961 10.2 27.2169 10.2143 27.137 10.2124L27.2325 6.21354ZM25.8899 6.45451C25.4633 6.6244 25.0758 6.87848 24.7501 7.201L27.5647 10.0432C27.5096 10.0978 27.4434 10.1413 27.3698 10.1707L25.8899 6.45451ZM24.7501 7.201C24.4245 7.5235 24.1672 7.90786 23.993 8.3309L27.6917 9.85403C27.6628 9.92418 27.6198 9.98862 27.5647 10.0432L24.7501 7.201ZM23.993 8.3309C23.8188 8.75391 23.731 9.20738 23.7345 9.66453L27.7344 9.63396C27.735 9.70912 27.7205 9.78392 27.6917 9.85403L23.993 8.3309ZM23.7344 9.64924C23.7344 11.4643 25.1643 13.0855 27.1858 13.0855V9.08552C27.2969 9.08552 27.4518 9.13783 27.5728 9.26258C27.6831 9.37621 27.7344 9.5181 27.7344 9.64924H23.7344ZM27.1858 20.0399H32.5485V16.0399H27.1858V20.0399ZM32.5008 20.0393C32.96 20.0503 33.4164 19.9683 33.8428 19.7985L32.3636 16.0821C32.4373 16.0528 32.5164 16.0385 32.5963 16.0404L32.5008 20.0393ZM33.8428 19.7985C34.2693 19.6288 34.6567 19.375 34.9823 19.0527L32.1687 16.2095C32.2238 16.155 32.29 16.1114 32.3636 16.0821L33.8428 19.7985ZM34.9823 19.0527C35.3079 18.7305 35.5652 18.3464 35.7396 17.9237L32.0418 16.3985C32.0707 16.3284 32.1136 16.264 32.1687 16.2095L34.9823 19.0527ZM35.7396 17.9237C35.9139 17.501 36.002 17.0478 35.9988 16.5908L31.9989 16.6184C31.9984 16.5433 32.0129 16.4686 32.0418 16.3985L35.7396 17.9237ZM35.9988 16.62C36.0023 16.1626 35.9145 15.7089 35.7401 15.2857L32.0417 16.8095C32.0128 16.7393 31.9984 16.6645 31.9989 16.5893L35.9988 16.62ZM35.7401 15.2857C35.5657 14.8625 35.3083 14.4781 34.9823 14.1555L32.1687 16.9987C32.1136 16.9441 32.0706 16.8796 32.0417 16.8095L35.7401 15.2857ZM34.9823 14.1555C34.6564 13.8329 34.2686 13.5789 33.8417 13.4092L32.3638 17.1262C32.2901 17.0969 32.2239 17.0533 32.1687 16.9987L34.9823 14.1555ZM33.8417 13.4092C33.4147 13.2394 32.9578 13.1576 32.4982 13.169L32.5968 17.1678C32.5168 17.1697 32.4376 17.1555 32.3638 17.1262L33.8417 13.4092ZM32.5475 13.1684H27.1848V17.1684H32.5475V13.1684ZM27.2325 13.1689C26.7731 13.158 26.3165 13.24 25.8899 13.4099L27.3698 17.1261C27.2961 17.1554 27.2169 17.1697 27.137 17.1678L27.2325 13.1689ZM25.8899 13.4099C25.4633 13.5798 25.0758 13.8339 24.7501 14.1564L27.5647 16.9986C27.5096 17.0532 27.4434 17.0967 27.3698 17.1261L25.8899 13.4099ZM24.7501 14.1564C24.4245 14.4789 24.1672 14.8632 23.993 15.2863L27.6917 16.8094C27.6628 16.8796 27.6198 16.944 27.5647 16.9986L24.7501 14.1564ZM23.993 15.2863C23.8188 15.7093 23.731 16.1628 23.7345 16.6199L27.7344 16.5894C27.735 16.6645 27.7205 16.7393 27.6917 16.8094L23.993 15.2863ZM23.7344 16.6046C23.7344 18.4216 25.1661 20.0399 27.1858 20.0399V16.0399C27.2959 16.0399 27.4507 16.0917 27.5721 16.2167C27.6829 16.3308 27.7344 16.4733 27.7344 16.6046H23.7344ZM14.8372 52.07C15.8866 52.0709 16.9256 51.863 17.8942 51.4586L16.353 47.7674C15.8733 47.9677 15.3594 48.0704 14.8408 48.07L14.8372 52.07ZM17.8942 51.4586C18.8628 51.0541 19.7415 50.4613 20.4802 49.7148L17.6369 46.9013C17.2692 47.273 16.8327 47.5671 16.353 47.7674L17.8942 51.4586ZM20.4802 49.7148C21.2188 48.9684 21.8028 48.083 22.1993 47.11L18.4949 45.6008C18.2965 46.0878 18.0047 46.5297 17.6369 46.9013L20.4802 49.7148ZM22.1993 47.11C22.5957 46.137 22.7968 45.0952 22.7915 44.0443L18.7915 44.0646C18.7942 44.5917 18.6933 45.1138 18.4949 45.6008L22.1993 47.11ZM22.7915 44.0545C22.7915 40.9203 21.0193 38.3805 18.5558 37.029L16.6319 40.536C17.9569 41.2629 18.7915 42.5355 18.7915 44.0545H22.7915ZM18.536 37.0183C18.4578 36.9766 18.405 36.9464 18.368 36.9237C18.3314 36.9012 18.3207 36.8924 18.3254 36.8961C18.3313 36.9007 18.3557 36.9204 18.3881 36.9558C18.4218 36.9926 18.4565 37.0379 18.4876 37.09C18.5184 37.1416 18.5377 37.1867 18.5489 37.2183C18.5594 37.2483 18.5605 37.2598 18.5576 37.2444C18.5547 37.2282 18.5489 37.1903 18.5441 37.1231C18.5393 37.0559 18.536 36.9676 18.536 36.852H14.536C14.536 37.5404 14.5975 38.3764 15.0519 39.1385C15.5206 39.9245 16.2251 40.3189 16.6517 40.5467L18.536 37.0183ZM18.536 36.852V23.7079H14.536V36.852H18.536ZM18.536 23.7079C18.536 22.688 18.241 21.6782 17.5615 20.8906C16.8661 20.0847 15.883 19.6527 14.839 19.6527V23.6527C14.8094 23.6527 14.7536 23.646 14.6867 23.6159C14.6192 23.5854 14.5668 23.5429 14.5329 23.5037C14.4621 23.4216 14.536 23.4394 14.536 23.7079H18.536ZM14.839 19.6527C13.7964 19.6527 12.8214 20.093 12.1324 20.8836C11.4532 21.6631 11.142 22.671 11.142 23.7079H15.142C15.142 23.4574 15.2124 23.4377 15.1481 23.5115C15.1184 23.5455 15.0708 23.5848 15.0065 23.614C14.9424 23.6431 14.8825 23.6527 14.839 23.6527V19.6527ZM11.142 23.7079V36.8498H15.142V23.7079H11.142ZM11.142 36.8498C11.142 36.9655 11.1388 37.0538 11.134 37.1209C11.1292 37.1881 11.1234 37.2261 11.1204 37.2423C11.1176 37.2577 11.1186 37.2461 11.1292 37.2162C11.1403 37.1846 11.1597 37.1395 11.1904 37.0879C11.2215 37.0358 11.2562 36.9904 11.2899 36.9537C11.3224 36.9182 11.3467 36.8986 11.3526 36.894C11.3574 36.8903 11.3466 36.8991 11.31 36.9216C11.273 36.9443 11.2202 36.9745 11.1421 37.0162L13.0263 40.5446C13.4529 40.3168 14.1574 39.9224 14.6261 39.1364C15.0805 38.3742 15.142 37.5383 15.142 36.8498H11.142ZM11.1218 37.0271C8.66006 38.3784 6.88651 40.9189 6.88651 44.0524H10.8865C10.8865 42.5348 11.7219 41.2607 13.0466 40.5336L11.1218 37.0271ZM6.88654 44.0422C6.8812 45.0931 7.08236 46.1349 7.47877 47.1079L11.1831 45.5987C10.9847 45.1117 10.8838 44.5896 10.8865 44.0625L6.88654 44.0422ZM7.47877 47.1079C7.87519 48.0809 8.45921 48.9663 9.19784 49.7127L12.0411 46.8992C11.6733 46.5275 11.3815 46.0857 11.1831 45.5987L7.47877 47.1079ZM9.19784 49.7127C9.93651 50.4592 10.8152 51.052 11.7838 51.4565L13.3251 47.7653C12.8453 47.565 12.4089 47.2709 12.0411 46.8992L9.19784 49.7127ZM11.7838 51.4565C12.7524 51.8609 13.7914 52.0688 14.8408 52.0678L14.8372 48.0678C14.3186 48.0683 13.8048 47.9656 13.3251 47.7653L11.7838 51.4565ZM27.1869 26.9931H32.5496V22.9931H27.1869V26.9931ZM32.5018 26.9926C32.961 27.0035 33.4174 26.9216 33.8439 26.7518L32.3647 23.0354C32.4383 23.0061 32.5175 22.9918 32.5973 22.9937L32.5018 26.9926ZM33.8439 26.7518C34.2703 26.5821 34.6577 26.3282 34.9834 26.006L32.1698 23.1628C32.2249 23.1082 32.2911 23.0647 32.3647 23.0354L33.8439 26.7518ZM34.9834 26.006C35.309 25.6838 35.5663 25.2997 35.7406 24.877L32.0428 23.3518C32.0717 23.2817 32.1147 23.2173 32.1698 23.1628L34.9834 26.006ZM35.7406 24.877C35.915 24.4542 36.003 24.001 35.9999 23.5441L32 23.5717C31.9995 23.4966 32.0139 23.4219 32.0428 23.3518L35.7406 24.877ZM35.9998 23.5769C36.0042 23.1205 35.918 22.6675 35.7462 22.2444L32.0401 23.7493C32.0129 23.6822 31.9993 23.6107 32 23.539L35.9998 23.5769ZM35.7462 22.2444C35.5744 21.8212 35.3201 21.4359 34.9976 21.1113L32.1602 23.9308C32.108 23.8782 32.0674 23.8164 32.0401 23.7493L35.7462 22.2444ZM34.9976 21.1113C34.675 20.7867 34.2907 20.5294 33.8668 20.3551L32.3455 24.0545C32.2753 24.0257 32.2125 23.9834 32.1602 23.9308L34.9976 21.1113ZM33.8668 20.3551C33.4428 20.1807 32.9881 20.093 32.5294 20.0974L32.5677 24.0973C32.4912 24.098 32.4156 24.0833 32.3455 24.0545L33.8668 20.3551ZM32.5485 20.0974H27.1858V24.0974H32.5485V20.0974ZM27.2036 20.0974C26.745 20.0934 26.2906 20.1813 25.8669 20.3558L27.3902 24.0544C27.3202 24.0833 27.2446 24.0979 27.1681 24.0973L27.2036 20.0974ZM25.8669 20.3558C25.4433 20.5303 25.0593 20.7877 24.737 21.1122L27.5753 23.9307C27.5231 23.9833 27.4603 24.0255 27.3902 24.0544L25.8669 20.3558ZM24.737 21.1122C24.4147 21.4367 24.1607 21.8219 23.989 22.2449L27.6953 23.7492C27.6681 23.8163 27.6275 23.8781 27.5753 23.9307L24.737 21.1122ZM23.989 22.2449C23.8173 22.6679 23.7313 23.1207 23.7356 23.5769L27.7354 23.539C27.7361 23.6107 27.7226 23.6821 27.6953 23.7492L23.989 22.2449ZM23.7355 23.5579C23.7355 25.3749 25.1672 26.9931 27.1869 26.9931V22.9931C27.297 22.9931 27.4517 23.045 27.5732 23.17C27.6839 23.2841 27.7355 23.4266 27.7355 23.5579H23.7355ZM27.1869 33.9496H32.5496V29.9496H27.1869V33.9496ZM32.5319 33.9495C32.9904 33.9536 33.4448 33.8656 33.8685 33.6911L32.3452 29.9925C32.4153 29.9637 32.4908 29.949 32.5673 29.9497L32.5319 33.9495ZM33.8685 33.6911C34.2921 33.5167 34.6761 33.2593 34.9984 32.9347L32.1601 30.1163C32.2123 30.0637 32.2751 30.0214 32.3452 29.9925L33.8685 33.6911ZM34.9984 32.9347C35.3207 32.6102 35.5748 32.225 35.7464 31.802L32.0401 30.2977C32.0673 30.2306 32.1079 30.1688 32.1601 30.1163L34.9984 32.9347ZM35.7464 31.802C35.9181 31.379 36.0042 30.9262 35.9998 30.4701L32 30.508C31.9993 30.4363 32.0129 30.3648 32.0401 30.2977L35.7464 31.802ZM35.9999 30.5029C36.0031 30.0457 35.9149 29.5923 35.7404 29.1694L32.0429 30.6952C32.0139 30.6251 31.9995 30.5503 32 30.4752L35.9999 30.5029ZM35.7404 29.1694C35.5659 28.7465 35.3084 28.3623 34.9825 28.0401L32.1699 30.8843C32.1148 30.8298 32.0718 30.7653 32.0429 30.6952L35.7404 29.1694ZM34.9825 28.0401C34.6565 27.7178 34.2689 27.464 33.8421 27.2944L32.365 31.0117C32.2913 30.9824 32.2251 30.9388 32.1699 30.8843L34.9825 28.0401ZM33.8421 27.2944C33.4154 27.1248 32.9587 27.0431 32.4993 27.0544L32.5978 31.0532C32.5179 31.0552 32.4387 31.0409 32.365 31.0117L33.8421 27.2944ZM32.5485 27.0538H27.1858V31.0538H32.5485V27.0538ZM27.2336 27.0544C26.7742 27.0434 26.3176 27.1255 25.8909 27.2953L27.3708 31.0115C27.2972 31.0408 27.218 31.0551 27.1381 31.0532L27.2336 27.0544ZM25.8909 27.2953C25.4644 27.4652 25.0769 27.7193 24.7512 28.0418L27.5658 30.884C27.5106 30.9386 27.4445 30.9822 27.3708 31.0115L25.8909 27.2953ZM24.7512 28.0418C24.4255 28.3643 24.1683 28.7487 23.9941 29.1717L27.6927 30.6949C27.6638 30.765 27.6209 30.8294 27.5658 30.884L24.7512 28.0418ZM23.9941 29.1717C23.8199 29.5947 23.7321 30.0482 23.7355 30.5054L27.7354 30.4748C27.736 30.55 27.7216 30.6248 27.6927 30.6949L23.9941 29.1717ZM23.7356 30.4726C23.7316 30.9288 23.8179 31.3815 23.9899 31.8043L27.6952 30.2974C27.7225 30.3644 27.736 30.4358 27.7354 30.5076L23.7356 30.4726ZM23.9899 31.8043C24.1619 32.2272 24.4163 32.6122 24.7388 32.9365L27.5751 30.116C27.6273 30.1685 27.6679 30.2303 27.6952 30.2974L23.9899 31.8043ZM24.7388 32.9365C25.0613 33.2608 25.4455 33.5179 25.8692 33.6921L27.3899 29.9924C27.46 30.0212 27.5228 30.0634 27.5751 30.116L24.7388 32.9365ZM25.8692 33.6921C26.2931 33.8663 26.7475 33.9539 27.2061 33.9495L27.1677 29.9497C27.2442 29.949 27.3197 29.9636 27.3899 29.9924L25.8692 33.6921Z" fill="white" mask="url(#path-1-outside-1_502_74)"/>
</svg>
