<svg width="201" height="69" viewBox="0 0 201 69" fill="none" xmlns="http://www.w3.org/2000/svg">
<g filter="url(#filter0_d_574_184)">
<path fill-rule="evenodd" clip-rule="evenodd" d="M13.9587 5.16123C13.5399 5.01712 13.0914 4.96864 12.6494 5.01972C12.2073 5.0708 11.784 5.22 11.4135 5.45531C11.0431 5.69062 10.7358 6.00547 10.5164 6.37452C10.2971 6.74357 10.1718 7.1565 10.1506 7.5801C9.99274 9.55503 9.87529 12.6241 10.246 15.7997C10.6131 18.9596 11.4756 22.338 13.3623 24.8407C15.3168 27.5392 18.1082 28.7382 20.7032 29.2066C23.2799 29.6697 25.7171 29.4268 27.1046 29.1996C27.4884 29.1416 27.86 29.026 28.2057 28.857C26.1337 23.5754 27.1046 25.7995 25.9055 24.576C25.6816 24.3797 25.5487 24.1067 25.5362 23.8171C25.5236 23.5275 25.6323 23.2451 25.8385 23.0318C26.0446 22.8186 26.3312 22.6921 26.6353 22.6801C26.9394 22.6682 27.236 22.7717 27.4599 22.968C33.0978 27.9141 27.6423 21.7315 29.9272 27.0516C30.6081 25.8544 31.4596 24.0507 31.8322 21.9727C32.2745 19.5084 32.0524 16.6159 30.0391 13.9174C28.18 11.4181 25.0968 9.50085 22.0705 8.08694C19.0405 6.67127 15.9591 5.71002 13.9587 5.16123Z" fill="white"/>
<path d="M171.147 36.4829L170.168 33.9519C169.036 31.0043 168.131 28.5002 167.454 26.4397C166.776 24.3792 166.302 22.6011 166.03 21.1054C165.759 19.6098 165.679 18.3275 165.792 17.2584C165.904 16.1894 166.18 15.1813 166.618 14.234C167.514 12.3007 168.887 11.0218 170.735 10.3973C172.583 9.77282 174.437 9.96129 176.299 10.9627C177.328 11.5167 178.203 12.2703 178.924 13.2235C179.645 14.1767 180.151 15.2457 180.443 16.4306C181.498 15.9702 182.595 15.7641 183.736 15.8123C184.876 15.8606 185.961 16.1617 186.991 16.7157C188.852 17.7172 190.106 19.2013 190.753 21.1682C191.399 23.135 191.275 25.0851 190.378 27.0184C189.94 27.9644 189.357 28.8074 188.631 29.5474C187.905 30.2875 186.906 30.9892 185.632 31.6526C184.359 32.316 182.754 32.9754 180.819 33.6309C178.883 34.2864 176.481 35.0113 173.613 35.8056L171.147 36.4829Z" fill="white"/>
<mask id="path-3-outside-1_574_184" maskUnits="userSpaceOnUse" x="118.562" y="14.3408" width="62" height="40" fill="black">
<rect fill="white" x="118.562" y="14.3408" width="62" height="40"/>
<path d="M136.583 31.0528C136.73 29.6825 137.696 28.9973 139.483 28.9973C140.437 28.9973 141.147 29.0707 141.612 29.2176C142.077 29.3644 142.395 29.6213 142.566 29.9884C142.762 30.3554 142.872 30.6858 142.896 30.9794C142.945 31.2486 142.97 31.6646 142.97 32.2274V45.0741C142.97 45.6369 142.945 46.0651 142.896 46.3588C142.872 46.6279 142.774 46.946 142.603 47.3131C142.26 47.9493 141.416 48.2674 140.07 48.2674C138.749 48.2674 137.855 48.1084 137.391 47.7902C136.95 47.4477 136.693 46.9583 136.62 46.322C135.714 47.619 134.197 48.2674 132.068 48.2674C129.964 48.2674 128.006 47.3008 126.196 45.3677C124.385 43.4346 123.479 41.1956 123.479 38.6507C123.479 36.0814 124.385 33.8424 126.196 31.9337C128.031 30.0006 130.037 29.034 132.215 29.034C133.047 29.034 133.806 29.1809 134.491 29.4745C135.176 29.7681 135.653 30.0495 135.922 30.3187C136.192 30.5634 136.412 30.8081 136.583 31.0528ZM129.903 38.6874C129.903 39.4949 130.221 40.229 130.857 40.8897C131.493 41.5259 132.264 41.8441 133.169 41.8441C134.075 41.8441 134.821 41.5137 135.408 40.853C136.02 40.1923 136.326 39.4705 136.326 38.6874C136.326 37.8799 136.032 37.1336 135.445 36.4484C134.882 35.7633 134.112 35.4207 133.133 35.4207C132.178 35.4207 131.395 35.7633 130.784 36.4484C130.196 37.1336 129.903 37.8799 129.903 38.6874ZM145.895 23.1245C145.895 22.5617 145.907 22.1457 145.932 21.8766C145.981 21.5829 146.091 21.2526 146.262 20.8855C146.605 20.2249 147.559 19.8945 149.125 19.8945C150.618 19.8945 151.548 20.2249 151.915 20.8855C152.111 21.2526 152.221 21.5829 152.245 21.8766C152.294 22.1702 152.319 22.5984 152.319 23.1612V40.1556C152.319 41.0365 152.392 41.5994 152.539 41.8441C152.686 42.0643 153.004 42.1744 153.493 42.1744C154.007 42.1744 154.35 42.1989 154.521 42.2478C154.692 42.2723 154.9 42.3702 155.145 42.5414C155.634 42.8596 155.879 43.7282 155.879 45.1475C155.879 46.6891 155.634 47.6312 155.145 47.9738C154.509 48.4142 152.991 48.4876 150.593 48.194C148.709 47.9493 147.486 47.3253 146.923 46.322C146.238 45.123 145.895 43.2144 145.895 40.5961V23.1245ZM169.282 38.6507L174.163 42.6883C174.775 43.2021 175.154 43.5937 175.301 43.8628C175.473 44.132 175.558 44.3889 175.558 44.6336C175.558 45.2209 175.179 46.0162 174.42 47.0194C173.588 48.0472 172.854 48.561 172.218 48.561C171.68 48.561 170.933 48.2062 169.979 47.4966L169.612 47.2397C169.049 46.7747 168.181 45.9672 167.006 44.8171C165.831 43.6426 164.938 42.8106 164.327 42.3212V45.1475C164.327 45.7103 164.302 46.1385 164.253 46.4322C164.229 46.7013 164.119 47.0194 163.923 47.3865C163.605 48.0227 162.663 48.3408 161.096 48.3408C159.555 48.3408 158.613 48.0105 158.27 47.3498C158.099 46.9827 157.989 46.6646 157.94 46.3955C157.915 46.1018 157.903 45.6736 157.903 45.1108V23.1245C157.903 22.5617 157.915 22.1457 157.94 21.8766C157.989 21.5829 158.099 21.2526 158.27 20.8855C158.613 20.2249 159.567 19.8945 161.133 19.8945C162.308 19.8945 163.14 20.1025 163.629 20.5185C164.045 20.8611 164.265 21.3994 164.29 22.1335C164.314 22.3537 164.327 22.6963 164.327 23.1612V34.7967C164.767 34.4297 165.428 33.8057 166.309 32.9248C167.214 32.0438 167.887 31.4199 168.327 31.0528L168.768 30.7592C169.624 30.0985 170.358 29.7681 170.97 29.7681C171.582 29.7681 172.279 30.2698 173.062 31.273C173.87 32.2518 174.274 33.0226 174.274 33.5854C174.274 34.1483 173.821 34.8089 172.915 35.5675L169.282 38.6507Z"/>
</mask>
<path d="M136.583 31.0528C136.73 29.6825 137.696 28.9973 139.483 28.9973C140.437 28.9973 141.147 29.0707 141.612 29.2176C142.077 29.3644 142.395 29.6213 142.566 29.9884C142.762 30.3554 142.872 30.6858 142.896 30.9794C142.945 31.2486 142.97 31.6646 142.97 32.2274V45.0741C142.97 45.6369 142.945 46.0651 142.896 46.3588C142.872 46.6279 142.774 46.946 142.603 47.3131C142.26 47.9493 141.416 48.2674 140.07 48.2674C138.749 48.2674 137.855 48.1084 137.391 47.7902C136.95 47.4477 136.693 46.9583 136.62 46.322C135.714 47.619 134.197 48.2674 132.068 48.2674C129.964 48.2674 128.006 47.3008 126.196 45.3677C124.385 43.4346 123.479 41.1956 123.479 38.6507C123.479 36.0814 124.385 33.8424 126.196 31.9337C128.031 30.0006 130.037 29.034 132.215 29.034C133.047 29.034 133.806 29.1809 134.491 29.4745C135.176 29.7681 135.653 30.0495 135.922 30.3187C136.192 30.5634 136.412 30.8081 136.583 31.0528ZM129.903 38.6874C129.903 39.4949 130.221 40.229 130.857 40.8897C131.493 41.5259 132.264 41.8441 133.169 41.8441C134.075 41.8441 134.821 41.5137 135.408 40.853C136.02 40.1923 136.326 39.4705 136.326 38.6874C136.326 37.8799 136.032 37.1336 135.445 36.4484C134.882 35.7633 134.112 35.4207 133.133 35.4207C132.178 35.4207 131.395 35.7633 130.784 36.4484C130.196 37.1336 129.903 37.8799 129.903 38.6874ZM145.895 23.1245C145.895 22.5617 145.907 22.1457 145.932 21.8766C145.981 21.5829 146.091 21.2526 146.262 20.8855C146.605 20.2249 147.559 19.8945 149.125 19.8945C150.618 19.8945 151.548 20.2249 151.915 20.8855C152.111 21.2526 152.221 21.5829 152.245 21.8766C152.294 22.1702 152.319 22.5984 152.319 23.1612V40.1556C152.319 41.0365 152.392 41.5994 152.539 41.8441C152.686 42.0643 153.004 42.1744 153.493 42.1744C154.007 42.1744 154.35 42.1989 154.521 42.2478C154.692 42.2723 154.9 42.3702 155.145 42.5414C155.634 42.8596 155.879 43.7282 155.879 45.1475C155.879 46.6891 155.634 47.6312 155.145 47.9738C154.509 48.4142 152.991 48.4876 150.593 48.194C148.709 47.9493 147.486 47.3253 146.923 46.322C146.238 45.123 145.895 43.2144 145.895 40.5961V23.1245ZM169.282 38.6507L174.163 42.6883C174.775 43.2021 175.154 43.5937 175.301 43.8628C175.473 44.132 175.558 44.3889 175.558 44.6336C175.558 45.2209 175.179 46.0162 174.42 47.0194C173.588 48.0472 172.854 48.561 172.218 48.561C171.68 48.561 170.933 48.2062 169.979 47.4966L169.612 47.2397C169.049 46.7747 168.181 45.9672 167.006 44.8171C165.831 43.6426 164.938 42.8106 164.327 42.3212V45.1475C164.327 45.7103 164.302 46.1385 164.253 46.4322C164.229 46.7013 164.119 47.0194 163.923 47.3865C163.605 48.0227 162.663 48.3408 161.096 48.3408C159.555 48.3408 158.613 48.0105 158.27 47.3498C158.099 46.9827 157.989 46.6646 157.94 46.3955C157.915 46.1018 157.903 45.6736 157.903 45.1108V23.1245C157.903 22.5617 157.915 22.1457 157.94 21.8766C157.989 21.5829 158.099 21.2526 158.27 20.8855C158.613 20.2249 159.567 19.8945 161.133 19.8945C162.308 19.8945 163.14 20.1025 163.629 20.5185C164.045 20.8611 164.265 21.3994 164.29 22.1335C164.314 22.3537 164.327 22.6963 164.327 23.1612V34.7967C164.767 34.4297 165.428 33.8057 166.309 32.9248C167.214 32.0438 167.887 31.4199 168.327 31.0528L168.768 30.7592C169.624 30.0985 170.358 29.7681 170.97 29.7681C171.582 29.7681 172.279 30.2698 173.062 31.273C173.87 32.2518 174.274 33.0226 174.274 33.5854C174.274 34.1483 173.821 34.8089 172.915 35.5675L169.282 38.6507Z" fill="#F18D9E"/>
<path d="M136.583 31.0528L132.574 33.8593L140.059 44.5521L141.449 31.5742L136.583 31.0528ZM141.612 29.2176L143.085 24.5507L143.085 24.5507L141.612 29.2176ZM142.566 29.9884L138.131 32.0579L138.186 32.1762L138.248 32.2914L142.566 29.9884ZM142.896 30.9794L138.019 31.3858L138.039 31.6218L138.081 31.8549L142.896 30.9794ZM142.896 46.3588L138.069 45.5542L138.039 45.7341L138.022 45.9157L142.896 46.3588ZM142.603 47.3131L146.912 49.6333L146.978 49.5098L147.037 49.3827L142.603 47.3131ZM137.391 47.7902L134.386 51.6533L134.504 51.745L134.627 51.8293L137.391 47.7902ZM136.62 46.322L141.481 45.7611L140.001 32.9292L132.607 43.5206L136.62 46.322ZM126.196 45.3677L122.624 48.7134H122.624L126.196 45.3677ZM126.196 31.9337L122.646 28.5642L122.645 28.5654L126.196 31.9337ZM134.491 29.4745L132.563 33.9728L132.563 33.9728L134.491 29.4745ZM135.922 30.3187L132.462 33.7793L132.544 33.8616L132.63 33.94L135.922 30.3187ZM130.857 40.8897L127.332 44.2844L127.364 44.3177L127.397 44.3503L130.857 40.8897ZM135.408 40.853L131.817 37.528L131.784 37.5645L131.751 37.6016L135.408 40.853ZM135.445 36.4484L131.663 39.5548L131.696 39.5945L131.729 39.6334L135.445 36.4484ZM130.784 36.4484L127.133 33.189L127.1 33.2259L127.068 33.2635L130.784 36.4484ZM141.449 31.5742C141.43 31.754 141.364 32.0897 141.15 32.4845C140.927 32.8962 140.61 33.2475 140.248 33.5038C139.581 33.9767 139.118 33.8913 139.483 33.8913V24.1033C138.061 24.1033 136.222 24.3605 134.588 25.5186C132.768 26.8083 131.913 28.702 131.717 30.5314L141.449 31.5742ZM139.483 33.8913C139.844 33.8913 140.085 33.9056 140.227 33.9204C140.296 33.9275 140.323 33.9328 140.315 33.9314C140.31 33.9304 140.245 33.9183 140.138 33.8844L143.085 24.5507C141.881 24.1703 140.555 24.1033 139.483 24.1033V33.8913ZM140.138 33.8844C139.897 33.8084 139.522 33.6493 139.124 33.3276C138.709 32.9925 138.364 32.5562 138.131 32.0579L147.001 27.9188C146.133 26.0593 144.569 25.0192 143.085 24.5507L140.138 33.8844ZM138.248 32.2914C138.24 32.2778 138.199 32.1987 138.153 32.059C138.106 31.9193 138.045 31.69 138.019 31.3858L147.773 30.573C147.676 29.4019 147.274 28.4154 146.884 27.6853L138.248 32.2914ZM138.081 31.8549C138.068 31.7794 138.063 31.7343 138.062 31.7302C138.062 31.7239 138.063 31.7393 138.066 31.7807C138.071 31.8665 138.076 32.0111 138.076 32.2274H147.864C147.864 31.6104 147.843 30.8281 147.711 30.1039L138.081 31.8549ZM138.076 32.2274V45.0741H147.864V32.2274H138.076ZM138.076 45.0741C138.076 45.2892 138.071 45.4404 138.065 45.5382C138.059 45.6457 138.055 45.6386 138.069 45.5542L147.724 47.1633C147.84 46.4645 147.864 45.7138 147.864 45.0741H138.076ZM138.022 45.9157C138.047 45.6453 138.098 45.4539 138.127 45.36C138.157 45.2633 138.178 45.2221 138.168 45.2435L147.037 49.3827C147.341 48.733 147.676 47.8414 147.77 46.8018L138.022 45.9157ZM138.294 44.9928C138.812 44.031 139.588 43.5995 139.987 43.4492C140.317 43.3246 140.415 43.3734 140.07 43.3734V53.1614C141.669 53.1614 145.173 52.863 146.912 49.6333L138.294 44.9928ZM140.07 43.3734C139.835 43.3734 139.651 43.3663 139.51 43.3562C139.367 43.3459 139.29 43.3341 139.267 43.3299C139.24 43.3251 139.308 43.3348 139.442 43.3817C139.57 43.4269 139.835 43.5328 140.154 43.7512L134.627 51.8293C135.677 52.5475 136.79 52.8308 137.551 52.9663C138.377 53.1134 139.239 53.1614 140.07 53.1614V43.3734ZM140.395 43.9272C140.721 44.1803 141.001 44.5119 141.201 44.8914C141.393 45.2581 141.46 45.5738 141.481 45.7611L131.758 46.883C131.958 48.6147 132.753 50.3829 134.386 51.6533L140.395 43.9272ZM132.607 43.5206C132.642 43.4703 132.695 43.4107 132.762 43.3572C132.827 43.3047 132.874 43.283 132.879 43.2809C132.881 43.2802 132.827 43.3038 132.693 43.3274C132.559 43.3514 132.355 43.3734 132.068 43.3734V53.1614C135.191 53.1614 138.513 52.1603 140.633 49.1235L132.607 43.5206ZM132.068 43.3734C131.65 43.3734 130.908 43.2394 129.767 42.022L122.624 48.7134C125.105 51.3623 128.278 53.1614 132.068 53.1614V43.3734ZM129.767 42.022C128.768 40.9549 128.373 39.898 128.373 38.6507H118.585C118.585 42.4932 120.002 45.9143 122.624 48.7134L129.767 42.022ZM128.373 38.6507C128.373 37.3678 128.775 36.3256 129.746 35.3021L122.645 28.5654C119.995 31.3591 118.585 34.795 118.585 38.6507H128.373ZM129.745 35.3033C130.878 34.1097 131.671 33.928 132.215 33.928V24.14C128.404 24.14 125.184 25.8915 122.646 28.5642L129.745 35.3033ZM132.215 33.928C132.461 33.928 132.554 33.969 132.563 33.9728L136.419 24.9762C135.057 24.3927 133.633 24.14 132.215 24.14V33.928ZM132.563 33.9728C132.664 34.0162 132.741 34.0518 132.796 34.0789C132.823 34.0923 132.843 34.1028 132.857 34.1103C132.871 34.1178 132.877 34.1215 132.877 34.1213C132.876 34.1211 132.867 34.1159 132.851 34.1053C132.835 34.0948 132.81 34.0774 132.776 34.0528C132.713 34.0066 132.6 33.9174 132.462 33.7793L139.383 26.8581C138.428 25.9035 137.234 25.3258 136.419 24.9762L132.563 33.9728ZM132.63 33.94C132.656 33.9636 132.662 33.9706 132.652 33.9597C132.642 33.9487 132.613 33.9157 132.574 33.8593L140.592 28.2463C140.174 27.6482 139.696 27.1355 139.214 26.6974L132.63 33.94ZM125.009 38.6874C125.009 40.9356 125.947 42.8459 127.332 44.2844L134.382 37.495C134.411 37.5252 134.527 37.6556 134.632 37.8977C134.741 38.1508 134.797 38.4282 134.797 38.6874H125.009ZM127.397 44.3503C128.957 45.9108 130.975 46.738 133.169 46.738V36.9501C133.302 36.9501 133.524 36.976 133.779 37.0816C134.036 37.1874 134.216 37.3277 134.318 37.4292L127.397 44.3503ZM133.169 46.738C135.434 46.738 137.525 45.8385 139.066 44.1044L131.751 37.6016C131.883 37.4529 132.109 37.2622 132.427 37.1211C132.743 36.9813 133.015 36.9501 133.169 36.9501V46.738ZM139 44.178C140.314 42.758 141.22 40.8881 141.22 38.6874H131.432C131.432 38.4221 131.488 38.1491 131.591 37.9067C131.689 37.6752 131.795 37.5523 131.817 37.528L139 44.178ZM141.22 38.6874C141.22 36.5728 140.413 34.7242 139.161 33.2635L131.729 39.6334C131.712 39.6129 131.628 39.5079 131.552 39.3139C131.472 39.1123 131.432 38.8927 131.432 38.6874H141.22ZM139.227 33.342C137.63 31.3982 135.404 30.5267 133.133 30.5267V40.3147C133.046 40.3147 132.79 40.2977 132.457 40.1498C132.111 39.9958 131.84 39.77 131.663 39.5548L139.227 33.342ZM133.133 30.5267C130.846 30.5267 128.714 31.4186 127.133 33.189L134.434 39.7079C134.307 39.8502 134.091 40.03 133.791 40.1613C133.496 40.2906 133.252 40.3147 133.133 40.3147V30.5267ZM127.068 33.2635C125.816 34.7242 125.009 36.5728 125.009 38.6874H134.797C134.797 38.8927 134.756 39.1123 134.677 39.3139C134.601 39.5079 134.517 39.6129 134.499 39.6334L127.068 33.2635ZM145.932 21.8766L141.104 21.072L141.075 21.2519L141.058 21.4335L145.932 21.8766ZM146.262 20.8855L141.918 18.6328L141.871 18.7234L141.827 18.8159L146.262 20.8855ZM151.915 20.8855L156.233 18.5825L156.213 18.5455L156.193 18.5088L151.915 20.8855ZM152.245 21.8766L147.368 22.283L147.385 22.4831L147.418 22.6811L152.245 21.8766ZM152.539 41.8441L148.342 44.362L148.402 44.4618L148.467 44.5588L152.539 41.8441ZM154.521 42.2478L153.176 46.9535L153.498 47.0453L153.829 47.0926L154.521 42.2478ZM155.145 42.5414L152.338 46.5508L152.407 46.599L152.478 46.6448L155.145 42.5414ZM155.145 47.9738L157.931 51.9976L157.941 51.9904L157.951 51.9831L155.145 47.9738ZM150.593 48.194L149.963 53.0472L149.981 53.0495L149.999 53.0517L150.593 48.194ZM146.923 46.322L151.191 43.9277L151.182 43.9108L151.172 43.894L146.923 46.322ZM150.789 23.1245C150.789 22.8757 150.792 22.6811 150.796 22.5343C150.801 22.3792 150.806 22.3169 150.806 22.3197L141.058 21.4335C141.012 21.9354 141.001 22.5361 141.001 23.1245H150.789ZM150.759 22.6811C150.735 22.8245 150.707 22.9185 150.694 22.9562C150.681 22.9948 150.678 22.9955 150.697 22.9551L141.827 18.8159C141.531 19.4509 141.247 20.2157 141.104 21.072L150.759 22.6811ZM150.607 23.1383C150.021 24.2686 149.113 24.6712 148.836 24.767C148.596 24.8502 148.621 24.7885 149.125 24.7885V15.0005C148.063 15.0005 146.829 15.104 145.634 15.5175C144.403 15.9437 142.846 16.8418 141.918 18.6328L150.607 23.1383ZM149.125 24.7885C149.57 24.7885 149.562 24.8455 149.304 24.7539C148.997 24.6447 148.19 24.2581 147.637 23.2623L156.193 18.5088C155.273 16.8523 153.818 15.9701 152.58 15.5307C151.393 15.1087 150.173 15.0005 149.125 15.0005V24.7885ZM147.597 23.1886C147.589 23.175 147.548 23.0959 147.501 22.9562C147.455 22.8165 147.393 22.5872 147.368 22.283L157.122 21.4702C157.025 20.2991 156.622 19.3126 156.233 18.5825L147.597 23.1886ZM147.418 22.6811C147.404 22.5967 147.408 22.5896 147.414 22.6972C147.42 22.7949 147.425 22.9461 147.425 23.1612H157.213C157.213 22.5215 157.189 21.7708 157.073 21.072L147.418 22.6811ZM147.425 23.1612V40.1556H157.213V23.1612H147.425ZM147.425 40.1556C147.425 40.706 147.446 41.2989 147.521 41.8714C147.575 42.29 147.726 43.335 148.342 44.362L156.735 39.3261C156.88 39.5675 156.976 39.7798 157.037 39.9346C157.099 40.0917 157.139 40.2222 157.164 40.3132C157.212 40.4875 157.225 40.5973 157.226 40.6054C157.228 40.6151 157.213 40.4862 157.213 40.1556H147.425ZM148.467 44.5588C150.072 46.9667 152.706 47.0684 153.493 47.0684V37.2804C153.569 37.2804 153.956 37.2828 154.488 37.4671C155.062 37.6656 155.947 38.1332 156.611 39.1294L148.467 44.5588ZM153.493 47.0684C153.584 47.0684 153.654 47.0695 153.707 47.071C153.732 47.0717 153.752 47.0725 153.766 47.0732C153.78 47.0738 153.787 47.0743 153.787 47.0743C153.787 47.0743 153.784 47.0741 153.78 47.0737C153.775 47.0734 153.768 47.0727 153.759 47.0718C153.741 47.07 153.71 47.0665 153.668 47.0605C153.627 47.0546 153.565 47.0449 153.489 47.0295C153.414 47.0145 153.306 46.9906 153.176 46.9535L155.865 37.5421C154.931 37.2753 153.907 37.2804 153.493 37.2804V47.0684ZM153.829 47.0926C153.304 47.0176 152.923 46.8625 152.721 46.7677C152.511 46.6688 152.381 46.5805 152.338 46.5508L157.951 38.5321C157.473 38.197 156.51 37.5884 155.213 37.403L153.829 47.0926ZM152.478 46.6448C151.307 45.8839 151.016 44.8691 150.985 44.7585C150.937 44.5878 150.985 44.6615 150.985 45.1475H160.773C160.773 44.2142 160.699 43.144 160.406 42.1046C160.13 41.1253 159.472 39.5171 157.812 38.4381L152.478 46.6448ZM150.985 45.1475C150.985 45.7144 150.934 45.8736 150.959 45.7799C150.974 45.72 151.038 45.4884 151.217 45.1763C151.4 44.8558 151.745 44.3796 152.338 43.9645L157.951 51.9831C159.59 50.836 160.189 49.1762 160.432 48.2406C160.701 47.2048 160.773 46.1222 160.773 45.1475H150.985ZM152.359 43.95C152.865 43.5998 153.279 43.496 153.367 43.475C153.478 43.4483 153.473 43.4622 153.293 43.4709C152.925 43.4887 152.252 43.4666 151.188 43.3363L149.999 53.0517C151.333 53.215 152.618 53.303 153.766 53.2474C154.71 53.2018 156.427 53.0382 157.931 51.9976L152.359 43.95ZM151.224 43.3408C150.945 43.3046 150.749 43.2617 150.622 43.226C150.493 43.1902 150.458 43.1682 150.486 43.1828C150.517 43.1985 150.625 43.258 150.765 43.3855C150.909 43.5173 151.063 43.6986 151.191 43.9277L142.655 48.7164C144.358 51.752 147.541 52.7327 149.963 53.0472L151.224 43.3408ZM151.172 43.894C151.194 43.932 151.079 43.736 150.969 43.1267C150.863 42.5369 150.789 41.7087 150.789 40.5961H141.001C141.001 43.4278 141.334 46.4058 142.674 48.7501L151.172 43.894ZM150.789 40.5961V23.1245H141.001V40.5961H150.789ZM169.282 38.6507L166.115 34.919L161.661 38.6987L166.163 42.422L169.282 38.6507ZM174.163 42.6883L177.311 38.9409L177.297 38.9289L177.283 38.917L174.163 42.6883ZM175.301 43.8628L171.005 46.2063L171.084 46.3511L171.172 46.4903L175.301 43.8628ZM174.42 47.0194L178.224 50.0987L178.275 50.0357L178.324 49.9711L174.42 47.0194ZM169.979 47.4966L172.899 43.5694L172.843 43.5275L172.786 43.4873L169.979 47.4966ZM169.612 47.2397L166.495 51.0128L166.646 51.1371L166.806 51.249L169.612 47.2397ZM167.006 44.8172L163.545 48.2777L163.564 48.2959L163.582 48.314L167.006 44.8172ZM164.327 42.3212L167.384 38.4997L159.433 32.1387V42.3212H164.327ZM164.253 46.4322L159.426 45.6276L159.396 45.8075L159.379 45.9891L164.253 46.4322ZM163.923 47.3865L159.605 45.0834L159.574 45.1402L159.545 45.1978L163.923 47.3865ZM158.27 47.3498L153.835 49.4194L153.879 49.5119L153.926 49.6026L158.27 47.3498ZM157.94 46.3955L153.063 46.8019L153.082 47.0379L153.125 47.2709L157.94 46.3955ZM157.94 21.8766L153.112 21.072L153.082 21.2519L153.066 21.4335L157.94 21.8766ZM158.27 20.8855L153.926 18.6328L153.879 18.7234L153.835 18.8159L158.27 20.8855ZM163.629 20.5185L160.46 24.2474L160.489 24.2721L160.518 24.2963L163.629 20.5185ZM164.29 22.1335L159.399 22.2966L159.405 22.4858L159.426 22.674L164.29 22.1335ZM164.327 34.7967H159.433V45.2456L167.46 38.5564L164.327 34.7967ZM166.309 32.9248L162.896 29.4171L162.872 29.4405L162.848 29.4642L166.309 32.9248ZM168.327 31.0528L165.613 26.9808L165.395 27.1258L165.194 27.2931L168.327 31.0528ZM168.768 30.7592L171.483 34.8312L171.623 34.7374L171.757 34.6341L168.768 30.7592ZM173.062 31.273L169.204 34.2842L169.245 34.3364L169.287 34.3875L173.062 31.273ZM172.915 35.5675L169.772 31.8162L169.761 31.8259L169.749 31.8358L172.915 35.5675ZM166.163 42.422L171.044 46.4595L177.283 38.917L172.401 34.8795L166.163 42.422ZM171.016 46.4356C171.126 46.5283 171.212 46.6041 171.278 46.6639C171.344 46.7246 171.38 46.7602 171.392 46.7725C171.406 46.7874 171.375 46.7574 171.319 46.6866C171.29 46.6495 171.246 46.593 171.195 46.5182C171.145 46.4444 171.078 46.3397 171.005 46.2063L179.598 41.5193C178.952 40.3353 177.87 39.4102 177.311 38.9409L171.016 46.4356ZM171.172 46.4903C170.993 46.2088 170.664 45.5633 170.664 44.6336H180.452C180.452 43.2145 179.952 42.0552 179.43 41.2353L171.172 46.4903ZM170.664 44.6336C170.664 44.2593 170.724 43.9782 170.767 43.8183C170.812 43.6573 170.854 43.5694 170.856 43.5638C170.86 43.5557 170.841 43.5964 170.782 43.6895C170.724 43.781 170.639 43.9066 170.517 44.0678L178.324 49.9711C178.826 49.3076 179.313 48.5697 179.691 47.7773C180.051 47.0221 180.452 45.9286 180.452 44.6336H170.664ZM170.617 43.9402C170.365 44.2507 170.3 44.2636 170.439 44.1663C170.57 44.0746 171.198 43.6671 172.218 43.6671V53.455C173.875 53.455 175.187 52.7905 176.052 52.185C176.925 51.5738 177.644 50.8159 178.224 50.0987L170.617 43.9402ZM172.218 43.6671C172.614 43.6671 172.911 43.7309 173.078 43.7772C173.248 43.824 173.344 43.8693 173.356 43.875C173.371 43.8821 173.338 43.8673 173.252 43.8139C173.169 43.7615 173.052 43.6826 172.899 43.5694L167.059 51.4238C167.691 51.8939 168.397 52.3551 169.153 52.7149C169.865 53.0534 170.937 53.455 172.218 53.455V43.6671ZM172.786 43.4873L172.419 43.2304L166.806 51.249L167.173 51.5059L172.786 43.4873ZM172.729 43.4666C172.338 43.144 171.597 42.4626 170.43 41.3203L163.582 48.314C164.765 49.4718 165.76 50.4055 166.495 51.0128L172.729 43.4666ZM170.467 41.3566C169.273 40.1627 168.22 39.1684 167.384 38.4997L161.269 46.1428C161.657 46.4528 162.39 47.1225 163.545 48.2777L170.467 41.3566ZM159.433 42.3212V45.1475H169.221V42.3212H159.433ZM159.433 45.1475C159.433 45.3626 159.428 45.5139 159.422 45.6116C159.416 45.7191 159.412 45.712 159.426 45.6276L169.081 47.2367C169.197 46.5379 169.221 45.7873 169.221 45.1475H159.433ZM159.379 45.9891C159.41 45.6466 159.483 45.3998 159.527 45.2717C159.573 45.1406 159.609 45.0753 159.605 45.0834L168.241 49.6895C168.596 49.0247 169.02 48.0497 169.127 46.8752L159.379 45.9891ZM159.545 45.1978C160.161 43.9661 161.153 43.5528 161.412 43.4655C161.649 43.3853 161.617 43.4468 161.096 43.4468V53.2348C162.142 53.2348 163.364 53.1373 164.543 52.739C165.744 52.3336 167.366 51.4431 168.3 49.5751L159.545 45.1978ZM161.096 43.4468C160.611 43.4468 160.601 43.3863 160.853 43.4748C161.148 43.5783 162.039 43.9869 162.615 45.097L153.926 49.6026C154.844 51.3734 156.377 52.2775 157.614 52.7114C158.809 53.1302 160.041 53.2348 161.096 53.2348V43.4468ZM162.705 45.2802C162.677 45.22 162.674 45.2066 162.684 45.235C162.693 45.2609 162.726 45.3598 162.755 45.52L153.125 47.2709C153.275 48.099 153.563 48.8357 153.835 49.4194L162.705 45.2802ZM162.817 45.989C162.81 45.902 162.797 45.6362 162.797 45.1108H153.009C153.009 45.711 153.021 46.3016 153.063 46.8019L162.817 45.989ZM162.797 45.1108V23.1245H153.009V45.1108H162.797ZM162.797 23.1245C162.797 22.8757 162.8 22.6811 162.804 22.5343C162.809 22.3792 162.814 22.3169 162.814 22.3197L153.066 21.4335C153.02 21.9354 153.009 22.5361 153.009 23.1245H162.797ZM162.767 22.6811C162.743 22.8245 162.715 22.9185 162.702 22.9562C162.689 22.9948 162.686 22.9955 162.705 22.9551L153.835 18.8159C153.539 19.4509 153.255 20.2157 153.112 21.072L162.767 22.6811ZM162.615 23.1383C162.029 24.2686 161.121 24.6712 160.844 24.767C160.604 24.8502 160.629 24.7885 161.133 24.7885V15.0005C160.071 15.0005 158.837 15.104 157.642 15.5175C156.411 15.9437 154.854 16.8418 153.926 18.6328L162.615 23.1383ZM161.133 24.7885C161.456 24.7885 161.536 24.8196 161.451 24.7984C161.37 24.7782 160.948 24.6622 160.46 24.2474L166.799 16.7896C164.94 15.2098 162.616 15.0005 161.133 15.0005V24.7885ZM160.518 24.2963C160.052 23.9128 159.748 23.4511 159.577 23.0322C159.418 22.6436 159.401 22.3638 159.399 22.2966L169.181 21.9705C169.128 20.3651 168.594 18.2676 166.74 16.7407L160.518 24.2963ZM159.426 22.674C159.419 22.6159 159.423 22.623 159.426 22.7303C159.43 22.8271 159.433 22.9681 159.433 23.1612H169.221C169.221 22.6668 169.21 22.0977 169.154 21.5931L159.426 22.674ZM159.433 23.1612V34.7967H169.221V23.1612H159.433ZM167.46 38.5564C168.082 38.0375 168.875 37.2791 169.769 36.3853L162.848 29.4642C161.98 30.3323 161.452 30.8218 161.193 31.037L167.46 38.5564ZM169.721 36.4324C170.617 35.5608 171.175 35.05 171.46 34.8125L165.194 27.2931C164.598 27.7897 163.811 28.5268 162.896 29.4171L169.721 36.4324ZM171.042 35.1248L171.483 34.8312L166.053 26.6871L165.613 26.9808L171.042 35.1248ZM171.757 34.6341C171.979 34.4631 172.047 34.4439 171.969 34.4788C171.895 34.5122 171.539 34.6621 170.97 34.6621V24.8741C168.717 24.8741 166.906 26.0143 165.779 26.8842L171.757 34.6341ZM170.97 34.6621C169.911 34.6621 169.252 34.2305 169.094 34.1173C168.931 34.0001 168.975 33.9907 169.204 34.2842L176.92 28.2619C176.366 27.5521 175.67 26.7902 174.81 26.1714C173.955 25.5566 172.641 24.8741 170.97 24.8741V34.6621ZM169.287 34.3875C169.418 34.5456 169.508 34.6672 169.568 34.7538C169.63 34.8423 169.645 34.8752 169.635 34.8561C169.627 34.8403 169.571 34.7323 169.514 34.5424C169.457 34.3539 169.38 34.0235 169.38 33.5854H179.168C179.168 32.1969 178.693 31.0531 178.306 30.3144C177.894 29.527 177.368 28.8018 176.837 28.1586L169.287 34.3875ZM169.38 33.5854C169.38 32.5428 169.792 31.8902 169.897 31.7368C170.011 31.5704 170.029 31.601 169.772 31.8162L176.058 39.3189C176.707 38.7754 177.404 38.0964 177.971 37.2693C178.529 36.4553 179.168 35.1909 179.168 33.5854H169.38ZM169.749 31.8358L166.115 34.919L172.448 42.3824L176.082 39.2992L169.749 31.8358Z" fill="white" mask="url(#path-3-outside-1_574_184)"/>
<mask id="path-5-outside-2_574_184" maskUnits="userSpaceOnUse" x="93.0918" y="16.3408" width="37" height="37" fill="black">
<rect fill="white" x="93.0918" y="16.3408" width="37" height="37"/>
<path d="M101.322 21.3994H121.73C122.513 21.3994 123.088 21.4973 123.455 21.6931C123.822 21.8643 124.067 22.1457 124.189 22.5373C124.311 22.9288 124.373 23.4427 124.373 24.0789C124.373 24.7151 124.311 25.229 124.189 25.6205C124.067 25.9875 123.859 26.2445 123.565 26.3913C123.125 26.6115 122.501 26.7216 121.693 26.7216H114.682V45.1842C114.682 45.747 114.658 46.163 114.609 46.4322C114.585 46.7013 114.474 47.0194 114.279 47.3865C114.107 47.7291 113.789 47.9738 113.324 48.1206C112.859 48.2674 112.248 48.3408 111.489 48.3408C110.731 48.3408 110.119 48.2674 109.654 48.1206C109.213 47.9738 108.895 47.7291 108.7 47.3865C108.528 47.0194 108.418 46.7013 108.369 46.4322C108.345 46.1385 108.332 45.7103 108.332 45.1475V26.7216H101.285C100.502 26.7216 99.927 26.636 99.56 26.4647C99.1929 26.2689 98.9482 25.9753 98.8259 25.5838C98.7035 25.1923 98.6424 24.6784 98.6424 24.0422C98.6424 23.4059 98.7035 22.9043 98.8259 22.5373C98.9482 22.1457 99.1562 21.8766 99.4499 21.7298C99.8903 21.5095 100.514 21.3994 101.322 21.3994Z"/>
</mask>
<path d="M101.322 21.3994H121.73C122.513 21.3994 123.088 21.4973 123.455 21.6931C123.822 21.8643 124.067 22.1457 124.189 22.5373C124.311 22.9288 124.373 23.4427 124.373 24.0789C124.373 24.7151 124.311 25.229 124.189 25.6205C124.067 25.9875 123.859 26.2445 123.565 26.3913C123.125 26.6115 122.501 26.7216 121.693 26.7216H114.682V45.1842C114.682 45.747 114.658 46.163 114.609 46.4322C114.585 46.7013 114.474 47.0194 114.279 47.3865C114.107 47.7291 113.789 47.9738 113.324 48.1206C112.859 48.2674 112.248 48.3408 111.489 48.3408C110.731 48.3408 110.119 48.2674 109.654 48.1206C109.213 47.9738 108.895 47.7291 108.7 47.3865C108.528 47.0194 108.418 46.7013 108.369 46.4322C108.345 46.1385 108.332 45.7103 108.332 45.1475V26.7216H101.285C100.502 26.7216 99.927 26.636 99.56 26.4647C99.1929 26.2689 98.9482 25.9753 98.8259 25.5838C98.7035 25.1923 98.6424 24.6784 98.6424 24.0422C98.6424 23.4059 98.7035 22.9043 98.8259 22.5373C98.9482 22.1457 99.1562 21.8766 99.4499 21.7298C99.8903 21.5095 100.514 21.3994 101.322 21.3994Z" fill="url(#paint0_linear_574_184)"/>
<path d="M123.455 21.6931L121.152 26.0113L121.267 26.0727L121.385 26.1279L123.455 21.6931ZM124.189 22.5373L119.518 23.997L119.518 23.997L124.189 22.5373ZM124.189 25.6205L128.832 27.1681L128.846 27.1243L128.86 27.0802L124.189 25.6205ZM123.565 26.3913L121.376 22.014L121.376 22.014L123.565 26.3913ZM114.682 26.7216V21.8276H109.788V26.7216H114.682ZM114.609 46.4322L109.794 45.5567L109.755 45.7716L109.735 45.9891L114.609 46.4322ZM114.279 47.3865L109.96 45.0834L109.93 45.1402L109.901 45.1978L114.279 47.3865ZM109.654 48.1206L108.106 52.7634L108.143 52.7757L108.18 52.7874L109.654 48.1206ZM108.7 47.3865L104.265 49.4561L104.35 49.6392L104.45 49.8146L108.7 47.3865ZM108.369 46.4322L103.492 46.8386L103.512 47.0746L103.554 47.3076L108.369 46.4322ZM108.332 26.7216H113.226V21.8276H108.332V26.7216ZM99.56 26.4647L97.2569 30.7829L97.3721 30.8443L97.4904 30.8995L99.56 26.4647ZM98.8259 25.5838L94.1547 27.0435L94.1547 27.0435L98.8259 25.5838ZM98.8259 22.5373L103.469 24.0849L103.483 24.0411L103.497 23.997L98.8259 22.5373ZM99.4499 21.7298L101.639 26.1071L101.639 26.1071L99.4499 21.7298ZM101.322 26.2934H121.73V16.5054H101.322V26.2934ZM121.73 26.2934C121.933 26.2934 121.985 26.3072 121.927 26.2974C121.894 26.2917 121.808 26.2754 121.684 26.2369C121.562 26.1986 121.375 26.1303 121.152 26.0113L125.758 17.3748C124.298 16.5964 122.724 16.5054 121.73 16.5054V26.2934ZM121.385 26.1279C121.002 25.9491 120.585 25.6634 120.221 25.2439C119.857 24.8256 119.638 24.3815 119.518 23.997L128.86 21.0775C128.333 19.3917 127.156 18.0197 125.524 17.2582L121.385 26.1279ZM119.518 23.997C119.493 23.9162 119.479 23.8573 119.473 23.8261C119.466 23.7945 119.466 23.783 119.467 23.7948C119.468 23.8064 119.471 23.8356 119.474 23.8846C119.477 23.9334 119.479 23.9977 119.479 24.0789H129.267C129.267 23.1886 129.188 22.1267 128.86 21.0775L119.518 23.997ZM119.479 24.0789C119.479 24.1601 119.477 24.2244 119.474 24.2731C119.471 24.3221 119.468 24.3513 119.467 24.3629C119.466 24.3748 119.466 24.3632 119.473 24.3316C119.479 24.3004 119.493 24.2416 119.518 24.1607L128.86 27.0802C129.188 26.031 129.267 24.9692 129.267 24.0789H119.479ZM119.546 24.0729C119.64 23.7927 119.815 23.4073 120.137 23.0092C120.47 22.5985 120.894 22.2552 121.376 22.014L125.754 30.7686C127.414 29.9386 128.378 28.5299 128.832 27.1681L119.546 24.0729ZM121.376 22.014C121.532 21.936 121.662 21.8891 121.75 21.8617C121.838 21.8344 121.896 21.823 121.916 21.8195C121.949 21.8137 121.885 21.8276 121.693 21.8276V31.6156C122.831 31.6156 124.333 31.4791 125.754 30.7686L121.376 22.014ZM121.693 21.8276H114.682V31.6156H121.693V21.8276ZM109.788 26.7216V45.1842H119.576V26.7216H109.788ZM109.788 45.1842C109.788 45.4005 109.784 45.545 109.779 45.6309C109.776 45.6723 109.774 45.6876 109.775 45.6814C109.775 45.6772 109.78 45.6322 109.794 45.5567L119.424 47.3076C119.556 46.5834 119.576 45.8011 119.576 45.1842H109.788ZM109.735 45.9891C109.766 45.6466 109.839 45.3998 109.883 45.2717C109.929 45.1406 109.965 45.0753 109.96 45.0834L118.597 49.6895C118.951 49.0247 119.376 48.0497 119.483 46.8752L109.735 45.9891ZM109.901 45.1978C110.162 44.6758 110.529 44.2543 110.928 43.9479C111.308 43.6555 111.651 43.5168 111.851 43.4538L114.798 52.7874C116.163 52.3565 117.741 51.4054 118.656 49.5751L109.901 45.1978ZM111.851 43.4538C111.972 43.4153 112.012 43.4172 111.934 43.4266C111.859 43.4355 111.716 43.4468 111.489 43.4468V53.2348C112.502 53.2348 113.668 53.1442 114.798 52.7874L111.851 43.4538ZM111.489 43.4468C111.262 43.4468 111.119 43.4355 111.044 43.4266C110.966 43.4172 111.006 43.4153 111.128 43.4538L108.18 52.7874C109.31 53.1442 110.476 53.2348 111.489 53.2348V43.4468ZM111.201 43.4777C111.42 43.5504 111.733 43.6896 112.069 43.9479C112.414 44.2137 112.719 44.5572 112.949 44.9584L104.45 49.8146C105.347 51.383 106.737 52.3071 108.106 52.7634L111.201 43.4777ZM113.134 45.3169C113.106 45.2567 113.103 45.2433 113.113 45.2717C113.122 45.2976 113.155 45.3965 113.184 45.5567L103.554 47.3076C103.705 48.1357 103.992 48.8724 104.265 49.4561L113.134 45.3169ZM113.246 46.0257C113.239 45.9387 113.226 45.6729 113.226 45.1475H103.438C103.438 45.7477 103.45 46.3383 103.492 46.8386L113.246 46.0257ZM113.226 45.1475V26.7216H103.438V45.1475H113.226ZM108.332 21.8276H101.285V31.6156H108.332V21.8276ZM101.285 21.8276C101.058 21.8276 100.971 21.8143 100.987 21.8168C101 21.8187 101.062 21.8283 101.162 21.8556C101.26 21.8823 101.424 21.9341 101.63 22.0298L97.4904 30.8995C98.8642 31.5406 100.332 31.6156 101.285 31.6156V21.8276ZM101.863 22.1465C102.187 22.3195 102.544 22.5847 102.861 22.9646C103.178 23.3456 103.381 23.7529 103.497 24.124L94.1547 27.0435C94.6664 28.6812 95.7737 29.9919 97.2569 30.7829L101.863 22.1465ZM103.497 24.124C103.522 24.2049 103.536 24.2637 103.542 24.2949C103.548 24.3265 103.549 24.3381 103.548 24.3262C103.547 24.3146 103.544 24.2854 103.541 24.2364C103.538 24.1877 103.536 24.1234 103.536 24.0422H93.7484C93.7484 24.9325 93.8268 25.9943 94.1547 27.0435L103.497 24.124ZM103.536 24.0422C103.536 23.9608 103.538 23.8983 103.541 23.853C103.543 23.8073 103.546 23.7843 103.546 23.7812C103.547 23.7777 103.544 23.8019 103.534 23.8494C103.524 23.8963 103.505 23.9775 103.469 24.0849L94.1831 20.9896C93.8218 22.0733 93.7484 23.173 93.7484 24.0422H103.536ZM103.497 23.997C103.42 24.2446 103.262 24.6256 102.946 25.0342C102.617 25.4603 102.174 25.8393 101.639 26.1071L97.2612 17.3524C95.4958 18.2352 94.5686 19.7531 94.1547 21.0775L103.497 23.997ZM101.639 26.1071C101.483 26.1851 101.353 26.2319 101.265 26.2593C101.177 26.2867 101.119 26.298 101.099 26.3015C101.066 26.3073 101.13 26.2934 101.322 26.2934V16.5054C100.184 16.5054 98.6823 16.6419 97.2612 17.3524L101.639 26.1071Z" fill="white" mask="url(#path-5-outside-2_574_184)"/>
<mask id="path-7-outside-3_574_184" maskUnits="userSpaceOnUse" x="18.235" y="14.3408" width="87" height="39" fill="black">
<rect fill="white" x="18.235" y="14.3408" width="87" height="39"/>
<path d="M43.5605 26.8684C44.1968 28.1654 44.5149 29.6091 44.5149 31.1996C44.5149 32.7902 44.1968 34.2339 43.5605 35.5308C42.9243 36.8032 42.1046 37.8187 41.1013 38.5773C39.0703 40.1434 36.9659 40.9264 34.7881 40.9264H30.2V45.0741C30.2 45.6369 30.1755 46.0651 30.1265 46.3588C30.1021 46.6279 29.992 46.946 29.7962 47.3131C29.4536 47.9738 28.4993 48.3041 26.9332 48.3041C25.2203 48.3041 24.2171 47.8514 23.9234 46.946C23.7766 46.53 23.7032 45.8938 23.7032 45.0374V24.6661C23.7032 24.1033 23.7154 23.6874 23.7399 23.4182C23.7888 23.1245 23.9112 22.7942 24.1069 22.4271C24.4495 21.7665 25.4038 21.4361 26.9699 21.4361H34.8248C36.9781 21.4361 39.0703 22.2192 41.1013 23.7852C42.1046 24.5438 42.9243 25.5715 43.5605 26.8684ZM34.8248 34.4297C35.5589 34.4297 36.2807 34.1605 36.9904 33.6221C37.7 33.0838 38.0548 32.2763 38.0548 31.1996C38.0548 30.1229 37.7 29.3154 36.9904 28.7771C36.2807 28.2143 35.5466 27.9329 34.7881 27.9329H30.2V34.4297H34.8248ZM46.8947 23.1245C46.8947 22.5617 46.9069 22.1457 46.9314 21.8766C46.9803 21.5829 47.0904 21.2526 47.2617 20.8855C47.6043 20.2249 48.5586 19.8945 50.1247 19.8945C51.6174 19.8945 52.5472 20.2249 52.9143 20.8855C53.11 21.2526 53.2201 21.5829 53.2446 21.8766C53.2936 22.1702 53.318 22.5984 53.318 23.1612V40.1556C53.318 41.0365 53.3914 41.5994 53.5383 41.8441C53.6851 42.0643 54.0032 42.1744 54.4926 42.1744C55.0065 42.1744 55.349 42.1989 55.5203 42.2478C55.6916 42.2723 55.8996 42.3702 56.1443 42.5414C56.6337 42.8596 56.8784 43.7282 56.8784 45.1475C56.8784 46.6891 56.6337 47.6312 56.1443 47.9738C55.5081 48.4142 53.9909 48.4876 51.5929 48.194C49.7087 47.9493 48.4852 47.3253 47.9224 46.322C47.2372 45.123 46.8947 43.2144 46.8947 40.5961V23.1245ZM71.4557 31.0528C71.6025 29.6825 72.5691 28.9973 74.3554 28.9973C75.3097 28.9973 76.0193 29.0707 76.4843 29.2176C76.9492 29.3644 77.2673 29.6213 77.4386 29.9884C77.6344 30.3554 77.7445 30.6858 77.7689 30.9794C77.8179 31.2486 77.8424 31.6646 77.8424 32.2274V45.0741C77.8424 45.6369 77.8179 46.0651 77.7689 46.3588C77.7445 46.6279 77.6466 46.946 77.4753 47.3131C77.1327 47.9493 76.2885 48.2674 74.9427 48.2674C73.6213 48.2674 72.7281 48.1084 72.2632 47.7902C71.8228 47.4477 71.5658 46.9583 71.4924 46.322C70.587 47.619 69.0699 48.2674 66.941 48.2674C64.8366 48.2674 62.879 47.3008 61.0682 45.3677C59.2574 43.4346 58.352 41.1956 58.352 38.6507C58.352 36.0814 59.2574 33.8424 61.0682 31.9337C62.9035 30.0006 64.91 29.034 67.0878 29.034C67.9198 29.034 68.6784 29.1809 69.3635 29.4745C70.0487 29.7681 70.5258 30.0495 70.795 30.3187C71.0642 30.5634 71.2844 30.8081 71.4557 31.0528ZM64.7754 38.6874C64.7754 39.4949 65.0935 40.229 65.7297 40.8897C66.366 41.5259 67.1368 41.8441 68.0421 41.8441C68.9475 41.8441 69.6939 41.5137 70.2811 40.853C70.8929 40.1923 71.1988 39.4705 71.1988 38.6874C71.1988 37.8799 70.9051 37.1336 70.3179 36.4484C69.755 35.7633 68.9842 35.4207 68.0054 35.4207C67.0511 35.4207 66.2681 35.7633 65.6563 36.4484C65.069 37.1336 64.7754 37.8799 64.7754 38.6874ZM91.5224 28.9973C93.9694 28.9973 96.0004 29.9394 97.6154 31.8236C99.2549 33.6833 100.075 35.959 100.075 38.6507V45.1108C100.075 45.6736 100.05 46.1018 100.001 46.3955C99.9768 46.6646 99.8789 46.9705 99.7076 47.3131C99.365 47.9738 98.4107 48.3041 96.8446 48.3041C95.1072 48.3041 94.104 47.8514 93.8348 46.946C93.688 46.53 93.6146 45.9061 93.6146 45.0741V38.614C93.6146 37.6107 93.3209 36.8277 92.7337 36.2649C92.1709 35.7021 91.4 35.4207 90.4212 35.4207C89.4669 35.4207 88.6839 35.7143 88.0721 36.3016C87.4849 36.8889 87.1912 37.6597 87.1912 38.614V45.1108C87.1912 45.6736 87.1667 46.1018 87.1178 46.3955C87.0933 46.6646 86.9832 46.9705 86.7875 47.3131C86.4694 47.9738 85.5273 48.3041 83.9612 48.3041C82.4196 48.3041 81.4775 47.9738 81.1349 47.3131C80.9636 46.946 80.8535 46.6279 80.8046 46.3588C80.7801 46.0651 80.7679 45.6369 80.7679 45.0741V32.0805C80.7679 31.5422 80.7801 31.1384 80.8046 30.8693C80.8535 30.5756 80.9759 30.2575 81.1716 29.915C81.5142 29.3032 82.4563 28.9973 83.9979 28.9973C85.4906 28.9973 86.4082 29.2787 86.7508 29.8415C86.9955 30.2575 87.1178 30.7592 87.1178 31.3464C87.2157 31.1752 87.4359 30.9305 87.7785 30.6123C88.1211 30.2942 88.4514 30.0373 88.7695 29.8415C89.6015 29.2787 90.5191 28.9973 91.5224 28.9973Z"/>
</mask>
<path d="M43.5605 26.8684C44.1968 28.1654 44.5149 29.6091 44.5149 31.1996C44.5149 32.7902 44.1968 34.2339 43.5605 35.5308C42.9243 36.8032 42.1046 37.8187 41.1013 38.5773C39.0703 40.1434 36.9659 40.9264 34.7881 40.9264H30.2V45.0741C30.2 45.6369 30.1755 46.0651 30.1265 46.3588C30.1021 46.6279 29.992 46.946 29.7962 47.3131C29.4536 47.9738 28.4993 48.3041 26.9332 48.3041C25.2203 48.3041 24.2171 47.8514 23.9234 46.946C23.7766 46.53 23.7032 45.8938 23.7032 45.0374V24.6661C23.7032 24.1033 23.7154 23.6874 23.7399 23.4182C23.7888 23.1245 23.9112 22.7942 24.1069 22.4271C24.4495 21.7665 25.4038 21.4361 26.9699 21.4361H34.8248C36.9781 21.4361 39.0703 22.2192 41.1013 23.7852C42.1046 24.5438 42.9243 25.5715 43.5605 26.8684ZM34.8248 34.4297C35.5589 34.4297 36.2807 34.1605 36.9904 33.6221C37.7 33.0838 38.0548 32.2763 38.0548 31.1996C38.0548 30.1229 37.7 29.3154 36.9904 28.7771C36.2807 28.2143 35.5466 27.9329 34.7881 27.9329H30.2V34.4297H34.8248ZM46.8947 23.1245C46.8947 22.5617 46.9069 22.1457 46.9314 21.8766C46.9803 21.5829 47.0904 21.2526 47.2617 20.8855C47.6043 20.2249 48.5586 19.8945 50.1247 19.8945C51.6174 19.8945 52.5472 20.2249 52.9143 20.8855C53.11 21.2526 53.2201 21.5829 53.2446 21.8766C53.2936 22.1702 53.318 22.5984 53.318 23.1612V40.1556C53.318 41.0365 53.3914 41.5994 53.5383 41.8441C53.6851 42.0643 54.0032 42.1744 54.4926 42.1744C55.0065 42.1744 55.349 42.1989 55.5203 42.2478C55.6916 42.2723 55.8996 42.3702 56.1443 42.5414C56.6337 42.8596 56.8784 43.7282 56.8784 45.1475C56.8784 46.6891 56.6337 47.6312 56.1443 47.9738C55.5081 48.4142 53.9909 48.4876 51.5929 48.194C49.7087 47.9493 48.4852 47.3253 47.9224 46.322C47.2372 45.123 46.8947 43.2144 46.8947 40.5961V23.1245ZM71.4557 31.0528C71.6025 29.6825 72.5691 28.9973 74.3554 28.9973C75.3097 28.9973 76.0193 29.0707 76.4843 29.2176C76.9492 29.3644 77.2673 29.6213 77.4386 29.9884C77.6344 30.3554 77.7445 30.6858 77.7689 30.9794C77.8179 31.2486 77.8424 31.6646 77.8424 32.2274V45.0741C77.8424 45.6369 77.8179 46.0651 77.7689 46.3588C77.7445 46.6279 77.6466 46.946 77.4753 47.3131C77.1327 47.9493 76.2885 48.2674 74.9427 48.2674C73.6213 48.2674 72.7281 48.1084 72.2632 47.7902C71.8228 47.4477 71.5658 46.9583 71.4924 46.322C70.587 47.619 69.0699 48.2674 66.941 48.2674C64.8366 48.2674 62.879 47.3008 61.0682 45.3677C59.2574 43.4346 58.352 41.1956 58.352 38.6507C58.352 36.0814 59.2574 33.8424 61.0682 31.9337C62.9035 30.0006 64.91 29.034 67.0878 29.034C67.9198 29.034 68.6784 29.1809 69.3635 29.4745C70.0487 29.7681 70.5258 30.0495 70.795 30.3187C71.0642 30.5634 71.2844 30.8081 71.4557 31.0528ZM64.7754 38.6874C64.7754 39.4949 65.0935 40.229 65.7297 40.8897C66.366 41.5259 67.1368 41.8441 68.0421 41.8441C68.9475 41.8441 69.6939 41.5137 70.2811 40.853C70.8929 40.1923 71.1988 39.4705 71.1988 38.6874C71.1988 37.8799 70.9051 37.1336 70.3179 36.4484C69.755 35.7633 68.9842 35.4207 68.0054 35.4207C67.0511 35.4207 66.2681 35.7633 65.6563 36.4484C65.069 37.1336 64.7754 37.8799 64.7754 38.6874ZM91.5224 28.9973C93.9694 28.9973 96.0004 29.9394 97.6154 31.8236C99.2549 33.6833 100.075 35.959 100.075 38.6507V45.1108C100.075 45.6736 100.05 46.1018 100.001 46.3955C99.9768 46.6646 99.8789 46.9705 99.7076 47.3131C99.365 47.9738 98.4107 48.3041 96.8446 48.3041C95.1072 48.3041 94.104 47.8514 93.8348 46.946C93.688 46.53 93.6146 45.9061 93.6146 45.0741V38.614C93.6146 37.6107 93.3209 36.8277 92.7337 36.2649C92.1709 35.7021 91.4 35.4207 90.4212 35.4207C89.4669 35.4207 88.6839 35.7143 88.0721 36.3016C87.4849 36.8889 87.1912 37.6597 87.1912 38.614V45.1108C87.1912 45.6736 87.1667 46.1018 87.1178 46.3955C87.0933 46.6646 86.9832 46.9705 86.7875 47.3131C86.4694 47.9738 85.5273 48.3041 83.9612 48.3041C82.4196 48.3041 81.4775 47.9738 81.1349 47.3131C80.9636 46.946 80.8535 46.6279 80.8046 46.3588C80.7801 46.0651 80.7679 45.6369 80.7679 45.0741V32.0805C80.7679 31.5422 80.7801 31.1384 80.8046 30.8693C80.8535 30.5756 80.9759 30.2575 81.1716 29.915C81.5142 29.3032 82.4563 28.9973 83.9979 28.9973C85.4906 28.9973 86.4082 29.2787 86.7508 29.8415C86.9955 30.2575 87.1178 30.7592 87.1178 31.3464C87.2157 31.1752 87.4359 30.9305 87.7785 30.6123C88.1211 30.2942 88.4514 30.0373 88.7695 29.8415C89.6015 29.2787 90.5191 28.9973 91.5224 28.9973Z" fill="#5BC8AC"/>
<path d="M43.5605 26.8684L47.9543 24.713L47.9543 24.713L43.5605 26.8684ZM43.5605 35.5308L47.9379 37.7195L47.9461 37.7029L47.9543 37.6862L43.5605 35.5308ZM41.1013 38.5773L38.1497 34.6736L38.1312 34.6875L38.1129 34.7017L41.1013 38.5773ZM30.2 40.9264V36.0324H25.306V40.9264H30.2ZM30.1265 46.3588L25.2991 45.5542L25.2692 45.7341L25.2527 45.9157L30.1265 46.3588ZM29.7962 47.3131L25.478 45.01L25.4646 45.0351L25.4515 45.0603L29.7962 47.3131ZM23.9234 46.946L28.5787 45.4362L28.5593 45.3765L28.5384 45.3172L23.9234 46.946ZM23.7399 23.4182L18.9125 22.6136L18.8825 22.7935L18.866 22.9751L23.7399 23.4182ZM24.1069 22.4271L28.4252 24.7302L28.4385 24.7051L28.4516 24.6799L24.1069 22.4271ZM41.1013 23.7852L38.1129 27.6608L38.1312 27.675L38.1497 27.689L41.1013 23.7852ZM36.9904 33.6221L34.0325 29.7231L34.0325 29.7232L36.9904 33.6221ZM36.9904 28.7771L33.9493 32.6115L33.9905 32.6443L34.0325 32.6761L36.9904 28.7771ZM30.2 27.9329V23.0389H25.306V27.9329H30.2ZM30.2 34.4297H25.306V39.3236H30.2V34.4297ZM39.1668 29.0239C39.4417 29.5844 39.6209 30.2798 39.6209 31.1996H49.4089C49.4089 28.9384 48.9518 26.7463 47.9543 24.713L39.1668 29.0239ZM39.6209 31.1996C39.6209 32.1195 39.4417 32.8148 39.1668 33.3754L47.9543 37.6862C48.9518 35.653 49.4089 33.4608 49.4089 31.1996H39.6209ZM39.1832 33.3421C38.8394 34.0297 38.4775 34.4257 38.1497 34.6736L44.0529 42.481C45.7317 41.2118 47.0092 39.5768 47.9379 37.7195L39.1832 33.3421ZM38.1129 34.7017C36.7803 35.7292 35.7009 36.0324 34.7881 36.0324V45.8204C38.2309 45.8204 41.3603 44.5575 44.0897 42.4529L38.1129 34.7017ZM34.7881 36.0324H30.2V45.8204H34.7881V36.0324ZM25.306 40.9264V45.0741H35.0939V40.9264H25.306ZM25.306 45.0741C25.306 45.2892 25.3012 45.4404 25.2956 45.5382C25.2894 45.6457 25.2851 45.6386 25.2991 45.5542L34.9539 47.1633C35.0704 46.4645 35.0939 45.7138 35.0939 45.0741H25.306ZM25.2527 45.9157C25.2838 45.5732 25.3565 45.3264 25.4009 45.1983C25.4463 45.0672 25.4823 45.0019 25.478 45.01L34.1144 49.6161C34.469 48.9513 34.8937 47.9763 35.0004 46.8018L25.2527 45.9157ZM25.4515 45.0603C26.0376 43.9301 26.9459 43.5274 27.2226 43.4316C27.4628 43.3485 27.4374 43.4101 26.9332 43.4101V53.1981C27.9951 53.1981 29.2299 53.0946 30.4244 52.6811C31.6555 52.255 33.2122 51.3568 34.1409 49.5659L25.4515 45.0603ZM26.9332 43.4101C26.4247 43.4101 26.5243 43.3302 26.9089 43.5037C27.1345 43.6055 27.4755 43.8036 27.8161 44.1603C28.1688 44.5296 28.4285 44.9732 28.5787 45.4362L19.2681 48.4559C20.6506 52.7186 24.9709 53.1981 26.9332 53.1981V43.4101ZM28.5384 45.3172C28.5875 45.4563 28.6095 45.5533 28.6173 45.5901C28.6254 45.6291 28.6243 45.6338 28.62 45.5959C28.6157 45.5592 28.6098 45.4946 28.605 45.398C28.6003 45.3021 28.5972 45.1826 28.5972 45.0374H18.8092C18.8092 46.0283 18.8756 47.3486 19.3084 48.5749L28.5384 45.3172ZM28.5972 45.0374V24.6661H18.8092V45.0374H28.5972ZM28.5972 24.6661C28.5972 24.4173 28.5999 24.2227 28.6042 24.0759C28.6088 23.9208 28.614 23.8585 28.6138 23.8613L18.866 22.9751C18.8204 23.477 18.8092 24.0777 18.8092 24.6661H28.5972ZM28.5673 24.2227C28.5326 24.4306 28.4851 24.5761 28.4577 24.6499C28.43 24.7248 28.4131 24.7527 28.4252 24.7302L19.7887 20.1241C19.4345 20.7882 19.0758 21.6338 18.9125 22.6136L28.5673 24.2227ZM28.4516 24.6799C27.8656 25.8102 26.9573 26.2128 26.6805 26.3086C26.4403 26.3918 26.4657 26.3301 26.9699 26.3301V16.5421C25.908 16.5421 24.6732 16.6456 23.4787 17.0591C22.2476 17.4853 20.6909 18.3834 19.7623 20.1744L28.4516 24.6799ZM26.9699 26.3301H34.8248V16.5421H26.9699V26.3301ZM34.8248 26.3301C35.701 26.3301 36.769 26.6246 38.1129 27.6608L44.0897 19.9096C41.3716 17.8137 38.2552 16.5421 34.8248 16.5421V26.3301ZM38.1497 27.689C38.4571 27.9214 38.8176 28.3121 39.1668 29.0239L47.9543 24.713C47.0311 22.831 45.7521 21.1662 44.0529 19.8815L38.1497 27.689ZM34.8248 39.3236C36.8394 39.3236 38.574 38.5637 39.9482 37.5211L34.0325 29.7232C34 29.7478 34.0571 29.6981 34.2069 29.6422C34.3656 29.583 34.5795 29.5357 34.8248 29.5357V39.3236ZM39.9482 37.5211C42.1368 35.8608 42.9488 33.4496 42.9488 31.1996H33.1608C33.1608 31.2062 33.1597 30.9819 33.3082 30.644C33.4692 30.2774 33.7306 29.9522 34.0325 29.7231L39.9482 37.5211ZM42.9488 31.1996C42.9488 28.9497 42.1368 26.5384 39.9482 24.8781L34.0325 32.6761C33.7306 32.4471 33.4692 32.1218 33.3082 31.7552C33.1597 31.4174 33.1608 31.193 33.1608 31.1996H42.9488ZM40.0315 24.9427C38.6308 23.8318 36.8542 23.0389 34.7881 23.0389V32.8269C34.5468 32.8269 34.3273 32.7794 34.1558 32.7137C33.9938 32.6516 33.9263 32.5933 33.9493 32.6115L40.0315 24.9427ZM34.7881 23.0389H30.2V32.8269H34.7881V23.0389ZM25.306 27.9329V34.4297H35.0939V27.9329H25.306ZM30.2 39.3236H34.8248V29.5357H30.2V39.3236ZM46.9314 21.8766L42.104 21.072L42.074 21.2519L42.0575 21.4335L46.9314 21.8766ZM47.2617 20.8855L42.9171 18.6328L42.87 18.7234L42.8269 18.8159L47.2617 20.8855ZM52.9143 20.8855L57.2325 18.5825L57.2128 18.5455L57.1924 18.5088L52.9143 20.8855ZM53.2446 21.8766L48.3675 22.283L48.3842 22.4831L48.4172 22.6811L53.2446 21.8766ZM53.5383 41.8441L49.3417 44.362L49.4016 44.4618L49.4662 44.5588L53.5383 41.8441ZM55.5203 42.2478L54.1758 46.9535L54.4973 47.0453L54.8282 47.0926L55.5203 42.2478ZM56.1443 42.5414L53.3378 46.5508L53.4067 46.599L53.4771 46.6448L56.1443 42.5414ZM56.1443 47.9738L58.93 51.9976L58.9404 51.9904L58.9508 51.9831L56.1443 47.9738ZM51.5929 48.194L50.9626 53.0472L50.9803 53.0495L50.9981 53.0517L51.5929 48.194ZM47.9224 46.322L52.1907 43.9277L52.1812 43.9108L52.1716 43.894L47.9224 46.322ZM51.7887 23.1245C51.7887 22.8757 51.7914 22.6811 51.7957 22.5343C51.8003 22.3792 51.8055 22.3169 51.8053 22.3197L42.0575 21.4335C42.0119 21.9354 42.0007 22.5361 42.0007 23.1245H51.7887ZM51.7588 22.6811C51.7349 22.8245 51.7061 22.9185 51.6935 22.9562C51.6807 22.9948 51.6777 22.9955 51.6966 22.9551L42.8269 18.8159C42.5305 19.4509 42.2467 20.2157 42.104 21.072L51.7588 22.6811ZM51.6064 23.1383C51.0203 24.2686 50.112 24.6712 49.8353 24.767C49.5951 24.8502 49.6205 24.7885 50.1247 24.7885V15.0005C49.0628 15.0005 47.828 15.104 46.6335 15.5175C45.4024 15.9437 43.8457 16.8418 42.9171 18.6328L51.6064 23.1383ZM50.1247 24.7885C50.5692 24.7885 50.5613 24.8455 50.3033 24.7539C49.996 24.6447 49.1894 24.2581 48.6362 23.2623L57.1924 18.5088C56.2721 16.8523 54.817 15.9701 53.5799 15.5307C52.3921 15.1087 51.1728 15.0005 50.1247 15.0005V24.7885ZM48.596 23.1886C48.5888 23.175 48.5474 23.0959 48.5008 22.9562C48.4543 22.8165 48.3929 22.5872 48.3675 22.283L58.1217 21.4702C58.0241 20.2991 57.6219 19.3126 57.2325 18.5825L48.596 23.1886ZM48.4172 22.6811C48.4032 22.5967 48.4075 22.5896 48.4137 22.6972C48.4192 22.7949 48.424 22.9461 48.424 23.1612H58.212C58.212 22.5215 58.1885 21.7708 58.072 21.072L48.4172 22.6811ZM48.424 23.1612V40.1556H58.212V23.1612H48.424ZM48.424 40.1556C48.424 40.706 48.4455 41.2989 48.5202 41.8714C48.5748 42.29 48.7255 43.335 49.3417 44.362L57.7348 39.3261C57.8796 39.5675 57.9751 39.7798 58.0365 39.9346C58.0988 40.0917 58.1386 40.2222 58.1634 40.3132C58.211 40.4875 58.2249 40.5973 58.226 40.6054C58.2272 40.6151 58.212 40.4862 58.212 40.1556H48.424ZM49.4662 44.5588C51.0715 46.9667 53.7051 47.0684 54.4926 47.0684V37.2804C54.568 37.2804 54.9555 37.2828 55.4878 37.4671C56.0614 37.6656 56.9462 38.1332 57.6103 39.1294L49.4662 44.5588ZM54.4926 47.0684C54.5833 47.0684 54.6537 47.0695 54.7061 47.071C54.7319 47.0717 54.7516 47.0725 54.7656 47.0732C54.7798 47.0738 54.7864 47.0743 54.7862 47.0743C54.786 47.0743 54.7836 47.0741 54.7792 47.0737C54.7748 47.0734 54.7678 47.0727 54.7585 47.0718C54.7408 47.07 54.7098 47.0665 54.6676 47.0605C54.6262 47.0546 54.5649 47.0449 54.4883 47.0295C54.4132 47.0145 54.3058 46.9906 54.1758 46.9535L56.8648 37.5421C55.9309 37.2753 54.9063 37.2804 54.4926 37.2804V47.0684ZM54.8282 47.0926C54.3033 47.0176 53.9222 46.8625 53.7209 46.7677C53.5108 46.6688 53.3802 46.5805 53.3378 46.5508L58.9508 38.5321C58.472 38.197 57.5099 37.5884 56.2124 37.403L54.8282 47.0926ZM53.4771 46.6448C52.3065 45.8839 52.0154 44.8691 51.9842 44.7585C51.9361 44.5878 51.9844 44.6615 51.9844 45.1475H61.7724C61.7724 44.2142 61.6983 43.144 61.4055 42.1046C61.1297 41.1253 60.4715 39.5171 58.8115 38.4381L53.4771 46.6448ZM51.9844 45.1475C51.9844 45.7144 51.9337 45.8736 51.9581 45.7799C51.9736 45.72 52.038 45.4884 52.2163 45.1763C52.3995 44.8558 52.7447 44.3796 53.3378 43.9645L58.9508 51.9831C60.5895 50.836 61.1887 49.1762 61.4317 48.2406C61.7007 47.2048 61.7724 46.1222 61.7724 45.1475H51.9844ZM53.3586 43.95C53.8644 43.5998 54.278 43.496 54.366 43.475C54.4779 43.4483 54.4722 43.4622 54.2928 43.4709C53.9244 43.4887 53.2518 43.4666 52.1877 43.3363L50.9981 53.0517C52.3321 53.215 53.6171 53.303 54.7658 53.2474C55.709 53.2018 57.4269 53.0382 58.93 51.9976L53.3586 43.95ZM52.2232 43.3408C51.9447 43.3046 51.7488 43.2617 51.6211 43.226C51.493 43.1902 51.457 43.1682 51.4856 43.1828C51.5166 43.1985 51.6242 43.258 51.7641 43.3855C51.9089 43.5173 52.0622 43.6986 52.1907 43.9277L43.6541 48.7164C45.357 51.752 48.5405 52.7327 50.9626 53.0472L52.2232 43.3408ZM52.1716 43.894C52.1933 43.932 52.078 43.736 51.9686 43.1267C51.8627 42.5369 51.7887 41.7087 51.7887 40.5961H42.0007C42.0007 43.4278 42.3336 46.4058 43.6732 48.7501L52.1716 43.894ZM51.7887 40.5961V23.1245H42.0007V40.5961H51.7887ZM71.4557 31.0528L67.4464 33.8593L74.9314 44.5521L76.3218 31.5742L71.4557 31.0528ZM76.4843 29.2176L77.958 24.5507L77.958 24.5507L76.4843 29.2176ZM77.4386 29.9884L73.0037 32.0579L73.059 32.1762L73.1204 32.2914L77.4386 29.9884ZM77.7689 30.9794L72.8919 31.3858L72.9115 31.6218L72.9539 31.8549L77.7689 30.9794ZM77.7689 46.3588L72.9416 45.5542L72.9116 45.7341L72.8951 45.9157L77.7689 46.3588ZM77.4753 47.3131L81.7843 49.6333L81.8508 49.5098L81.9102 49.3827L77.4753 47.3131ZM72.2632 47.7902L69.2586 51.6533L69.3764 51.745L69.4997 51.8293L72.2632 47.7902ZM71.4924 46.322L76.3541 45.7611L74.8735 32.9292L67.4795 43.5206L71.4924 46.322ZM61.0682 45.3677L57.4965 48.7134L61.0682 45.3677ZM61.0682 31.9337L57.519 28.5642L57.5178 28.5654L61.0682 31.9337ZM69.3635 29.4745L67.4357 33.9728L67.4357 33.9728L69.3635 29.4745ZM70.795 30.3187L67.3344 33.7793L67.4168 33.8616L67.503 33.94L70.795 30.3187ZM65.7297 40.8897L62.2045 44.2844L62.2365 44.3177L62.2692 44.3503L65.7297 40.8897ZM70.2811 40.853L66.6901 37.528L66.6564 37.5645L66.6233 37.6016L70.2811 40.853ZM70.3179 36.4484L66.5361 39.5548L66.5687 39.5945L66.6021 39.6334L70.3179 36.4484ZM65.6563 36.4484L62.0057 33.189L61.9727 33.2259L61.9405 33.2635L65.6563 36.4484ZM76.3218 31.5742C76.3026 31.754 76.2366 32.0897 76.0228 32.4845C75.7997 32.8962 75.4825 33.2475 75.121 33.5038C74.4538 33.9767 73.991 33.8913 74.3554 33.8913V24.1033C72.9335 24.1033 71.0942 24.3605 69.4605 25.5186C67.6411 26.8083 66.7856 28.702 66.5896 30.5314L76.3218 31.5742ZM74.3554 33.8913C74.7166 33.8913 74.9572 33.9056 75.0998 33.9204C75.1684 33.9275 75.1952 33.9328 75.1878 33.9314C75.1826 33.9304 75.1181 33.9183 75.0106 33.8844L77.958 24.5507C76.7533 24.1703 75.4274 24.1033 74.3554 24.1033V33.8913ZM75.0105 33.8844C74.7698 33.8084 74.3947 33.6493 73.9965 33.3276C73.5816 32.9925 73.2363 32.5562 73.0037 32.0579L81.8735 27.9188C81.0057 26.0593 79.4415 25.0192 77.958 24.5507L75.0105 33.8844ZM73.1204 32.2914C73.1131 32.2778 73.0717 32.1987 73.0252 32.059C72.9786 31.9193 72.9172 31.69 72.8919 31.3858L82.646 30.573C82.5484 29.4019 82.1462 28.4154 81.7568 27.6853L73.1204 32.2914ZM72.9539 31.8549C72.9402 31.7794 72.9354 31.7343 72.9349 31.7302C72.9343 31.7239 72.936 31.7393 72.9385 31.7807C72.9435 31.8665 72.9484 32.0111 72.9484 32.2274H82.7363C82.7363 31.6104 82.7157 30.8281 82.584 30.1039L72.9539 31.8549ZM72.9484 32.2274V45.0741H82.7363V32.2274H72.9484ZM72.9484 45.0741C72.9484 45.2892 72.9436 45.4404 72.938 45.5382C72.9318 45.6457 72.9275 45.6386 72.9416 45.5542L82.5963 47.1633C82.7128 46.4645 82.7363 45.7138 82.7363 45.0741H72.9484ZM72.8951 45.9157C72.9196 45.6453 72.9707 45.4539 72.9996 45.36C73.0294 45.2633 73.0504 45.2221 73.0405 45.2435L81.9102 49.3827C82.2134 48.733 82.5483 47.8414 82.6428 46.8018L72.8951 45.9157ZM73.1663 44.9928C73.6842 44.031 74.4605 43.5995 74.8595 43.4492C75.19 43.3246 75.2879 43.3734 74.9427 43.3734V53.1614C76.5414 53.1614 80.0453 52.863 81.7843 49.6333L73.1663 44.9928ZM74.9427 43.3734C74.7081 43.3734 74.5233 43.3663 74.3825 43.3562C74.2398 43.3459 74.163 43.3341 74.1398 43.3299C74.1126 43.3251 74.181 43.3348 74.3145 43.3817C74.443 43.4269 74.7076 43.5328 75.0268 43.7512L69.4997 51.8293C70.5493 52.5475 71.6627 52.8308 72.4237 52.9663C73.2496 53.1134 74.1118 53.1614 74.9427 53.1614V43.3734ZM75.2678 43.9272C75.5932 44.1803 75.8741 44.5119 76.0733 44.8914C76.2658 45.2581 76.3325 45.5738 76.3541 45.7611L66.6307 46.883C66.8305 48.6147 67.6252 50.3829 69.2586 51.6533L75.2678 43.9272ZM67.4795 43.5206C67.5147 43.4703 67.5678 43.4107 67.6344 43.3572C67.6998 43.3047 67.7471 43.283 67.7521 43.2809C67.7537 43.2802 67.6992 43.3038 67.566 43.3274C67.4314 43.3514 67.2276 43.3734 66.941 43.3734V53.1614C70.0632 53.1614 73.3853 52.1603 75.5053 49.1235L67.4795 43.5206ZM66.941 43.3734C66.5225 43.3734 65.7803 43.2394 64.64 42.022L57.4965 48.7134C59.9776 51.3623 63.1507 53.1614 66.941 53.1614V43.3734ZM64.64 42.022C63.6404 40.9549 63.246 39.898 63.246 38.6507H53.4581C53.4581 42.4932 54.8745 45.9143 57.4965 48.7134L64.64 42.022ZM63.246 38.6507C63.246 37.3678 63.6475 36.3256 64.6186 35.3021L57.5178 28.5654C54.8673 31.3591 53.4581 34.795 53.4581 38.6507H63.246ZM64.6175 35.3033C65.7506 34.1097 66.5435 33.928 67.0878 33.928V24.14C63.2765 24.14 60.0563 25.8915 57.519 28.5642L64.6175 35.3033ZM67.0878 33.928C67.3341 33.928 67.4268 33.969 67.4357 33.9728L71.2914 24.9762C69.93 24.3927 68.5055 24.14 67.0878 24.14V33.928ZM67.4357 33.9728C67.537 34.0162 67.6134 34.0518 67.6682 34.0789C67.6953 34.0923 67.7154 34.1028 67.7293 34.1103C67.7433 34.1178 67.7496 34.1215 67.7492 34.1213C67.7489 34.1211 67.74 34.1159 67.7238 34.1053C67.7078 34.0948 67.6822 34.0774 67.6488 34.0528C67.5861 34.0066 67.4725 33.9174 67.3344 33.7793L74.2556 26.8581C73.3009 25.9035 72.107 25.3258 71.2914 24.9762L67.4357 33.9728ZM67.503 33.94C67.529 33.9636 67.5343 33.9706 67.5244 33.9597C67.5145 33.9487 67.4859 33.9157 67.4464 33.8593L75.465 28.2463C75.0463 27.6482 74.5689 27.1355 74.0871 26.6974L67.503 33.94ZM59.8814 38.6874C59.8814 40.9356 60.8192 42.8459 62.2045 44.2844L69.255 37.495C69.284 37.5252 69.3996 37.6556 69.5045 37.8977C69.6141 38.1508 69.6694 38.4282 69.6694 38.6874H59.8814ZM62.2692 44.3503C63.8296 45.9108 65.8479 46.738 68.0421 46.738V36.9501C68.1747 36.9501 68.3962 36.976 68.652 37.0816C68.9084 37.1874 69.0888 37.3277 69.1903 37.4292L62.2692 44.3503ZM68.0421 46.738C70.3068 46.738 72.3976 45.8385 73.939 44.1044L66.6233 37.6016C66.7556 37.4529 66.9814 37.2622 67.3001 37.1211C67.6159 36.9813 67.8876 36.9501 68.0421 36.9501V46.738ZM73.8722 44.178C75.187 42.758 76.0928 40.8881 76.0928 38.6874H66.3048C66.3048 38.4221 66.3605 38.1491 66.4632 37.9067C66.5613 37.6752 66.6676 37.5523 66.6901 37.528L73.8722 44.178ZM76.0928 38.6874C76.0928 36.5728 75.2857 34.7242 74.0336 33.2635L66.6021 39.6334C66.5845 39.6129 66.5007 39.5079 66.4244 39.3139C66.3451 39.1123 66.3048 38.8927 66.3048 38.6874H76.0928ZM74.0996 33.342C72.5029 31.3982 70.2762 30.5267 68.0054 30.5267V40.3147C67.9191 40.3147 67.6628 40.2977 67.33 40.1498C66.9835 39.9958 66.7128 39.77 66.5361 39.5548L74.0996 33.342ZM68.0054 30.5267C65.7188 30.5267 63.5863 31.4186 62.0057 33.189L69.3069 39.7079C69.1799 39.8502 68.9641 40.03 68.664 40.1613C68.3686 40.2906 68.1245 40.3147 68.0054 40.3147V30.5267ZM61.9405 33.2635C60.6885 34.7242 59.8814 36.5728 59.8814 38.6874H69.6694C69.6694 38.8927 69.6291 39.1123 69.5498 39.3139C69.4735 39.5079 69.3897 39.6129 69.3721 39.6334L61.9405 33.2635ZM97.6154 31.8236L93.8996 35.0086L93.9218 35.0344L93.9443 35.06L97.6154 31.8236ZM100.001 46.3955L95.1738 45.5909L95.1439 45.7708L95.1273 45.9524L100.001 46.3955ZM99.7076 47.3131L104.052 49.5659L104.069 49.5339L104.085 49.5017L99.7076 47.3131ZM93.8348 46.946L98.5259 45.5514L98.4908 45.4333L98.4498 45.3172L93.8348 46.946ZM92.7337 36.2649L89.2731 39.7255L89.3099 39.7623L89.3475 39.7983L92.7337 36.2649ZM88.0721 36.3016L84.6829 32.7711L84.6469 32.8057L84.6116 32.841L88.0721 36.3016ZM87.1178 46.3955L82.2904 45.5909L82.2604 45.7708L82.2439 45.9524L87.1178 46.3955ZM86.7875 47.3131L82.5383 44.885L82.4528 45.0347L82.378 45.19L86.7875 47.3131ZM81.1349 47.3131L76.7001 49.3827L76.7432 49.4752L76.7902 49.5659L81.1349 47.3131ZM80.8046 46.3588L75.9275 46.7652L75.9471 47.0012L75.9895 47.2342L80.8046 46.3588ZM80.8046 30.8693L75.9772 30.0647L75.9472 30.2446L75.9307 30.4262L80.8046 30.8693ZM81.1716 29.915L85.4208 32.3431L85.4313 32.3247L85.4416 32.3062L81.1716 29.915ZM86.7508 29.8415L90.9691 27.3602L90.9504 27.3284L90.9312 27.2969L86.7508 29.8415ZM87.1178 31.3464H82.2238V49.7751L91.367 33.7745L87.1178 31.3464ZM87.7785 30.6123L91.1086 34.1986L91.1086 34.1986L87.7785 30.6123ZM88.7695 29.8415L91.3344 34.0096L91.4243 33.9543L91.5117 33.8952L88.7695 29.8415ZM91.5224 33.8913C92.5176 33.8913 93.1992 34.1914 93.8996 35.0086L101.331 28.6386C98.8016 25.6874 95.4212 24.1033 91.5224 24.1033V33.8913ZM93.9443 35.06C94.7256 35.9462 95.1807 37.0402 95.1807 38.6507H104.969C104.969 34.8779 103.784 31.4204 101.287 28.5872L93.9443 35.06ZM95.1807 38.6507V45.1108H104.969V38.6507H95.1807ZM95.1807 45.1108C95.1807 45.3259 95.1759 45.4771 95.1703 45.5749C95.1641 45.6824 95.1598 45.6753 95.1738 45.5909L104.829 47.2C104.945 46.5012 104.969 45.7506 104.969 45.1108H95.1807ZM95.1273 45.9524C95.1529 45.6716 95.208 45.4612 95.2483 45.3352C95.2889 45.2084 95.3243 45.1365 95.3303 45.1244L104.085 49.5017C104.424 48.8233 104.778 47.9121 104.875 46.8385L95.1273 45.9524ZM95.3629 45.0603C95.949 43.9301 96.8573 43.5274 97.134 43.4316C97.3742 43.3485 97.3488 43.4101 96.8446 43.4101V53.1981C97.9065 53.1981 99.1413 53.0946 100.336 52.6811C101.567 52.255 103.124 51.3568 104.052 49.5659L95.3629 45.0603ZM96.8446 43.4101C96.3121 43.4101 96.4105 43.3271 96.802 43.5037C97.0334 43.6081 97.3909 43.8154 97.7457 44.1941C98.1144 44.5876 98.3799 45.0605 98.5259 45.5514L89.1437 48.3407C89.752 50.3867 91.2159 51.7214 92.7763 52.4255C94.171 53.0548 95.6398 53.1981 96.8446 53.1981V43.4101ZM98.4498 45.3172C98.4966 45.4499 98.5183 45.5433 98.5263 45.5812C98.5347 45.6207 98.534 45.6277 98.5301 45.5942C98.5263 45.5618 98.5207 45.5026 98.5161 45.4126C98.5116 45.3232 98.5086 45.2111 98.5086 45.0741H88.7206C88.7206 46.0599 88.7904 47.3581 89.2198 48.5749L98.4498 45.3172ZM98.5086 45.0741V38.614H88.7206V45.0741H98.5086ZM98.5086 38.614C98.5086 36.6092 97.8866 34.4246 96.1198 32.7315L89.3475 39.7983C89.0962 39.5575 88.9153 39.2683 88.812 38.9927C88.7161 38.7372 88.7206 38.5851 88.7206 38.614H98.5086ZM96.1942 32.8043C94.5116 31.1217 92.3813 30.5267 90.4212 30.5267V40.3147C90.4457 40.3147 90.3 40.3184 90.0551 40.2289C89.792 40.1329 89.5117 39.9641 89.2731 39.7255L96.1942 32.8043ZM90.4212 30.5267C88.3753 30.5267 86.3229 31.1968 84.6829 32.7711L91.4614 39.8321C91.2945 39.9923 91.0767 40.1333 90.8366 40.2233C90.6069 40.3095 90.4491 40.3147 90.4212 40.3147V30.5267ZM84.6116 32.841C82.968 34.4846 82.2972 36.5716 82.2972 38.614H92.0852C92.0852 38.6402 92.0804 38.8114 91.9848 39.0624C91.8842 39.3264 91.7235 39.5714 91.5327 39.7622L84.6116 32.841ZM82.2972 38.614V45.1108H92.0852V38.614H82.2972ZM82.2972 45.1108C82.2972 45.3259 82.2924 45.4771 82.2868 45.5749C82.2807 45.6824 82.2763 45.6753 82.2904 45.5909L91.9452 47.2C92.0617 46.5012 92.0852 45.7505 92.0852 45.1108H82.2972ZM82.2439 45.9524C82.2761 45.5986 82.3537 45.3315 82.4122 45.1691C82.4708 45.0061 82.5242 44.9096 82.5383 44.885L91.0366 49.7412C91.4333 49.047 91.8814 48.0516 91.9917 46.8385L82.2439 45.9524ZM82.378 45.19C82.9605 43.9802 83.9236 43.543 84.2229 43.4381C84.4815 43.3474 84.4696 43.4101 83.9612 43.4101V53.1981C85.0188 53.1981 86.261 53.0957 87.4617 52.6747C88.7031 52.2393 90.2964 51.3066 91.197 49.4362L82.378 45.19ZM83.9612 43.4101C83.4752 43.4101 83.4654 43.3496 83.7178 43.4381C84.013 43.5416 84.9039 43.9502 85.4796 45.0603L76.7902 49.5659C77.7085 51.3367 79.2418 52.2408 80.479 52.6747C81.6735 53.0935 82.9055 53.1981 83.9612 53.1981V43.4101ZM85.5698 45.2435C85.5416 45.1833 85.5387 45.1699 85.5486 45.1983C85.5576 45.2242 85.5905 45.3231 85.6196 45.4833L75.9895 47.2342C76.1401 48.0622 76.4277 48.799 76.7001 49.3827L85.5698 45.2435ZM85.6816 45.9523C85.6744 45.8653 85.6618 45.5995 85.6618 45.0741H75.8739C75.8739 45.6743 75.8858 46.2649 75.9275 46.7652L85.6816 45.9523ZM85.6618 45.0741V32.0805H75.8739V45.0741H85.6618ZM85.6618 32.0805C85.6618 31.8457 85.6646 31.6616 85.6688 31.5222C85.6709 31.4533 85.6732 31.4008 85.6752 31.3629C85.6773 31.3241 85.6788 31.3087 85.6785 31.3124L75.9307 30.4262C75.8854 30.9243 75.8739 31.5088 75.8739 32.0805H85.6618ZM85.632 31.6738C85.5604 32.1035 85.4242 32.337 85.4208 32.3431L76.9224 27.4869C76.5275 28.178 76.1466 29.0478 75.9772 30.0647L85.632 31.6738ZM85.4416 32.3062C84.8018 33.4488 83.8636 33.811 83.6464 33.8815C83.4366 33.9497 83.4881 33.8913 83.9979 33.8913V24.1033C82.9661 24.1033 81.7758 24.1979 80.6238 24.5719C79.4645 24.9483 77.884 25.7693 76.9016 27.5237L85.4416 32.3062ZM83.9979 33.8913C84.496 33.8913 84.5599 33.9453 84.3707 33.8873C84.198 33.8343 83.2542 33.5096 82.5703 32.3862L90.9312 27.2969C89.9048 25.6107 88.3308 24.8638 87.2405 24.5295C86.1337 24.19 84.9924 24.1033 83.9979 24.1033V33.8913ZM82.5325 32.3229C82.2479 31.8392 82.2238 31.4428 82.2238 31.3464H92.0118C92.0118 30.0755 91.743 28.6759 90.9691 27.3602L82.5325 32.3229ZM91.367 33.7745C91.2548 33.9709 91.1545 34.1081 91.1017 34.1771C91.0452 34.251 91.0052 34.2959 90.9941 34.3084C90.9753 34.3292 91.004 34.2958 91.1086 34.1986L84.4484 27.0261C84.1033 27.3465 83.3743 28.0335 82.8686 28.9183L91.367 33.7745ZM91.1086 34.1986C91.2718 34.0471 91.348 34.0012 91.3344 34.0096L86.2046 25.6735C85.5548 26.0734 84.9704 26.5414 84.4484 27.0261L91.1086 34.1986ZM91.5117 33.8952C91.5301 33.8827 91.5382 33.879 91.5364 33.8799C91.5357 33.8802 91.5334 33.8813 91.5297 33.8828C91.526 33.8842 91.5215 33.8858 91.5166 33.8873C91.5117 33.8888 91.5071 33.89 91.503 33.8909C91.499 33.8918 91.4964 33.8923 91.4954 33.8924C91.4929 33.8928 91.5011 33.8913 91.5224 33.8913V24.1033C89.5404 24.1033 87.6679 24.6781 86.0274 25.7879L91.5117 33.8952Z" fill="white" mask="url(#path-7-outside-3_574_184)"/>
<path d="M171.548 35.0924L170.747 32.923C169.821 30.3965 169.082 28.2495 168.531 26.4819C167.979 24.7144 167.597 23.1878 167.383 21.9022C167.169 20.6165 167.115 19.5124 167.221 18.5899C167.327 17.6673 167.57 16.7952 167.95 15.9736C168.728 14.297 169.901 13.1785 171.469 12.6182C173.037 12.058 174.602 12.1982 176.165 13.0389C177.029 13.504 177.761 14.143 178.36 14.9557C178.96 15.7685 179.377 16.6837 179.611 17.7013C180.507 17.2919 181.437 17.1012 182.4 17.1291C183.363 17.1571 184.277 17.4036 185.141 17.8687C186.704 18.7094 187.748 19.9734 188.274 21.6606C188.801 23.3478 188.675 25.0298 187.898 26.7065C187.517 27.527 187.017 28.2604 186.395 28.9068C185.774 29.5532 184.922 30.1698 183.839 30.7567C182.756 31.3437 181.394 31.9311 179.751 32.5191C178.109 33.1071 176.071 33.7605 173.64 34.4793L171.548 35.0924Z" fill="#F18D9E"/>
<path fill-rule="evenodd" clip-rule="evenodd" d="M15.526 7.57601C15.2003 7.46071 14.8515 7.42194 14.5076 7.4628C14.1638 7.50366 13.8346 7.62302 13.5464 7.81127C13.2583 7.99952 13.0193 8.2514 12.8487 8.54664C12.6781 8.84187 12.5806 9.17223 12.5641 9.5111C12.4414 11.091 12.35 13.5463 12.6384 16.0868C12.9238 18.6147 13.5947 21.3174 15.0621 23.3196C16.5823 25.4784 18.7534 26.4375 20.7718 26.8123C22.7759 27.1828 24.6715 26.9884 25.7506 26.8067C26.0491 26.7603 26.3382 26.6678 26.607 26.5326C24.9955 22.3073 21.9708 17.6597 17.4973 13.6232C17.3231 13.4661 17.2198 13.2477 17.21 13.0161C17.2003 12.7844 17.2849 12.5584 17.4452 12.3879C17.6055 12.2173 17.8284 12.1161 18.0649 12.1065C18.3015 12.0969 18.5322 12.1798 18.7063 12.3368C23.0913 16.2937 26.1688 20.8322 27.9459 25.0883C28.4755 24.1305 29.1378 22.6876 29.4276 21.0252C29.7716 19.0537 29.5989 16.7397 28.033 14.5809C26.587 12.5815 24.189 11.0477 21.8352 9.91657C19.4785 8.78404 17.0819 8.01504 15.526 7.57601Z" fill="#5BC8AC"/>
</g>
<defs>
<filter id="filter0_d_574_184" x="0.212023" y="0.841682" width="200.735" height="68.031" filterUnits="userSpaceOnUse" color-interpolation-filters="sRGB">
<feFlood flood-opacity="0" result="BackgroundImageFix"/>
<feColorMatrix in="SourceAlpha" type="matrix" values="0 0 0 0 0 0 0 0 0 0 0 0 0 0 0 0 0 0 127 0" result="hardAlpha"/>
<feOffset dy="5.62966"/>
<feGaussianBlur stdDeviation="4.89399"/>
<feComposite in2="hardAlpha" operator="out"/>
<feColorMatrix type="matrix" values="0 0 0 0 0 0 0 0 0 0 0 0 0 0 0 0 0 0 0.25 0"/>
<feBlend mode="normal" in2="BackgroundImageFix" result="effect1_dropShadow_574_184"/>
<feBlend mode="normal" in="SourceGraphic" in2="effect1_dropShadow_574_184" result="shape"/>
</filter>
<linearGradient id="paint0_linear_574_184" x1="98.0918" y1="38.0075" x2="127.456" y2="38.0075" gradientUnits="userSpaceOnUse">
<stop offset="0.46" stop-color="#5BC8AC"/>
<stop offset="0.4601" stop-color="#F18D9E"/>
</linearGradient>
</defs>
</svg>
