<svg width="32" height="32" viewBox="0 0 32 32" fill="none" xmlns="http://www.w3.org/2000/svg">
<path d="M29 16C29 12.5522 27.6304 9.24558 25.1924 6.80761C22.7544 4.36964 19.4478 3 16 3C12.5522 3 9.24558 4.36964 6.80761 6.80761C4.36964 9.24558 3 12.5522 3 16C3 19.4478 4.36964 22.7544 6.80761 25.1924C9.24558 27.6304 12.5522 29 16 29C19.4478 29 22.7544 27.6304 25.1924 25.1924C27.6304 22.7544 29 19.4478 29 16ZM0 16C0 11.7565 1.68571 7.68687 4.68629 4.68629C7.68687 1.68571 11.7565 0 16 0C20.2435 0 24.3131 1.68571 27.3137 4.68629C30.3143 7.68687 32 11.7565 32 16C32 20.2435 30.3143 24.3131 27.3137 27.3137C24.3131 30.3143 20.2435 32 16 32C11.7565 32 7.68687 30.3143 4.68629 27.3137C1.68571 24.3131 0 20.2435 0 16ZM8.16875 19.6187C7.90625 18.7687 8.6125 18 9.5 18H22.7812C23.6688 18 24.375 18.775 24.1125 19.6187C23.0625 23.025 19.8875 25.5 16.1375 25.5C12.3875 25.5 9.2125 23.025 8.16875 19.6187ZM8.34375 8.1625L13.9625 11.1562C14.6312 11.5125 14.6312 12.475 13.9625 12.8313L8.34375 15.825C7.85 16.0875 7.25 15.7312 7.25 15.1687C7.25 14.9937 7.3125 14.825 7.425 14.6938L9.675 11.9937L7.425 9.29375C7.3125 9.1625 7.25 8.99375 7.25 8.81875C7.25 8.25625 7.85 7.9 8.34375 8.1625ZM24.75 8.81875C24.75 8.99375 24.6875 9.1625 24.575 9.29375L22.325 11.9937L24.575 14.6938C24.6875 14.825 24.75 14.9937 24.75 15.1687C24.75 15.7312 24.15 16.0875 23.6562 15.825L18.0375 12.8313C17.3687 12.475 17.3687 11.5125 18.0375 11.1562L23.6562 8.1625C24.15 7.9 24.75 8.25625 24.75 8.81875Z" fill="#5BC8AC"/>
</svg>
