<svg width="66" height="56" viewBox="0 0 66 56" fill="none" xmlns="http://www.w3.org/2000/svg">
<mask id="path-1-outside-1_502_73" maskUnits="userSpaceOnUse" x="0" y="0" width="66" height="56" fill="black">
<rect fill="white" width="66" height="56"/>
<path d="M22.6802 2.01994L22.5282 2.09446C22.2319 2.19498 21.9763 2.38844 21.7997 2.64585C21.6231 2.90326 21.535 3.21076 21.5485 3.52226V9.90649C21.5222 10.2236 21.602 10.5406 21.7753 10.8079C20.4946 10.9558 19.2468 11.3114 18.0813 11.8607C18.0858 11.5349 17.9795 11.2172 17.7797 10.9593L14.6092 5.39714L14.5368 5.25292L14.462 5.176L14.3848 5.02697L14.2352 4.95246C14.1045 4.82461 13.9505 4.72265 13.7816 4.652C13.5883 4.5841 13.3827 4.55788 13.1784 4.57508C13.1024 4.59703 13.0275 4.62271 12.954 4.652C12.7278 4.70285 12.5172 4.80708 12.3399 4.95591C12.1626 5.10475 12.0237 5.29384 11.9351 5.50727C11.8464 5.7207 11.8105 5.95223 11.8303 6.18237C11.8502 6.41251 11.9253 6.63453 12.0492 6.82975L15.2896 12.3895C15.3941 12.6622 15.5792 12.8969 15.8205 13.0625C14.8505 13.7764 14.0494 14.7331 13.3304 15.6946C13.1552 15.414 12.8886 15.2019 12.5752 15.0937L6.99913 11.8583C6.92848 11.8008 6.85254 11.7501 6.77232 11.7069C6.57881 11.6398 6.37321 11.6144 6.16911 11.6323C6.06619 11.6463 5.96507 11.6713 5.86751 11.7069C5.57553 11.7743 5.31176 11.9303 5.1126 12.1535C4.91343 12.3766 4.7887 12.6558 4.7556 12.9526C4.7225 13.2493 4.78267 13.549 4.92781 13.8102C5.07295 14.0715 5.29591 14.2814 5.5659 14.411L11.1468 17.5671C11.3846 17.7504 11.6739 17.8555 11.9744 17.8675C11.4605 18.9925 11.2119 20.1967 11.0696 21.4731C10.9961 21.4446 10.9212 21.4198 10.8452 21.3986C10.6048 21.3065 10.3441 21.2799 10.09 21.3217H3.67906C3.5788 21.3112 3.47772 21.3112 3.37746 21.3217H3.22545C2.84502 21.3816 2.50406 21.5896 2.27759 21.9C2.05111 22.2103 1.95767 22.5976 2.01783 22.9766C2.07798 23.3556 2.2868 23.6953 2.59834 23.9209C2.90988 24.1465 3.29863 24.2396 3.67906 24.1797H10.0876C10.2864 24.2219 10.4919 24.2219 10.6908 24.1797C10.8008 24.1178 10.9022 24.0418 10.9924 23.9537C11.1259 25.2565 11.4532 26.4832 11.9744 27.6338H11.8224C11.7456 27.6549 11.6699 27.6798 11.5956 27.7083C11.4331 27.7567 11.2803 27.8332 11.1444 27.9343L5.56108 31.0927C5.38386 31.1815 5.22654 31.3052 5.09859 31.4562C4.97064 31.6073 4.87471 31.7826 4.81659 31.9715C4.75848 32.1605 4.73937 32.3592 4.76042 32.5557C4.78147 32.7522 4.84225 32.9425 4.93909 33.115C5.03593 33.2874 5.16683 33.4386 5.3239 33.5593C5.48096 33.6801 5.66094 33.7679 5.85298 33.8174C6.04502 33.867 6.24515 33.8773 6.4413 33.8478C6.63746 33.8182 6.82557 33.7494 6.9943 33.6454L12.5752 30.4149C12.8468 30.3231 13.0849 30.153 13.2593 29.9262C13.4337 29.6994 13.5366 29.426 13.5548 29.1409L17.0221 26.8093C16.2712 25.7297 15.8321 24.4655 15.7524 23.1545C15.6727 21.8435 15.9555 20.5358 16.5701 19.3738C17.1847 18.2117 18.1074 17.2399 19.2379 16.5641C20.3684 15.8883 21.6634 15.5343 22.9818 15.5408C24.271 15.537 25.5379 15.8764 26.6514 16.5238C27.7649 17.1712 28.6846 18.1031 29.3155 19.2232L32.7851 17.2714C32.9672 17.5259 33.2272 17.7145 33.5261 17.809C33.8251 17.9035 34.1468 17.8988 34.4427 17.7954C34.5789 17.7404 34.7058 17.665 34.8191 17.5719L40.4024 14.411C40.6554 14.3245 40.8796 14.1703 41.0504 13.9653C41.2213 13.7603 41.3322 13.5125 41.3711 13.2489C41.41 12.9853 41.3753 12.7161 41.2708 12.4708C41.1663 12.2255 40.9961 12.0136 40.7789 11.8583C40.6657 11.7643 40.5387 11.6881 40.4024 11.6323C40.1317 11.5516 39.8432 11.5516 39.5724 11.6323C39.4956 11.6534 39.4199 11.6783 39.3456 11.7069C39.2136 11.7395 39.0869 11.7905 38.9692 11.8583L33.3883 15.0865C33.1146 15.1906 32.879 15.375 32.7127 15.6153C31.9919 14.6397 31.1272 13.7782 30.1479 13.0601C30.2628 12.9754 30.3644 12.8741 30.4495 12.7597L30.5243 12.6082L30.5991 12.5337L30.6739 12.3823L33.9167 6.82494C34.0667 6.60563 34.1531 6.34933 34.1663 6.08427C34.1795 5.81921 34.119 5.55565 33.9915 5.32263C33.8305 5.0145 33.5631 4.77466 33.2387 4.64719C33.0454 4.57929 32.8398 4.55307 32.6355 4.57027C32.5325 4.58503 32.4314 4.61082 32.3339 4.64719C32.1252 4.69246 31.9291 4.78318 31.7598 4.91284C31.5904 5.0425 31.452 5.20789 31.3543 5.39714L28.1863 10.9569L28.1115 11.1059C27.9674 11.331 27.8889 11.5914 27.8846 11.8583C26.7111 11.3431 25.4639 11.0138 24.1882 10.8824C24.2123 10.8848 24.2413 10.8055 24.263 10.8103C24.2988 10.7123 24.3239 10.6108 24.3378 10.5074C24.3801 10.3864 24.4061 10.2603 24.415 10.1324C24.4185 10.0572 24.4185 9.98176 24.415 9.90649V3.52226C24.4144 3.36862 24.3891 3.21606 24.3402 3.07036C24.3173 2.9954 24.2907 2.9216 24.2606 2.84922C24.2243 2.743 24.1757 2.64135 24.1158 2.54635L24.041 2.47184C23.8746 2.29796 23.6673 2.16824 23.4378 2.09446C23.1972 2.00316 22.9365 1.97744 22.6826 2.01994H22.6802ZM42.2845 17.9445C36.8266 17.9445 32.2229 21.0693 29.7667 25.5305C29.1104 25.408 28.5289 25.1556 27.8074 25.1556C21.9997 25.1556 17.3237 29.3789 16.1945 34.8449C16.0328 34.8353 15.9121 34.7704 15.7433 34.7704C10.4422 34.7704 6.0919 39.1043 6.0919 44.3852C6.0919 49.6661 10.4422 54 15.7433 54H51.9358C58.5711 54 64 48.5917 64 41.9815C64 37.0299 60.8512 32.9195 56.5347 31.0903C55.8591 23.7686 49.8029 17.9445 42.2845 17.9445ZM42.2845 22.7519C47.6458 22.7519 51.9358 27.0257 51.9358 32.3667C51.9358 32.0374 51.9479 32.1383 51.9358 32.6671L51.861 34.5444L53.7454 34.9963C55.3028 35.3905 56.6832 36.2921 57.6669 37.5579C58.6507 38.8236 59.1813 40.3807 59.1743 41.9815C59.1743 45.9909 55.9604 49.1926 51.9358 49.1926H15.7433C13.0529 49.1926 10.9176 47.0653 10.9176 44.3852C10.9114 43.6095 11.0949 42.844 11.4523 42.1549C11.8097 41.4658 12.3302 40.8737 12.9689 40.43C13.6075 39.9862 14.345 39.704 15.1176 39.6079C15.8902 39.5118 16.6747 39.6046 17.4033 39.8782L20.8705 41.1546L20.6437 37.4745C20.6341 37.3207 20.581 37.2462 20.5689 37.1741C20.5689 37.1116 20.5641 37.1188 20.5689 37.0996V37.0251C20.6 35.1359 21.3773 33.3351 22.7324 32.0131C24.0874 30.6911 25.9109 29.9545 27.8074 29.963C28.6133 29.963 29.4047 30.1264 30.2203 30.4149L32.4835 31.1648L33.3111 28.9871C34.6864 25.3431 38.1344 22.7519 42.2845 22.7519Z"/>
</mask>
<path d="M22.6802 2.01994L22.5282 2.09446C22.2319 2.19498 21.9763 2.38844 21.7997 2.64585C21.6231 2.90326 21.535 3.21076 21.5485 3.52226V9.90649C21.5222 10.2236 21.602 10.5406 21.7753 10.8079C20.4946 10.9558 19.2468 11.3114 18.0813 11.8607C18.0858 11.5349 17.9795 11.2172 17.7797 10.9593L14.6092 5.39714L14.5368 5.25292L14.462 5.176L14.3848 5.02697L14.2352 4.95246C14.1045 4.82461 13.9505 4.72265 13.7816 4.652C13.5883 4.5841 13.3827 4.55788 13.1784 4.57508C13.1024 4.59703 13.0275 4.62271 12.954 4.652C12.7278 4.70285 12.5172 4.80708 12.3399 4.95591C12.1626 5.10475 12.0237 5.29384 11.9351 5.50727C11.8464 5.7207 11.8105 5.95223 11.8303 6.18237C11.8502 6.41251 11.9253 6.63453 12.0492 6.82975L15.2896 12.3895C15.3941 12.6622 15.5792 12.8969 15.8205 13.0625C14.8505 13.7764 14.0494 14.7331 13.3304 15.6946C13.1552 15.414 12.8886 15.2019 12.5752 15.0937L6.99913 11.8583C6.92848 11.8008 6.85254 11.7501 6.77232 11.7069C6.57881 11.6398 6.37321 11.6144 6.16911 11.6323C6.06619 11.6463 5.96507 11.6713 5.86751 11.7069C5.57553 11.7743 5.31176 11.9303 5.1126 12.1535C4.91343 12.3766 4.7887 12.6558 4.7556 12.9526C4.7225 13.2493 4.78267 13.549 4.92781 13.8102C5.07295 14.0715 5.29591 14.2814 5.5659 14.411L11.1468 17.5671C11.3846 17.7504 11.6739 17.8555 11.9744 17.8675C11.4605 18.9925 11.2119 20.1967 11.0696 21.4731C10.9961 21.4446 10.9212 21.4198 10.8452 21.3986C10.6048 21.3065 10.3441 21.2799 10.09 21.3217H3.67906C3.5788 21.3112 3.47772 21.3112 3.37746 21.3217H3.22545C2.84502 21.3816 2.50406 21.5896 2.27759 21.9C2.05111 22.2103 1.95767 22.5976 2.01783 22.9766C2.07798 23.3556 2.2868 23.6953 2.59834 23.9209C2.90988 24.1465 3.29863 24.2396 3.67906 24.1797H10.0876C10.2864 24.2219 10.4919 24.2219 10.6908 24.1797C10.8008 24.1178 10.9022 24.0418 10.9924 23.9537C11.1259 25.2565 11.4532 26.4832 11.9744 27.6338H11.8224C11.7456 27.6549 11.6699 27.6798 11.5956 27.7083C11.4331 27.7567 11.2803 27.8332 11.1444 27.9343L5.56108 31.0927C5.38386 31.1815 5.22654 31.3052 5.09859 31.4562C4.97064 31.6073 4.87471 31.7826 4.81659 31.9715C4.75848 32.1605 4.73937 32.3592 4.76042 32.5557C4.78147 32.7522 4.84225 32.9425 4.93909 33.115C5.03593 33.2874 5.16683 33.4386 5.3239 33.5593C5.48096 33.6801 5.66094 33.7679 5.85298 33.8174C6.04502 33.867 6.24515 33.8773 6.4413 33.8478C6.63746 33.8182 6.82557 33.7494 6.9943 33.6454L12.5752 30.4149C12.8468 30.3231 13.0849 30.153 13.2593 29.9262C13.4337 29.6994 13.5366 29.426 13.5548 29.1409L17.0221 26.8093C16.2712 25.7297 15.8321 24.4655 15.7524 23.1545C15.6727 21.8435 15.9555 20.5358 16.5701 19.3738C17.1847 18.2117 18.1074 17.2399 19.2379 16.5641C20.3684 15.8883 21.6634 15.5343 22.9818 15.5408C24.271 15.537 25.5379 15.8764 26.6514 16.5238C27.7649 17.1712 28.6846 18.1031 29.3155 19.2232L32.7851 17.2714C32.9672 17.5259 33.2272 17.7145 33.5261 17.809C33.8251 17.9035 34.1468 17.8988 34.4427 17.7954C34.5789 17.7404 34.7058 17.665 34.8191 17.5719L40.4024 14.411C40.6554 14.3245 40.8796 14.1703 41.0504 13.9653C41.2213 13.7603 41.3322 13.5125 41.3711 13.2489C41.41 12.9853 41.3753 12.7161 41.2708 12.4708C41.1663 12.2255 40.9961 12.0136 40.7789 11.8583C40.6657 11.7643 40.5387 11.6881 40.4024 11.6323C40.1317 11.5516 39.8432 11.5516 39.5724 11.6323C39.4956 11.6534 39.4199 11.6783 39.3456 11.7069C39.2136 11.7395 39.0869 11.7905 38.9692 11.8583L33.3883 15.0865C33.1146 15.1906 32.879 15.375 32.7127 15.6153C31.9919 14.6397 31.1272 13.7782 30.1479 13.0601C30.2628 12.9754 30.3644 12.8741 30.4495 12.7597L30.5243 12.6082L30.5991 12.5337L30.6739 12.3823L33.9167 6.82494C34.0667 6.60563 34.1531 6.34933 34.1663 6.08427C34.1795 5.81921 34.119 5.55565 33.9915 5.32263C33.8305 5.0145 33.5631 4.77466 33.2387 4.64719C33.0454 4.57929 32.8398 4.55307 32.6355 4.57027C32.5325 4.58503 32.4314 4.61082 32.3339 4.64719C32.1252 4.69246 31.9291 4.78318 31.7598 4.91284C31.5904 5.0425 31.452 5.20789 31.3543 5.39714L28.1863 10.9569L28.1115 11.1059C27.9674 11.331 27.8889 11.5914 27.8846 11.8583C26.7111 11.3431 25.4639 11.0138 24.1882 10.8824C24.2123 10.8848 24.2413 10.8055 24.263 10.8103C24.2988 10.7123 24.3239 10.6108 24.3378 10.5074C24.3801 10.3864 24.4061 10.2603 24.415 10.1324C24.4185 10.0572 24.4185 9.98176 24.415 9.90649V3.52226C24.4144 3.36862 24.3891 3.21606 24.3402 3.07036C24.3173 2.9954 24.2907 2.9216 24.2606 2.84922C24.2243 2.743 24.1757 2.64135 24.1158 2.54635L24.041 2.47184C23.8746 2.29796 23.6673 2.16824 23.4378 2.09446C23.1972 2.00316 22.9365 1.97744 22.6826 2.01994H22.6802ZM42.2845 17.9445C36.8266 17.9445 32.2229 21.0693 29.7667 25.5305C29.1104 25.408 28.5289 25.1556 27.8074 25.1556C21.9997 25.1556 17.3237 29.3789 16.1945 34.8449C16.0328 34.8353 15.9121 34.7704 15.7433 34.7704C10.4422 34.7704 6.0919 39.1043 6.0919 44.3852C6.0919 49.6661 10.4422 54 15.7433 54H51.9358C58.5711 54 64 48.5917 64 41.9815C64 37.0299 60.8512 32.9195 56.5347 31.0903C55.8591 23.7686 49.8029 17.9445 42.2845 17.9445ZM42.2845 22.7519C47.6458 22.7519 51.9358 27.0257 51.9358 32.3667C51.9358 32.0374 51.9479 32.1383 51.9358 32.6671L51.861 34.5444L53.7454 34.9963C55.3028 35.3905 56.6832 36.2921 57.6669 37.5579C58.6507 38.8236 59.1813 40.3807 59.1743 41.9815C59.1743 45.9909 55.9604 49.1926 51.9358 49.1926H15.7433C13.0529 49.1926 10.9176 47.0653 10.9176 44.3852C10.9114 43.6095 11.0949 42.844 11.4523 42.1549C11.8097 41.4658 12.3302 40.8737 12.9689 40.43C13.6075 39.9862 14.345 39.704 15.1176 39.6079C15.8902 39.5118 16.6747 39.6046 17.4033 39.8782L20.8705 41.1546L20.6437 37.4745C20.6341 37.3207 20.581 37.2462 20.5689 37.1741C20.5689 37.1116 20.5641 37.1188 20.5689 37.0996V37.0251C20.6 35.1359 21.3773 33.3351 22.7324 32.0131C24.0874 30.6911 25.9109 29.9545 27.8074 29.963C28.6133 29.963 29.4047 30.1264 30.2203 30.4149L32.4835 31.1648L33.3111 28.9871C34.6864 25.3431 38.1344 22.7519 42.2845 22.7519Z" fill="#5BC8AC"/>
<path d="M22.6802 2.01994L22.5282 2.09446C22.2319 2.19498 21.9763 2.38844 21.7997 2.64585C21.6231 2.90326 21.535 3.21076 21.5485 3.52226V9.90649C21.5222 10.2236 21.602 10.5406 21.7753 10.8079C20.4946 10.9558 19.2468 11.3114 18.0813 11.8607C18.0858 11.5349 17.9795 11.2172 17.7797 10.9593L14.6092 5.39714L14.5368 5.25292L14.462 5.176L14.3848 5.02697L14.2352 4.95246C14.1045 4.82461 13.9505 4.72265 13.7816 4.652C13.5883 4.5841 13.3827 4.55788 13.1784 4.57508C13.1024 4.59703 13.0275 4.62271 12.954 4.652C12.7278 4.70285 12.5172 4.80708 12.3399 4.95591C12.1626 5.10475 12.0237 5.29384 11.9351 5.50727C11.8464 5.7207 11.8105 5.95223 11.8303 6.18237C11.8502 6.41251 11.9253 6.63453 12.0492 6.82975L15.2896 12.3895C15.3941 12.6622 15.5792 12.8969 15.8205 13.0625C14.8505 13.7764 14.0494 14.7331 13.3304 15.6946C13.1552 15.414 12.8886 15.2019 12.5752 15.0937L6.99913 11.8583C6.92848 11.8008 6.85254 11.7501 6.77232 11.7069C6.57881 11.6398 6.37321 11.6144 6.16911 11.6323C6.06619 11.6463 5.96507 11.6713 5.86751 11.7069C5.57553 11.7743 5.31176 11.9303 5.1126 12.1535C4.91343 12.3766 4.7887 12.6558 4.7556 12.9526C4.7225 13.2493 4.78267 13.549 4.92781 13.8102C5.07295 14.0715 5.29591 14.2814 5.5659 14.411L11.1468 17.5671C11.3846 17.7504 11.6739 17.8555 11.9744 17.8675C11.4605 18.9925 11.2119 20.1967 11.0696 21.4731C10.9961 21.4446 10.9212 21.4198 10.8452 21.3986C10.6048 21.3065 10.3441 21.2799 10.09 21.3217H3.67906C3.5788 21.3112 3.47772 21.3112 3.37746 21.3217H3.22545C2.84502 21.3816 2.50406 21.5896 2.27759 21.9C2.05111 22.2103 1.95767 22.5976 2.01783 22.9766C2.07798 23.3556 2.2868 23.6953 2.59834 23.9209C2.90988 24.1465 3.29863 24.2396 3.67906 24.1797H10.0876C10.2864 24.2219 10.4919 24.2219 10.6908 24.1797C10.8008 24.1178 10.9022 24.0418 10.9924 23.9537C11.1259 25.2565 11.4532 26.4832 11.9744 27.6338H11.8224C11.7456 27.6549 11.6699 27.6798 11.5956 27.7083C11.4331 27.7567 11.2803 27.8332 11.1444 27.9343L5.56108 31.0927C5.38386 31.1815 5.22654 31.3052 5.09859 31.4562C4.97064 31.6073 4.87471 31.7826 4.81659 31.9715C4.75848 32.1605 4.73937 32.3592 4.76042 32.5557C4.78147 32.7522 4.84225 32.9425 4.93909 33.115C5.03593 33.2874 5.16683 33.4386 5.3239 33.5593C5.48096 33.6801 5.66094 33.7679 5.85298 33.8174C6.04502 33.867 6.24515 33.8773 6.4413 33.8478C6.63746 33.8182 6.82557 33.7494 6.9943 33.6454L12.5752 30.4149C12.8468 30.3231 13.0849 30.153 13.2593 29.9262C13.4337 29.6994 13.5366 29.426 13.5548 29.1409L17.0221 26.8093C16.2712 25.7297 15.8321 24.4655 15.7524 23.1545C15.6727 21.8435 15.9555 20.5358 16.5701 19.3738C17.1847 18.2117 18.1074 17.2399 19.2379 16.5641C20.3684 15.8883 21.6634 15.5343 22.9818 15.5408C24.271 15.537 25.5379 15.8764 26.6514 16.5238C27.7649 17.1712 28.6846 18.1031 29.3155 19.2232L32.7851 17.2714C32.9672 17.5259 33.2272 17.7145 33.5261 17.809C33.8251 17.9035 34.1468 17.8988 34.4427 17.7954C34.5789 17.7404 34.7058 17.665 34.8191 17.5719L40.4024 14.411C40.6554 14.3245 40.8796 14.1703 41.0504 13.9653C41.2213 13.7603 41.3322 13.5125 41.3711 13.2489C41.41 12.9853 41.3753 12.7161 41.2708 12.4708C41.1663 12.2255 40.9961 12.0136 40.7789 11.8583C40.6657 11.7643 40.5387 11.6881 40.4024 11.6323C40.1317 11.5516 39.8432 11.5516 39.5724 11.6323C39.4956 11.6534 39.4199 11.6783 39.3456 11.7069C39.2136 11.7395 39.0869 11.7905 38.9692 11.8583L33.3883 15.0865C33.1146 15.1906 32.879 15.375 32.7127 15.6153C31.9919 14.6397 31.1272 13.7782 30.1479 13.0601C30.2628 12.9754 30.3644 12.8741 30.4495 12.7597L30.5243 12.6082L30.5991 12.5337L30.6739 12.3823L33.9167 6.82494C34.0667 6.60563 34.1531 6.34933 34.1663 6.08427C34.1795 5.81921 34.119 5.55565 33.9915 5.32263C33.8305 5.0145 33.5631 4.77466 33.2387 4.64719C33.0454 4.57929 32.8398 4.55307 32.6355 4.57027C32.5325 4.58503 32.4314 4.61082 32.3339 4.64719C32.1252 4.69246 31.9291 4.78318 31.7598 4.91284C31.5904 5.0425 31.452 5.20789 31.3543 5.39714L28.1863 10.9569L28.1115 11.1059C27.9674 11.331 27.8889 11.5914 27.8846 11.8583C26.7111 11.3431 25.4639 11.0138 24.1882 10.8824C24.2123 10.8848 24.2413 10.8055 24.263 10.8103C24.2988 10.7123 24.3239 10.6108 24.3378 10.5074C24.3801 10.3864 24.4061 10.2603 24.415 10.1324C24.4185 10.0572 24.4185 9.98176 24.415 9.90649V3.52226C24.4144 3.36862 24.3891 3.21606 24.3402 3.07036C24.3173 2.9954 24.2907 2.9216 24.2606 2.84922C24.2243 2.743 24.1757 2.64135 24.1158 2.54635L24.041 2.47184C23.8746 2.29796 23.6673 2.16824 23.4378 2.09446C23.1972 2.00316 22.9365 1.97744 22.6826 2.01994H22.6802ZM42.2845 17.9445C36.8266 17.9445 32.2229 21.0693 29.7667 25.5305C29.1104 25.408 28.5289 25.1556 27.8074 25.1556C21.9997 25.1556 17.3237 29.3789 16.1945 34.8449C16.0328 34.8353 15.9121 34.7704 15.7433 34.7704C10.4422 34.7704 6.0919 39.1043 6.0919 44.3852C6.0919 49.6661 10.4422 54 15.7433 54H51.9358C58.5711 54 64 48.5917 64 41.9815C64 37.0299 60.8512 32.9195 56.5347 31.0903C55.8591 23.7686 49.8029 17.9445 42.2845 17.9445ZM42.2845 22.7519C47.6458 22.7519 51.9358 27.0257 51.9358 32.3667C51.9358 32.0374 51.9479 32.1383 51.9358 32.6671L51.861 34.5444L53.7454 34.9963C55.3028 35.3905 56.6832 36.2921 57.6669 37.5579C58.6507 38.8236 59.1813 40.3807 59.1743 41.9815C59.1743 45.9909 55.9604 49.1926 51.9358 49.1926H15.7433C13.0529 49.1926 10.9176 47.0653 10.9176 44.3852C10.9114 43.6095 11.0949 42.844 11.4523 42.1549C11.8097 41.4658 12.3302 40.8737 12.9689 40.43C13.6075 39.9862 14.345 39.704 15.1176 39.6079C15.8902 39.5118 16.6747 39.6046 17.4033 39.8782L20.8705 41.1546L20.6437 37.4745C20.6341 37.3207 20.581 37.2462 20.5689 37.1741C20.5689 37.1116 20.5641 37.1188 20.5689 37.0996V37.0251C20.6 35.1359 21.3773 33.3351 22.7324 32.0131C24.0874 30.6911 25.9109 29.9545 27.8074 29.963C28.6133 29.963 29.4047 30.1264 30.2203 30.4149L32.4835 31.1648L33.3111 28.9871C34.6864 25.3431 38.1344 22.7519 42.2845 22.7519Z" stroke="white" stroke-width="4" mask="url(#path-1-outside-1_502_73)"/>
</svg>
