<svg width="176" height="198" viewBox="0 0 176 198" fill="none" xmlns="http://www.w3.org/2000/svg">
<path d="M25.5 122C9.90004 153.6 19 172.833 25.5 178.5C53.5 195.3 103.167 182.833 124.5 174.5C133.7 160.1 105 127.833 89.5001 113.5C77.5001 98.7 63.5001 96.6667 58.0001 97.5C44.0001 93.5 30.5 112.167 25.5 122Z" fill="white" stroke="white"/>
<g filter="url(#filter0_d_502_217)">
<path d="M136.256 157.601C138.52 160.093 143.679 164.848 146.202 163.924C144.677 157.948 144.268 144.408 154.831 138.057C156.02 144.545 155.959 158.801 146.202 163.924C148.867 165.537 155.258 168.607 159.498 167.986C158.113 162.606 158.44 151.022 170.823 147.732C170.881 155.337 168.914 169.494 160.811 168.3C166.569 169.631 176.437 171.38 178.387 169.613C176.31 162.588 175.342 147.618 188.089 143.936C197 158.5 176.986 162.518 178.387 169.613C182.094 169.508 190.424 167.861 194.095 162.118C193.73 154.445 195.894 139.838 207.467 142.797C203.032 147.719 194.149 158.475 194.095 162.118C198.638 157.975 207.815 150.847 208.176 155.477C206.257 157.991 201.188 163.714 196.271 166.497C199.651 168.236 202.87 168.805 208.723 166.987C213.278 162.085 222.478 164.282 213.14 177.469C206.082 181.928 193.767 180.664 196.271 166.497C193.692 168.853 188.791 172.833 184.691 174.892C189.356 174.265 194.555 175.936 194.473 185.012C188.891 186.688 178.216 187.274 180.172 176.206C177.051 176.908 171.45 177.75 166.876 177.392C169.921 179.168 172.635 182.551 172.46 188.539C166.328 188.406 155.467 185.65 161.087 175.686C158.081 175.28 152.773 174.252 148.653 172.665C151.924 175.371 154.291 179.53 151.003 184.746C146.549 184.91 138.851 182.142 143.696 169.758C141.008 169.664 135.444 168.871 134.691 166.455L136.256 157.601Z" fill="#695342"/>
<path d="M146.202 163.924C143.679 164.848 138.52 160.093 136.256 157.601L134.691 166.455C135.444 168.871 141.008 169.664 143.696 169.758M146.202 163.924C144.677 157.948 144.268 144.408 154.831 138.057C156.02 144.545 155.959 158.801 146.202 163.924ZM146.202 163.924C148.867 165.537 155.258 168.607 159.498 167.986M159.498 167.986C158.113 162.606 158.44 151.022 170.823 147.732C170.884 155.732 168.704 170.983 159.498 167.986ZM159.498 167.986C164.916 169.325 176.279 171.524 178.387 169.613M178.387 169.613C176.31 162.588 175.342 147.618 188.089 143.936C197 158.5 176.986 162.518 178.387 169.613ZM178.387 169.613C182.094 169.508 190.424 167.861 194.095 162.118M194.095 162.118C193.73 154.445 195.894 139.838 207.467 142.797C203.032 147.719 194.149 158.475 194.095 162.118ZM194.095 162.118C198.638 157.975 207.815 150.847 208.176 155.477C206.257 157.991 201.188 163.714 196.271 166.497M196.271 166.497C199.651 168.236 202.87 168.805 208.723 166.987C213.278 162.085 222.478 164.282 213.14 177.469C206.082 181.928 193.767 180.664 196.271 166.497ZM196.271 166.497C192.606 169.844 184.256 176.472 180.172 176.206M180.172 176.206C184.985 174.014 194.584 172.705 194.473 185.012C188.891 186.688 178.216 187.274 180.172 176.206ZM180.172 176.206C175.435 177.271 164.987 178.658 161.087 175.686M161.087 175.686C164.999 175.807 172.751 178.547 172.46 188.539C166.328 188.406 155.467 185.65 161.087 175.686ZM161.087 175.686C156.525 175.07 146.659 173.022 143.696 169.758M143.696 169.758C148.181 171.503 155.923 176.942 151.003 184.746C146.549 184.91 138.851 182.142 143.696 169.758Z" stroke="white" stroke-width="2"/>
</g>
<path fill-rule="evenodd" clip-rule="evenodd" d="M137.911 3C129.111 19.4 119.244 25.5 115.411 26.5C81.011 8.5 51.411 19 40.9109 26.5C29.3109 31.3 23.4109 19.5 21.9109 13C6.31095 27.8 23.0776 41.5 33.4109 46.5C21.8109 44.5 15.5776 32.3333 13.9109 26.5C9.79491 33.9146 10.8096 39.9663 13.8782 44.5798C9.98896 54.1392 18.4946 63.1731 22.8011 65.5C27.1239 61.7706 31.582 55.2825 33.4086 54.0868C33.4625 54.2392 33.5202 54.3895 33.5814 54.5376C32.5776 55.744 29.894 58.4954 24.7358 63.5C6.59575 81.1 21.6275 95.1667 31.4109 100C-14.9891 151.6 3.7146 166.167 18.8664 167H10.911C8.11099 175.8 18.9609 178.667 24.7358 179C26.5627 181.468 28.7713 183.814 31.4109 186L24.7358 179C21.9489 175.235 20.0505 171.189 18.8664 167C13.2992 147.305 23.522 124.464 31.4109 113C48.2109 83.4 77.0776 100.667 89.411 113C71.811 149 90.1495 159.667 101.519 160.5C106.334 175.814 118.24 177.046 124.911 175.114C125.942 176.531 126.977 177.862 127.911 179C152.311 185.4 156.411 166.333 155.411 156C122.611 109.2 116.744 86.1667 117.911 80.5C127.911 71.3 124.744 59.3333 121.911 54.5C144.711 54.5 147.274 39.8333 145.705 32.5C146.756 28.0249 146.002 23.596 144.757 20.5C147.996 11.6491 142.833 5.6115 137.911 3Z" fill="#42695A"/>
<path d="M144.757 20.5C147.996 11.6491 142.833 5.6115 137.911 3C129.111 19.4 119.244 25.5 115.411 26.5C81.011 8.5 51.411 19 40.9109 26.5C29.3109 31.3 23.4109 19.5 21.9109 13C6.31095 27.8 23.0776 41.5 33.4109 46.5C21.8109 44.5 15.5776 32.3333 13.9109 26.5C9.79491 33.9146 10.8096 39.9663 13.8782 44.5798M144.757 20.5C142.621 26.3356 136.831 33.3942 124.911 41.5C131.281 37.1667 144.168 26.9 144.757 20.5ZM144.757 20.5C146.002 23.596 146.756 28.0249 145.705 32.5M145.705 32.5C144.041 39.5886 137.849 46.7932 121.911 49C128.274 48.5 141.941 44.5 145.705 32.5ZM145.705 32.5C147.274 39.8333 144.711 54.5 121.911 54.5C124.744 59.3333 127.911 71.3 117.911 80.5C116.744 86.1667 122.611 109.2 155.411 156C156.411 166.333 152.311 185.4 127.911 179C126.977 177.862 125.942 176.531 124.911 175.114M124.911 175.114C120.054 168.435 115.311 159.84 121.911 160.5C118.578 160.243 114.511 162.805 124.911 175.114ZM124.911 175.114C118.24 177.046 106.334 175.814 101.519 160.5M101.519 160.5C100.198 156.301 99.411 151.042 99.411 144.5L101.519 160.5ZM101.519 160.5C90.1495 159.667 71.811 149 89.411 113C77.0776 100.667 48.2109 83.4 31.4109 113C23.522 124.464 13.2992 147.305 18.8664 167M24.7358 179C26.5627 181.468 28.7713 183.814 31.4109 186L24.7358 179ZM24.7358 179C18.9609 178.667 8.11099 175.8 10.911 167H18.8664M24.7358 179C21.9489 175.235 20.0505 171.189 18.8664 167M18.8664 167C3.7146 166.167 -14.9891 151.6 31.4109 100C21.6275 95.1667 6.59575 81.1 24.7358 63.5C29.894 58.4954 32.5776 55.744 33.5814 54.5376M33.5814 54.5376C33.5202 54.3895 33.4625 54.2392 33.4086 54.0868M33.5814 54.5376C34.3124 53.6591 34.1525 53.6 33.4086 54.0868M33.4086 54.0868C31.582 55.2825 27.1239 61.7706 22.8011 65.5C18.4946 63.1731 9.98896 54.1392 13.8782 44.5798M13.8782 44.5798C13.889 44.5532 13.9 44.5266 13.9109 44.5C13.4109 47 15.4109 52.5 27.4109 54.5C23.1565 53.0133 17.2658 49.6729 13.8782 44.5798Z" stroke="white" stroke-width="3"/>
<path d="M19.4429 184.354C15.9429 175.354 34.1096 176.354 41.443 178.354L48 186.854L23.443 186.854L19.4429 184.354Z" fill="#F9DA7C" stroke="white"/>
<path d="M60.3688 186.325C55.8566 176.733 73.4088 175.825 80.6991 177.229L88.0792 185.927L64.5262 188.654L60.3688 186.325Z" fill="#F9DA7C" stroke="white"/>
<path d="M17.5674 183.712C16.8281 179.991 20.6238 181.211 22.614 182.286L19.0486 182.065C18.138 182.65 17.6817 183.406 17.5674 183.712Z" fill="#8A7765"/>
<path d="M18.5674 186.319C18.0071 182.548 23.7865 183.208 26.7463 184.009L21.1673 184.357C19.6383 185.116 18.797 185.981 18.5674 186.319Z" fill="#8A7765"/>
<path d="M22.3999 187.993C22.1575 184.188 27.8613 185.33 30.7435 186.376L25.155 186.255C23.5678 186.884 22.6569 187.675 22.3999 187.993Z" fill="#8A7765"/>
<path d="M58.945 185.235C57.5007 181.728 61.4606 182.191 63.621 182.862L60.0802 183.334C59.2997 184.083 58.9982 184.914 58.945 185.235Z" fill="#8A7765"/>
<path d="M60.4301 187.6C59.1517 184.009 64.9496 183.539 68.0084 183.754L62.6018 185.173C61.2484 186.213 60.5901 187.225 60.4301 187.6Z" fill="#8A7765"/>
<path d="M64.5138 188.502C63.5407 184.816 69.3576 184.834 72.3877 185.303L66.8812 186.265C65.4453 187.188 64.7046 188.141 64.5138 188.502Z" fill="#8A7765"/>
<path d="M36 143.5L27 134L36 139L45 127L57.5 137.5L71.5 131L57.5 144.5L45 135.5L36 143.5Z" fill="#42695A"/>
<path d="M35.1011 162.971L26 153.2L35.1011 158.343L44.2022 146L56.8427 156.8L71 150.114L56.8427 164L44.2022 154.743L35.1011 162.971Z" fill="#42695A"/>
<path d="M39.2809 125.2L32 117.6L39.2809 121.6L46.5618 112L56.6742 120.4L68 115.2L56.6742 126L46.5618 118.8L39.2809 125.2Z" fill="#42695A"/>
<path d="M52.8145 37.2279C32.5099 43.2269 36.2074 55.0376 40.5941 60.1931C34.954 60.1931 33.8573 65.1923 34.014 67.6919C37.7741 70.6914 44.6676 71.1288 47.6443 70.9726C53.2845 70.9726 65.0348 63.7863 70.2049 60.1931L102.636 67.6919C112.036 69.1916 109.999 63.3176 107.806 60.1931C114.95 44.8205 102.949 35.6656 96.0556 33.0098C71.6149 32.6348 68.6382 43.1644 70.2049 48.4761C66.8208 39.1026 57.2012 37.0716 52.8145 37.2279Z" fill="white"/>
<path d="M90.9999 43.5C84.9999 41.9 86.4999 45.5 85.4999 47.5C87.0999 40.7 81.8333 41 78.9999 42C73.7999 46.4 77.5 48.8333 80 49.5C75.6 49.5 76.5 51.8333 77.5 53C78.7 55.8 82 54.1667 83.5 53C91.1 55.8 89.4999 50.4763 88 49.5C89.4999 50.4763 98.4999 45.5 90.9999 43.5Z" fill="#42695A"/>
<path d="M50.8212 49.3609C50.5409 47.7236 51.4793 45.7396 55 47.4999C57 49.4999 55 52.4999 51 52.4999C52.3333 53.3332 54.6 55.3999 53 56.9999C51 58.9999 49 58.7015 49 55.4999C49 53.4999 47.4999 60.4999 43.4999 58.4999C42.1666 57.1666 39.7 54.4999 44.5 52.4999C42.5 51.8333 40.5 48.9999 45 46.4999C45.4812 46.4999 49.2052 44.1837 50.8212 49.3609Z" fill="#42695A"/>
<path d="M73 63.5C69.8 67.9 63 68 60 67.5V65.5C65.6667 63 76.2 59.1 73 63.5Z" fill="#F9DA7C" stroke="white"/>
<path d="M67 52L74.5 61L61 65.1538L55 67C50.6 60.6 54.5 56.3333 57 55L67 52Z" fill="#F9DA7C" stroke="white"/>
<defs>
<filter id="filter0_d_502_217" x="129.664" y="136.456" width="92.5055" height="61.1045" filterUnits="userSpaceOnUse" color-interpolation-filters="sRGB">
<feFlood flood-opacity="0" result="BackgroundImageFix"/>
<feColorMatrix in="SourceAlpha" type="matrix" values="0 0 0 0 0 0 0 0 0 0 0 0 0 0 0 0 0 0 127 0" result="hardAlpha"/>
<feOffset dy="4"/>
<feGaussianBlur stdDeviation="2"/>
<feComposite in2="hardAlpha" operator="out"/>
<feColorMatrix type="matrix" values="0 0 0 0 0 0 0 0 0 0 0 0 0 0 0 0 0 0 0.25 0"/>
<feBlend mode="normal" in2="BackgroundImageFix" result="effect1_dropShadow_502_217"/>
<feBlend mode="normal" in="SourceGraphic" in2="effect1_dropShadow_502_217" result="shape"/>
</filter>
</defs>
</svg>
